G04*
G04 #@! TF.GenerationSoftware,Altium Limited,Altium Designer,18.1.7 (191)*
G04*
G04 Layer_Color=16711935*
%FSLAX44Y44*%
%MOMM*%
G71*
G01*
G75*
%ADD10C,0.1524*%
%ADD15C,0.2032*%
%ADD70C,0.0254*%
D10*
X2395854Y1016141D02*
Y1012333D01*
Y1014237D01*
X2390141D01*
X2395854Y1007572D02*
Y1009476D01*
X2394902Y1010428D01*
X2391093D01*
X2390141Y1009476D01*
Y1007572D01*
X2391093Y1006619D01*
X2394902D01*
X2395854Y1007572D01*
X2390141Y1000906D02*
Y1004715D01*
X2393950Y1000906D01*
X2394902D01*
X2395854Y1001859D01*
Y1003763D01*
X2394902Y1004715D01*
X2395854Y995193D02*
X2394902Y997098D01*
X2392997Y999002D01*
X2391093D01*
X2390141Y998050D01*
Y996145D01*
X2391093Y995193D01*
X2392045D01*
X2392997Y996145D01*
Y999002D01*
X2394902Y993289D02*
X2395854Y992337D01*
Y990432D01*
X2394902Y989480D01*
X2393950D01*
X2392997Y990432D01*
Y991385D01*
Y990432D01*
X2392045Y989480D01*
X2391093D01*
X2390141Y990432D01*
Y992337D01*
X2391093Y993289D01*
X2392997Y987576D02*
Y983767D01*
X2395854Y981863D02*
Y978054D01*
X2394902D01*
X2391093Y981863D01*
X2390141D01*
X2173190Y1016141D02*
Y1012333D01*
Y1014237D01*
X2167477D01*
X2173190Y1007572D02*
Y1009476D01*
X2172238Y1010428D01*
X2168429D01*
X2167477Y1009476D01*
Y1007572D01*
X2168429Y1006619D01*
X2172238D01*
X2173190Y1007572D01*
X2167477Y1000906D02*
Y1004715D01*
X2171286Y1000906D01*
X2172238D01*
X2173190Y1001859D01*
Y1003763D01*
X2172238Y1004715D01*
X2173190Y995193D02*
X2172238Y997098D01*
X2170333Y999002D01*
X2168429D01*
X2167477Y998050D01*
Y996145D01*
X2168429Y995193D01*
X2169381D01*
X2170333Y996145D01*
Y999002D01*
X2172238Y993289D02*
X2173190Y992337D01*
Y990432D01*
X2172238Y989480D01*
X2171286D01*
X2170333Y990432D01*
Y991385D01*
Y990432D01*
X2169381Y989480D01*
X2168429D01*
X2167477Y990432D01*
Y992337D01*
X2168429Y993289D01*
X2170333Y987576D02*
Y983767D01*
X2173190Y981863D02*
Y978054D01*
X2172238D01*
X2168429Y981863D01*
X2167477D01*
X1950526Y1016141D02*
Y1012333D01*
Y1014237D01*
X1944813D01*
X1950526Y1007572D02*
Y1009476D01*
X1949574Y1010428D01*
X1945766D01*
X1944813Y1009476D01*
Y1007572D01*
X1945766Y1006619D01*
X1949574D01*
X1950526Y1007572D01*
X1944813Y1000906D02*
Y1004715D01*
X1948622Y1000906D01*
X1949574D01*
X1950526Y1001859D01*
Y1003763D01*
X1949574Y1004715D01*
X1950526Y995193D02*
X1949574Y997098D01*
X1947670Y999002D01*
X1945766D01*
X1944813Y998050D01*
Y996145D01*
X1945766Y995193D01*
X1946718D01*
X1947670Y996145D01*
Y999002D01*
X1949574Y993289D02*
X1950526Y992337D01*
Y990432D01*
X1949574Y989480D01*
X1948622D01*
X1947670Y990432D01*
Y991385D01*
Y990432D01*
X1946718Y989480D01*
X1945766D01*
X1944813Y990432D01*
Y992337D01*
X1945766Y993289D01*
X1947670Y987576D02*
Y983767D01*
X1950526Y981863D02*
Y978054D01*
X1949574D01*
X1945766Y981863D01*
X1944813D01*
X1727863Y1016141D02*
Y1012333D01*
Y1014237D01*
X1722150D01*
X1727863Y1007572D02*
Y1009476D01*
X1726911Y1010428D01*
X1723102D01*
X1722150Y1009476D01*
Y1007572D01*
X1723102Y1006619D01*
X1726911D01*
X1727863Y1007572D01*
X1722150Y1000906D02*
Y1004715D01*
X1725958Y1000906D01*
X1726911D01*
X1727863Y1001859D01*
Y1003763D01*
X1726911Y1004715D01*
X1727863Y995193D02*
X1726911Y997098D01*
X1725006Y999002D01*
X1723102D01*
X1722150Y998050D01*
Y996145D01*
X1723102Y995193D01*
X1724054D01*
X1725006Y996145D01*
Y999002D01*
X1726911Y993289D02*
X1727863Y992337D01*
Y990432D01*
X1726911Y989480D01*
X1725958D01*
X1725006Y990432D01*
Y991384D01*
Y990432D01*
X1724054Y989480D01*
X1723102D01*
X1722150Y990432D01*
Y992337D01*
X1723102Y993289D01*
X1725006Y987576D02*
Y983767D01*
X1727863Y981862D02*
Y978054D01*
X1726911D01*
X1723102Y981862D01*
X1722150D01*
D15*
X1136740Y775362D02*
Y864262D01*
Y775362D02*
X1289140D01*
Y864262D01*
X1136740D02*
X1289140D01*
X2300957Y986169D02*
X2315562D01*
X2300957Y875679D02*
Y986169D01*
Y875679D02*
X2311752D01*
X2401922D02*
X2412717D01*
Y986169D01*
X2398112D02*
X2412717D01*
X2398112D02*
Y988074D01*
X2078294Y986169D02*
X2092899D01*
X2078294Y875679D02*
Y986169D01*
Y875679D02*
X2089089D01*
X2179259D02*
X2190054D01*
Y986169D01*
X2175449D02*
X2190054D01*
X2175449D02*
Y988074D01*
X1855629Y986169D02*
X1870235D01*
X1855629Y875679D02*
Y986169D01*
Y875679D02*
X1866425D01*
X1956595D02*
X1967390D01*
Y986169D01*
X1952784D02*
X1967390D01*
X1952784D02*
Y988074D01*
X1730121Y986169D02*
Y988074D01*
Y986169D02*
X1744726D01*
Y875679D02*
Y986169D01*
X1733931Y875679D02*
X1744726D01*
X1632966D02*
X1643761D01*
X1632966D02*
Y986169D01*
X1647571D01*
D70*
X312863Y-58674D02*
Y3048D01*
X143699Y-58674D02*
X312863D01*
X143699D02*
Y3048D01*
X312863D01*
X384237D02*
Y133096D01*
X72325Y3048D02*
X384237D01*
X72325D02*
Y133096D01*
X384237D01*
X93788Y-58674D02*
Y3048D01*
X110298Y-58674D02*
Y3048D01*
X85533Y-58674D02*
Y3048D01*
Y-58674D02*
X118553D01*
Y3048D01*
X346264Y-58674D02*
Y3048D01*
X362774Y-58674D02*
Y3048D01*
X338009Y-58674D02*
Y3048D01*
Y-58674D02*
X371029D01*
Y3048D01*
X166559Y133096D02*
X172909Y145796D01*
X179259Y133096D01*
X1125220Y1054794D02*
Y1059366D01*
Y1062794D02*
Y1067366D01*
Y1070794D02*
Y1075366D01*
Y1078794D02*
Y1083366D01*
X1136015Y950595D02*
X1276985D01*
X1136015D02*
Y1091565D01*
X1276985D01*
Y950595D02*
Y1091565D01*
X1136015Y963295D02*
X1148716Y950595D01*
X1144214Y1091565D02*
Y1102360D01*
X1148786D01*
Y1091565D02*
Y1102360D01*
X1144214Y1091565D02*
X1148786D01*
X1152214D02*
Y1102360D01*
X1156786D01*
Y1091565D02*
Y1102360D01*
X1152214Y1091565D02*
X1156786D01*
X1160214D02*
Y1102360D01*
X1164786D01*
Y1091565D02*
Y1102360D01*
X1160214Y1091565D02*
X1164786D01*
X1168214D02*
Y1102360D01*
X1172786D01*
Y1091565D02*
Y1102360D01*
X1168214Y1091565D02*
X1172786D01*
X1176215D02*
Y1102360D01*
X1180787D01*
Y1091565D02*
Y1102360D01*
X1176215Y1091565D02*
X1180787D01*
X1184215D02*
Y1102360D01*
X1188787D01*
Y1091565D02*
Y1102360D01*
X1184215Y1091565D02*
X1188787D01*
X1192215D02*
Y1102360D01*
X1196787D01*
Y1091565D02*
Y1102360D01*
X1192215Y1091565D02*
X1196787D01*
X1200214D02*
Y1102360D01*
X1204787D01*
Y1091565D02*
Y1102360D01*
X1200214Y1091565D02*
X1204787D01*
X1208214D02*
Y1102360D01*
X1212786D01*
Y1091565D02*
Y1102360D01*
X1208214Y1091565D02*
X1212786D01*
X1216215D02*
Y1102360D01*
X1220787D01*
Y1091565D02*
Y1102360D01*
X1216215Y1091565D02*
X1220787D01*
X1224214D02*
Y1102360D01*
X1228786D01*
Y1091565D02*
Y1102360D01*
X1224214Y1091565D02*
X1228786D01*
X1232215D02*
Y1102360D01*
X1236786D01*
Y1091565D02*
Y1102360D01*
X1232215Y1091565D02*
X1236786D01*
X1240214D02*
Y1102360D01*
X1244787D01*
Y1091565D02*
Y1102360D01*
X1240214Y1091565D02*
X1244787D01*
X1248214D02*
Y1102360D01*
X1252786D01*
Y1091565D02*
Y1102360D01*
X1248214Y1091565D02*
X1252786D01*
X1256214D02*
Y1102360D01*
X1260786D01*
Y1091565D02*
Y1102360D01*
X1256214Y1091565D02*
X1260786D01*
X1264214D02*
Y1102360D01*
X1268786D01*
Y1091565D02*
Y1102360D01*
X1264214Y1091565D02*
X1268786D01*
X1276985Y1083366D02*
X1287780D01*
Y1078794D02*
Y1083366D01*
X1276985Y1078794D02*
X1287780D01*
X1276985D02*
Y1083366D01*
Y1075366D02*
X1287780D01*
Y1070794D02*
Y1075366D01*
X1276985Y1070794D02*
X1287780D01*
X1276985D02*
Y1075366D01*
Y1067366D02*
X1287780D01*
Y1062794D02*
Y1067366D01*
X1276985Y1062794D02*
X1287780D01*
X1276985D02*
Y1067366D01*
Y1059366D02*
X1287780D01*
Y1054794D02*
Y1059366D01*
X1276985Y1054794D02*
X1287780D01*
X1276985D02*
Y1059366D01*
Y1051366D02*
X1287780D01*
Y1046794D02*
Y1051366D01*
X1276985Y1046794D02*
X1287780D01*
X1276985D02*
Y1051366D01*
Y1043366D02*
X1287780D01*
Y1038794D02*
Y1043366D01*
X1276985Y1038794D02*
X1287780D01*
X1276985D02*
Y1043366D01*
Y1035366D02*
X1287780D01*
Y1030794D02*
Y1035366D01*
X1276985Y1030794D02*
X1287780D01*
X1276985D02*
Y1035366D01*
Y1027366D02*
X1287780D01*
Y1022794D02*
Y1027366D01*
X1276985Y1022794D02*
X1287780D01*
X1276985D02*
Y1027366D01*
Y1019366D02*
X1287780D01*
Y1014794D02*
Y1019366D01*
X1276985Y1014794D02*
X1287780D01*
X1276985D02*
Y1019366D01*
Y1011366D02*
X1287780D01*
Y1006794D02*
Y1011366D01*
X1276985Y1006794D02*
X1287780D01*
X1276985D02*
Y1011366D01*
Y1003366D02*
X1287780D01*
Y998794D02*
Y1003366D01*
X1276985Y998794D02*
X1287780D01*
X1276985D02*
Y1003366D01*
Y995366D02*
X1287780D01*
Y990794D02*
Y995366D01*
X1276985Y990794D02*
X1287780D01*
X1276985D02*
Y995366D01*
Y987366D02*
X1287780D01*
Y982794D02*
Y987366D01*
X1276985Y982794D02*
X1287780D01*
X1276985D02*
Y987366D01*
Y979366D02*
X1287780D01*
Y974794D02*
Y979366D01*
X1276985Y974794D02*
X1287780D01*
X1276985D02*
Y979366D01*
Y971366D02*
X1287780D01*
Y966794D02*
Y971366D01*
X1276985Y966794D02*
X1287780D01*
X1276985D02*
Y971366D01*
Y963366D02*
X1287780D01*
Y958794D02*
Y963366D01*
X1276985Y958794D02*
X1287780D01*
X1276985D02*
Y963366D01*
X1268786Y939800D02*
Y950595D01*
X1264214Y939800D02*
X1268786D01*
X1264214D02*
Y950595D01*
X1268786D01*
X1260786Y939800D02*
Y950595D01*
X1256214Y939800D02*
X1260786D01*
X1256214D02*
Y950595D01*
X1260786D01*
X1252786Y939800D02*
Y950595D01*
X1248214Y939800D02*
X1252786D01*
X1248214D02*
Y950595D01*
X1252786D01*
X1244787Y939800D02*
Y950595D01*
X1240214Y939800D02*
X1244787D01*
X1240214D02*
Y950595D01*
X1244787D01*
X1236786Y939800D02*
Y950595D01*
X1232215Y939800D02*
X1236786D01*
X1232215D02*
Y950595D01*
X1236786D01*
X1228786Y939800D02*
Y950595D01*
X1224214Y939800D02*
X1228786D01*
X1224214D02*
Y950595D01*
X1228786D01*
X1220787Y939800D02*
Y950595D01*
X1216215Y939800D02*
X1220787D01*
X1216215D02*
Y950595D01*
X1220787D01*
X1212786Y939800D02*
Y950595D01*
X1208214Y939800D02*
X1212786D01*
X1208214D02*
Y950595D01*
X1212786D01*
X1204787Y939800D02*
Y950595D01*
X1200214Y939800D02*
X1204787D01*
X1200214D02*
Y950595D01*
X1204787D01*
X1196787Y939800D02*
Y950595D01*
X1192215Y939800D02*
X1196787D01*
X1192215D02*
Y950595D01*
X1196787D01*
X1188787Y939800D02*
Y950595D01*
X1184215Y939800D02*
X1188787D01*
X1184215D02*
Y950595D01*
X1188787D01*
X1180787Y939800D02*
Y950595D01*
X1176215Y939800D02*
X1180787D01*
X1176215D02*
Y950595D01*
X1180787D01*
X1172786Y939800D02*
Y950595D01*
X1168214Y939800D02*
X1172786D01*
X1168214D02*
Y950595D01*
X1172786D01*
X1164786Y939800D02*
Y950595D01*
X1160214Y939800D02*
X1164786D01*
X1160214D02*
Y950595D01*
X1164786D01*
X1156786Y939800D02*
Y950595D01*
X1152214Y939800D02*
X1156786D01*
X1152214D02*
Y950595D01*
X1156786D01*
X1148786Y939800D02*
Y950595D01*
X1144214Y939800D02*
X1148786D01*
X1144214D02*
Y950595D01*
X1148786D01*
X1125220Y958794D02*
X1136015D01*
X1125220D02*
Y963366D01*
X1136015D01*
Y958794D02*
Y963366D01*
X1125220Y966794D02*
X1136015D01*
X1125220D02*
Y971366D01*
X1136015D01*
Y966794D02*
Y971366D01*
X1125220Y974794D02*
X1136015D01*
X1125220D02*
Y979366D01*
X1136015D01*
Y974794D02*
Y979366D01*
X1125220Y982794D02*
X1136015D01*
X1125220D02*
Y987366D01*
X1136015D01*
Y982794D02*
Y987366D01*
X1125220Y990794D02*
X1136015D01*
X1125220D02*
Y995366D01*
X1136015D01*
Y990794D02*
Y995366D01*
X1125220Y998794D02*
X1136015D01*
X1125220D02*
Y1003366D01*
X1136015D01*
Y998794D02*
Y1003366D01*
X1125220Y1006794D02*
X1136015D01*
X1125220D02*
Y1011366D01*
X1136015D01*
Y1006794D02*
Y1011366D01*
X1125220Y1014794D02*
X1136015D01*
X1125220D02*
Y1019366D01*
X1136015D01*
Y1014794D02*
Y1019366D01*
X1125220Y1022794D02*
X1136015D01*
X1125220D02*
Y1027366D01*
X1136015D01*
Y1022794D02*
Y1027366D01*
X1125220Y1030794D02*
X1136015D01*
X1125220D02*
Y1035366D01*
X1136015D01*
Y1030794D02*
Y1035366D01*
X1125220Y1038794D02*
X1136015D01*
X1125220D02*
Y1043366D01*
X1136015D01*
Y1038794D02*
Y1043366D01*
X1125220Y1046794D02*
X1136015D01*
X1125220D02*
Y1051366D01*
X1136015D01*
Y1046794D02*
Y1051366D01*
X1125220Y1054794D02*
X1136015D01*
X1125220Y1059366D02*
X1136015D01*
Y1054794D02*
Y1059366D01*
X1125220Y1062794D02*
X1136015D01*
X1125220Y1067366D02*
X1136015D01*
Y1062794D02*
Y1067366D01*
X1125220Y1070794D02*
X1136015D01*
X1125220Y1075366D02*
X1136015D01*
Y1070794D02*
Y1075366D01*
X1125220Y1078794D02*
X1136015D01*
X1125220Y1083366D02*
X1136015D01*
Y1078794D02*
Y1083366D01*
M02*
