G04*
G04 #@! TF.GenerationSoftware,Altium Limited,Altium Designer,18.1.7 (191)*
G04*
G04 Layer_Color=0*
%FSLAX44Y44*%
%MOMM*%
G71*
G01*
G75*
%ADD12C,0.1270*%
%ADD72C,0.0500*%
D12*
X1226985Y738041D02*
X1326985D01*
X1226985D02*
Y768041D01*
X1326985D01*
Y738041D02*
Y768041D01*
X1116622Y738021D02*
X1216622D01*
X1116622D02*
Y768021D01*
X1216622D01*
Y738021D02*
Y768021D01*
X1004330Y774000D02*
X1104330D01*
Y744000D02*
Y774000D01*
X1004330Y744000D02*
X1104330D01*
X1004330D02*
Y774000D01*
X907015Y774001D02*
X1007015D01*
Y744001D02*
Y774001D01*
X907015Y744001D02*
X1007015D01*
X907015D02*
Y774001D01*
X109892Y815226D02*
X139892D01*
X109892Y715226D02*
Y815226D01*
Y715226D02*
X139892D01*
Y815226D01*
X109907Y713205D02*
X139907D01*
X109907Y613205D02*
Y713205D01*
Y613205D02*
X139907D01*
Y713205D01*
X206997Y815226D02*
X236998D01*
X206997Y715226D02*
Y815226D01*
Y715226D02*
X236998D01*
Y815226D01*
X206977Y713351D02*
X236977D01*
X206977Y613352D02*
Y713351D01*
Y613352D02*
X236977D01*
Y713351D01*
X405614Y813680D02*
X435614D01*
X405614Y713680D02*
Y813680D01*
Y713680D02*
X435614D01*
Y813680D01*
X306407Y813895D02*
X336407D01*
X306407Y713895D02*
Y813895D01*
Y713895D02*
X336407D01*
Y813895D01*
X505000Y815000D02*
X535000D01*
X505000Y715000D02*
Y815000D01*
Y715000D02*
X535000D01*
Y815000D01*
X600729Y815074D02*
X630729D01*
X600729Y715074D02*
Y815074D01*
Y715074D02*
X630729D01*
Y815074D01*
X504163Y713204D02*
X534163D01*
X504163Y613204D02*
Y713204D01*
Y613204D02*
X534163D01*
Y713204D01*
X306065Y713205D02*
X336065D01*
X306065Y613205D02*
Y713205D01*
Y613205D02*
X336065D01*
Y713205D01*
X405125Y713351D02*
X435125D01*
X405125Y613351D02*
Y713351D01*
Y613351D02*
X435125D01*
Y713351D01*
X662869Y740400D02*
X762870D01*
Y710400D02*
Y740400D01*
X662869Y710400D02*
X762870D01*
X662869D02*
Y740400D01*
X662870Y743440D02*
X762870D01*
X662870D02*
Y773440D01*
X762870D01*
Y743440D02*
Y773440D01*
X767010Y743419D02*
X867010D01*
X767010D02*
Y773419D01*
X867010D01*
Y743419D02*
Y773419D01*
X767010Y740399D02*
X867010D01*
Y710399D02*
Y740399D01*
X767010Y710399D02*
X867010D01*
X767010D02*
Y740399D01*
X1004330Y719000D02*
Y749000D01*
Y719000D02*
X1104330D01*
Y749000D01*
X1004330D02*
X1104330D01*
X907015Y719001D02*
Y749001D01*
Y719001D02*
X1007015D01*
Y749001D01*
X907015D02*
X1007015D01*
D72*
X1350206Y952416D02*
G03*
X1365906Y968116I0J15700D01*
G01*
Y1056716D02*
G03*
X1350206Y1072416I-15700J0D01*
G01*
X1330006D02*
G03*
X1314306Y1056716I0J-15700D01*
G01*
Y968116D02*
G03*
X1330006Y952416I15700J0D01*
G01*
X1365906Y968116D02*
Y1056716D01*
X1330006Y1072416D02*
X1350206D01*
X1314306Y968116D02*
Y1056716D01*
X1330006Y952416D02*
X1350206D01*
X432356Y0D02*
Y152000D01*
X627356D01*
Y0D02*
Y152000D01*
X432356Y0D02*
X627356D01*
M02*
