G04*
G04 #@! TF.GenerationSoftware,Altium Limited,Altium Designer,18.1.7 (191)*
G04*
G04 Layer_Color=255*
%FSLAX44Y44*%
%MOMM*%
G71*
G01*
G75*
%ADD25C,1.4732*%
%ADD26R,1.4732X1.4732*%
%ADD27C,1.4000*%
%ADD28R,1.4000X1.4000*%
%ADD29R,1.2700X1.2700*%
%ADD30C,1.2700*%
%ADD31R,1.3716X1.3716*%
%ADD32C,1.3716*%
%ADD33R,1.2700X1.2700*%
%ADD34C,5.0000*%
%ADD35C,1.6510*%
%ADD36R,1.6510X1.6510*%
%ADD37R,1.6764X1.6764*%
%ADD38C,1.6764*%
%ADD39O,0.6400X1.2700*%
%ADD40O,1.2700X0.6400*%
%ADD41R,1.3716X1.3716*%
%ADD42R,1.4986X1.4986*%
%ADD43C,1.4986*%
%ADD44R,1.4000X1.4000*%
%ADD45C,1.7780*%
%ADD46R,1.5240X1.5240*%
%ADD47C,1.5240*%
%ADD48C,1.2954*%
%ADD49R,1.2954X1.2954*%
%ADD50O,1.4500X2.0000*%
%ADD51R,1.4500X2.0000*%
%ADD52R,1.8542X1.8542*%
%ADD53C,1.8542*%
%ADD54O,1.8000X2.5000*%
%ADD55C,1.0300*%
%ADD56C,1.3208*%
%ADD57R,1.3208X1.3208*%
%ADD58C,2.7000*%
%ADD59R,2.7000X2.7000*%
%ADD60C,3.0000*%
%ADD61C,3.5000*%
D25*
X888800Y96000D02*
D03*
Y121400D02*
D03*
X914200Y96000D02*
D03*
Y121400D02*
D03*
X939600Y96000D02*
D03*
Y121400D02*
D03*
X965000Y96000D02*
D03*
Y121400D02*
D03*
X990400Y96000D02*
D03*
Y121400D02*
D03*
X1015800Y96000D02*
D03*
Y121400D02*
D03*
X1041200Y96000D02*
D03*
Y121400D02*
D03*
X1066600Y96000D02*
D03*
Y121400D02*
D03*
X1092000Y96000D02*
D03*
Y121400D02*
D03*
X1117400Y96000D02*
D03*
Y121400D02*
D03*
X1142800Y96000D02*
D03*
Y121400D02*
D03*
X1168200Y96000D02*
D03*
Y121400D02*
D03*
X1193600Y96000D02*
D03*
Y121400D02*
D03*
X1219000Y96000D02*
D03*
Y121400D02*
D03*
X1244400Y96000D02*
D03*
Y121400D02*
D03*
X1269800Y96000D02*
D03*
Y121400D02*
D03*
X1295200Y96000D02*
D03*
X1185000Y831242D02*
D03*
X1210400Y805842D02*
D03*
Y831242D02*
D03*
X1235800Y805842D02*
D03*
Y831242D02*
D03*
D26*
X1295200Y121400D02*
D03*
X1185000Y805842D02*
D03*
D27*
X1238885Y753041D02*
D03*
X1128522Y753021D02*
D03*
X1092430Y759000D02*
D03*
X995115Y759001D02*
D03*
X124891Y727126D02*
D03*
X124907Y625105D02*
D03*
X221998Y727126D02*
D03*
X221977Y625252D02*
D03*
X420614Y725580D02*
D03*
X321407Y725795D02*
D03*
X520000Y726900D02*
D03*
X615729Y726974D02*
D03*
X519163Y625104D02*
D03*
X321065Y625105D02*
D03*
X420125Y625251D02*
D03*
X750969Y725400D02*
D03*
X674770Y758440D02*
D03*
X778910Y758419D02*
D03*
X855110Y725399D02*
D03*
X1092430Y734000D02*
D03*
X995115Y734001D02*
D03*
D28*
X1315085Y753041D02*
D03*
X1204722Y753021D02*
D03*
X1016230Y759000D02*
D03*
X918915Y759001D02*
D03*
X674769Y725400D02*
D03*
X750970Y758440D02*
D03*
X855110Y758419D02*
D03*
X778910Y725399D02*
D03*
X1016230Y734000D02*
D03*
X918915Y734001D02*
D03*
D29*
X1264700Y722000D02*
D03*
X1065013Y651000D02*
D03*
X1077199Y790000D02*
D03*
X134727Y1114932D02*
D03*
X138321Y883158D02*
D03*
X309310Y864108D02*
D03*
X1637641Y482092D02*
D03*
X2081232Y673862D02*
D03*
X1415846Y290068D02*
D03*
X972255Y480068D02*
D03*
X128273Y553720D02*
D03*
X988722Y983904D02*
D03*
X988724Y944766D02*
D03*
X175326Y278130D02*
D03*
X1415846Y673862D02*
D03*
X2302510Y479806D02*
D03*
X2303780Y290068D02*
D03*
X2303028Y673862D02*
D03*
X2081232Y290068D02*
D03*
X1884837Y673862D02*
D03*
X1859437Y290068D02*
D03*
X2081232Y482092D02*
D03*
X2260346Y1013601D02*
D03*
X1859437Y482092D02*
D03*
X1593088Y1011118D02*
D03*
X1815107Y1011601D02*
D03*
X895750Y659359D02*
D03*
X1637641Y673862D02*
D03*
X86251Y867282D02*
D03*
X631590Y659359D02*
D03*
X531179Y863473D02*
D03*
X751840Y863216D02*
D03*
X362197Y881888D02*
D03*
X359347Y1115567D02*
D03*
X584139Y881888D02*
D03*
X581598Y1114932D02*
D03*
X807720Y880361D02*
D03*
X805180Y1114932D02*
D03*
X260285Y553720D02*
D03*
X278347Y320040D02*
D03*
X264226Y278892D02*
D03*
X988300Y1082590D02*
D03*
X988721Y1038574D02*
D03*
X1411041Y1037778D02*
D03*
Y988416D02*
D03*
X997655Y292092D02*
D03*
X1193292Y289638D02*
D03*
X1219300Y169300D02*
D03*
X1192022Y482092D02*
D03*
X1415846D02*
D03*
X1593088Y1061013D02*
D03*
X1618488Y1100386D02*
D03*
X1840316D02*
D03*
X1815108Y1061157D02*
D03*
X1637641Y290068D02*
D03*
X2034300Y912000D02*
D03*
X2039620Y1012103D02*
D03*
Y1060958D02*
D03*
X2065020Y1100386D02*
D03*
X2260346Y1061157D02*
D03*
X2285788Y1100386D02*
D03*
X2257171Y913257D02*
D03*
X141163Y278130D02*
D03*
X631079Y630000D02*
D03*
X1093700Y693002D02*
D03*
X1479550Y883666D02*
D03*
D30*
X1239300Y722000D02*
D03*
X1143753Y651000D02*
D03*
X1051799Y790000D02*
D03*
X907015Y611350D02*
D03*
X1477295Y613664D02*
D03*
X502856Y1074293D02*
D03*
X336869Y893952D02*
D03*
X213467Y1114932D02*
D03*
X280560Y973327D02*
D03*
X217061Y883158D02*
D03*
X90061Y975232D02*
D03*
X104922Y1102868D02*
D03*
X246652Y1016380D02*
D03*
X280561Y1077700D02*
D03*
X115461Y896492D02*
D03*
X334710Y864108D02*
D03*
X469837Y1074293D02*
D03*
X2214996Y878485D02*
D03*
X1663041Y482092D02*
D03*
X2106632Y673862D02*
D03*
X187096Y701969D02*
D03*
X935736Y532106D02*
D03*
X1033542Y344924D02*
D03*
X935736Y509380D02*
D03*
X1441246Y290068D02*
D03*
X997655Y480068D02*
D03*
X1325880Y891540D02*
D03*
X1106523Y871982D02*
D03*
X207013Y553720D02*
D03*
X779224Y659359D02*
D03*
X1014122Y983904D02*
D03*
X1014124Y944766D02*
D03*
X1699872Y613664D02*
D03*
X1477301Y725704D02*
D03*
X1379982D02*
D03*
X1821000Y724000D02*
D03*
X1990000Y880735D02*
D03*
X2269871Y878485D02*
D03*
X1699260Y804444D02*
D03*
X2243000Y878740D02*
D03*
X1764000D02*
D03*
X2048270Y880742D02*
D03*
X153425Y724525D02*
D03*
X740810Y659359D02*
D03*
X89332Y803264D02*
D03*
X518000Y392300D02*
D03*
X200726Y278130D02*
D03*
X1157733Y342104D02*
D03*
X1379474Y534924D02*
D03*
X1601724D02*
D03*
X1441246Y673862D02*
D03*
X1702816Y1061016D02*
D03*
X1921256Y342900D02*
D03*
X1822958D02*
D03*
X2020712Y880735D02*
D03*
X2267966Y500380D02*
D03*
X2327910Y479806D02*
D03*
X2329180Y290068D02*
D03*
X2328428Y673862D02*
D03*
X2106632Y290068D02*
D03*
X1859437Y673862D02*
D03*
X1884837Y290068D02*
D03*
X2106632Y482092D02*
D03*
X2044446Y342900D02*
D03*
X2267204Y534924D02*
D03*
X2256000Y697738D02*
D03*
X2044954Y534924D02*
D03*
X2285746Y1013601D02*
D03*
X1676019Y1061016D02*
D03*
X1728216D02*
D03*
X1794000Y878740D02*
D03*
X1601216Y725704D02*
D03*
X1822450Y534924D02*
D03*
X2035000Y702730D02*
D03*
X1884837Y482092D02*
D03*
X1618488Y1011118D02*
D03*
X1840507Y1011601D02*
D03*
X1255522Y534924D02*
D03*
X1284224Y613664D02*
D03*
X1157732Y534924D02*
D03*
X817010Y659359D02*
D03*
X469837Y907288D02*
D03*
X1663041Y673862D02*
D03*
X1477301Y421640D02*
D03*
X1380236Y342900D02*
D03*
X1063752Y532106D02*
D03*
X1034288Y610846D02*
D03*
X111651Y867282D02*
D03*
X483649Y701451D02*
D03*
X643669Y724312D02*
D03*
X549664Y622711D02*
D03*
X1601724Y342900D02*
D03*
X450604Y622565D02*
D03*
X351543D02*
D03*
X351544Y723255D02*
D03*
X252484Y724312D02*
D03*
X155371Y622503D02*
D03*
X285529Y801746D02*
D03*
X246652Y908939D02*
D03*
X483624Y803052D02*
D03*
X582684D02*
D03*
X384589Y801746D02*
D03*
X710330Y659359D02*
D03*
X89331Y701451D02*
D03*
X187096Y803264D02*
D03*
X252368Y622711D02*
D03*
X450604Y723255D02*
D03*
X550000Y724312D02*
D03*
X692087Y907669D02*
D03*
X556578Y863473D02*
D03*
X916320Y906143D02*
D03*
Y1073401D02*
D03*
X777240Y863216D02*
D03*
X469862Y1012952D02*
D03*
X334710Y1102233D02*
D03*
X309310Y972691D02*
D03*
X440937Y881888D02*
D03*
X502858Y972692D02*
D03*
X438088Y1115567D02*
D03*
X558357Y893317D02*
D03*
X726377Y1074165D02*
D03*
X692087Y1015365D02*
D03*
X556198Y1102105D02*
D03*
X530798Y972059D02*
D03*
X662879Y881888D02*
D03*
X726251Y972692D02*
D03*
X660338Y1114932D02*
D03*
X781050Y892807D02*
D03*
X950000Y1073400D02*
D03*
X916320Y1015617D02*
D03*
X781050Y1101340D02*
D03*
X751840Y971547D02*
D03*
X886460Y880361D02*
D03*
X950000Y972058D02*
D03*
X883920Y1114932D02*
D03*
X245000Y1077700D02*
D03*
X234885Y553720D02*
D03*
X252947Y320040D02*
D03*
X238826Y278892D02*
D03*
X312420Y165100D02*
D03*
X63500Y166497D02*
D03*
X359696Y332300D02*
D03*
X384589Y701452D02*
D03*
X285554Y701451D02*
D03*
X692087Y1074293D02*
D03*
X1013700Y1082590D02*
D03*
X1014121Y1038574D02*
D03*
X1385641Y1037778D02*
D03*
Y988416D02*
D03*
X972255Y292092D02*
D03*
X1255522Y420843D02*
D03*
X1218692Y289638D02*
D03*
X1244700Y169300D02*
D03*
X1371000Y194810D02*
D03*
X1217422Y482092D02*
D03*
X1441246D02*
D03*
X1506728Y804444D02*
D03*
X1605788Y914598D02*
D03*
Y974096D02*
D03*
X1618488Y1061013D02*
D03*
X1649349Y1139756D02*
D03*
X1593088Y1100386D02*
D03*
X1814916D02*
D03*
X1840508Y1061157D02*
D03*
X1825244Y973109D02*
D03*
X1825269Y913700D02*
D03*
X1699024Y342900D02*
D03*
X1715000Y194700D02*
D03*
X1663041Y290068D02*
D03*
X2059700Y912000D02*
D03*
X2052320Y974003D02*
D03*
X2065020Y1012103D02*
D03*
Y1060958D02*
D03*
X2039620Y1100386D02*
D03*
X2096008Y1139756D02*
D03*
X2148501Y1061016D02*
D03*
X2122255D02*
D03*
X2174748D02*
D03*
X1870988Y1139756D02*
D03*
X1925893Y1061016D02*
D03*
X1953345D02*
D03*
X1898440D02*
D03*
X2372211D02*
D03*
X2344696D02*
D03*
X2317180Y1139756D02*
D03*
X2399727Y1061016D02*
D03*
X2285746Y1061157D02*
D03*
X2260388Y1100386D02*
D03*
X2273046Y974852D02*
D03*
X2282571Y913257D02*
D03*
X1728668Y534924D02*
D03*
X1728724Y421640D02*
D03*
X1504225Y342900D02*
D03*
X2158000Y725000D02*
D03*
X1936115Y534923D02*
D03*
X1935333Y725000D02*
D03*
X2158000Y343238D02*
D03*
X2378964Y723714D02*
D03*
X2380000Y533654D02*
D03*
X2379853Y344170D02*
D03*
X2159270Y534000D02*
D03*
X1506474Y534924D02*
D03*
X1949196Y421640D02*
D03*
X1283716Y342103D02*
D03*
X1728470Y725704D02*
D03*
X1061974Y423664D02*
D03*
X115763Y278130D02*
D03*
X290000Y504952D02*
D03*
X709819Y630000D02*
D03*
X1068300Y693002D02*
D03*
X1504950Y883666D02*
D03*
X1047612Y1038384D02*
D03*
D31*
X1261863Y684000D02*
D03*
X1039368Y657000D02*
D03*
X895750Y692379D02*
D03*
X750970D02*
D03*
X922199Y693000D02*
D03*
D32*
X1145023Y684000D02*
D03*
X922528Y657000D02*
D03*
X670000Y233160D02*
D03*
X778910Y692379D02*
D03*
X634130D02*
D03*
X899129Y334150D02*
D03*
X869184D02*
D03*
X838069D02*
D03*
X807996Y334149D02*
D03*
X716149Y334150D02*
D03*
X853690Y439022D02*
D03*
X822996Y439190D02*
D03*
X792349D02*
D03*
X777109Y334150D02*
D03*
X746629D02*
D03*
X761869Y439190D02*
D03*
X1039040Y693000D02*
D03*
D33*
X907015Y532610D02*
D03*
X1477295Y534924D02*
D03*
X502856Y995553D02*
D03*
X336869Y972692D02*
D03*
X280560Y894587D02*
D03*
X90061Y896492D02*
D03*
X104922Y1024128D02*
D03*
X246652Y937641D02*
D03*
X280561Y998960D02*
D03*
X115461Y975232D02*
D03*
X469837Y1048893D02*
D03*
X2214996Y799745D02*
D03*
X187096Y727369D02*
D03*
X935736Y610846D02*
D03*
X1033542Y423664D02*
D03*
X935736Y430640D02*
D03*
X1325880Y812800D02*
D03*
X1106523Y793242D02*
D03*
X779224Y633959D02*
D03*
X1699872Y534924D02*
D03*
X1477301Y804444D02*
D03*
X1379982D02*
D03*
X1821000Y802740D02*
D03*
X1990000Y801995D02*
D03*
X2269871Y799745D02*
D03*
X1699260Y725704D02*
D03*
X2243000Y800000D02*
D03*
X1764000D02*
D03*
X2048270Y802002D02*
D03*
X153425Y803265D02*
D03*
X740810Y633959D02*
D03*
X89332Y777864D02*
D03*
X518000Y417700D02*
D03*
X1157733Y420844D02*
D03*
X1379474Y613664D02*
D03*
X1601724D02*
D03*
X1702816Y1139756D02*
D03*
X1921256Y421640D02*
D03*
X1822958D02*
D03*
X2020712Y801995D02*
D03*
X2267966Y421640D02*
D03*
X2044446D02*
D03*
X2267204Y613664D02*
D03*
X2256000Y776478D02*
D03*
X2044954Y613664D02*
D03*
X1676019Y1139756D02*
D03*
X1728216D02*
D03*
X1794000Y800000D02*
D03*
X1601216Y804444D02*
D03*
X1822450Y613664D02*
D03*
X2035000Y781470D02*
D03*
X1255522Y613664D02*
D03*
X1284224Y534924D02*
D03*
X1157732Y613664D02*
D03*
X469837Y881888D02*
D03*
X1477301Y342900D02*
D03*
X1380236Y421640D02*
D03*
X1063752Y610846D02*
D03*
X1034288Y532106D02*
D03*
X483649Y726852D02*
D03*
X643669Y803052D02*
D03*
X549664Y701451D02*
D03*
X1601724Y421640D02*
D03*
X450604Y701305D02*
D03*
X351543D02*
D03*
X351544Y801995D02*
D03*
X252484Y803052D02*
D03*
X155371Y701243D02*
D03*
X285529Y776346D02*
D03*
X246652Y883539D02*
D03*
X483624Y777652D02*
D03*
X582684D02*
D03*
X384589Y776346D02*
D03*
X89331Y726852D02*
D03*
X187096Y777864D02*
D03*
X252368Y701451D02*
D03*
X450604Y801995D02*
D03*
X550000Y803052D02*
D03*
X692087Y882269D02*
D03*
X916320Y880742D02*
D03*
Y1048001D02*
D03*
X469862Y934212D02*
D03*
X334710Y1023493D02*
D03*
X309310Y893951D02*
D03*
X502858Y893952D02*
D03*
X558357Y972057D02*
D03*
X726377Y995425D02*
D03*
X692087Y936625D02*
D03*
X556198Y1023365D02*
D03*
X530798Y893319D02*
D03*
X726251Y893952D02*
D03*
X781050Y971547D02*
D03*
X950000Y994660D02*
D03*
X916320Y936877D02*
D03*
X781050Y1022600D02*
D03*
X751840Y892807D02*
D03*
X950000Y893318D02*
D03*
X245000Y1052300D02*
D03*
X312420Y190500D02*
D03*
X63500Y245237D02*
D03*
X359696Y357700D02*
D03*
X384589Y726852D02*
D03*
X285554Y726852D02*
D03*
X692087Y1048893D02*
D03*
X1255522Y342103D02*
D03*
X1371000Y169410D02*
D03*
X1506728Y725704D02*
D03*
X1605788Y889198D02*
D03*
Y948696D02*
D03*
X1649349Y1061016D02*
D03*
X1825244Y947709D02*
D03*
X1825269Y888300D02*
D03*
X1699024Y421640D02*
D03*
X1715000Y169300D02*
D03*
X2052320Y948603D02*
D03*
X2096008Y1061016D02*
D03*
X2148501Y1139756D02*
D03*
X2122255D02*
D03*
X2174748D02*
D03*
X1870988Y1061016D02*
D03*
X1925893Y1139756D02*
D03*
X1953345D02*
D03*
X1898440D02*
D03*
X2372211D02*
D03*
X2344696D02*
D03*
X2317180Y1061016D02*
D03*
X2399727Y1139756D02*
D03*
X2273046Y949452D02*
D03*
X1728668Y613664D02*
D03*
X1728724Y342900D02*
D03*
X1504225Y421640D02*
D03*
X2158000Y803740D02*
D03*
X1936115Y613663D02*
D03*
X1935333Y803740D02*
D03*
X2158000Y421978D02*
D03*
X2378964Y802454D02*
D03*
X2380000Y612394D02*
D03*
X2379853Y422910D02*
D03*
X2159270Y612740D02*
D03*
X1506474Y613664D02*
D03*
X1949196Y342900D02*
D03*
X1283716Y420843D02*
D03*
X1728470Y804444D02*
D03*
X1061974Y344924D02*
D03*
X290000Y426212D02*
D03*
X1047612Y959644D02*
D03*
D34*
X102043Y98044D02*
D03*
X354519D02*
D03*
X438088Y189299D02*
D03*
X597856Y330902D02*
D03*
D35*
X269810Y83820D02*
D03*
X242124D02*
D03*
X214438D02*
D03*
X186752D02*
D03*
X283653Y112268D02*
D03*
X255967D02*
D03*
X228281D02*
D03*
X200595D02*
D03*
X334000Y393000D02*
D03*
D36*
X172909Y112268D02*
D03*
X454904Y393000D02*
D03*
D37*
X129540Y485140D02*
D03*
D38*
Y459740D02*
D03*
Y434340D02*
D03*
Y408940D02*
D03*
X205740D02*
D03*
Y434340D02*
D03*
Y459740D02*
D03*
Y485140D02*
D03*
D39*
X1225000Y1215000D02*
D03*
X1720000Y35000D02*
D03*
X2415000Y35000D02*
D03*
X35000Y1215000D02*
D03*
Y35000D02*
D03*
X802000Y35000D02*
D03*
D40*
X2415000Y1215000D02*
D03*
D41*
X670000Y350000D02*
D03*
X899129Y450990D02*
D03*
X869184D02*
D03*
X838069D02*
D03*
X807996Y450989D02*
D03*
X716149Y450990D02*
D03*
X853690Y555863D02*
D03*
X822996Y556030D02*
D03*
X792349D02*
D03*
X777109Y450990D02*
D03*
X746629D02*
D03*
X761869Y556030D02*
D03*
D42*
X584137Y1074165D02*
D03*
X362197Y1074293D02*
D03*
X137267Y1074928D02*
D03*
X807720Y1073400D02*
D03*
X1530858Y930656D02*
D03*
D43*
X584137Y1048765D02*
D03*
Y1023365D02*
D03*
Y997965D02*
D03*
Y972566D02*
D03*
Y947166D02*
D03*
Y921766D02*
D03*
X660338D02*
D03*
Y947166D02*
D03*
Y972566D02*
D03*
Y997965D02*
D03*
Y1023365D02*
D03*
Y1048765D02*
D03*
Y1074165D02*
D03*
X362197Y1048893D02*
D03*
Y1023493D02*
D03*
Y998092D02*
D03*
Y972692D02*
D03*
Y947292D02*
D03*
Y921892D02*
D03*
X438397D02*
D03*
Y947292D02*
D03*
Y972692D02*
D03*
Y998092D02*
D03*
Y1023493D02*
D03*
Y1048893D02*
D03*
Y1074293D02*
D03*
X137267Y1049528D02*
D03*
Y1024128D02*
D03*
Y998727D02*
D03*
Y973327D02*
D03*
Y947927D02*
D03*
Y922527D02*
D03*
X213467D02*
D03*
Y947927D02*
D03*
Y973327D02*
D03*
Y998727D02*
D03*
Y1024128D02*
D03*
Y1049528D02*
D03*
Y1074928D02*
D03*
X807720Y1048000D02*
D03*
Y1022600D02*
D03*
Y997200D02*
D03*
Y971800D02*
D03*
Y946400D02*
D03*
Y921000D02*
D03*
X883920D02*
D03*
Y946400D02*
D03*
Y971800D02*
D03*
Y997200D02*
D03*
Y1022600D02*
D03*
Y1048000D02*
D03*
Y1073400D02*
D03*
X1530858Y956056D02*
D03*
Y981456D02*
D03*
Y1006856D02*
D03*
Y1032256D02*
D03*
Y1057656D02*
D03*
Y1083056D02*
D03*
X1454658D02*
D03*
Y1057656D02*
D03*
Y1032256D02*
D03*
Y1006856D02*
D03*
Y981456D02*
D03*
Y956056D02*
D03*
Y930656D02*
D03*
D44*
X124891Y803326D02*
D03*
X124907Y701305D02*
D03*
X221998Y803326D02*
D03*
X221977Y701451D02*
D03*
X420614Y801780D02*
D03*
X321407Y801995D02*
D03*
X520000Y803100D02*
D03*
X615729Y803174D02*
D03*
X519163Y701304D02*
D03*
X321065Y701305D02*
D03*
X420125Y701451D02*
D03*
D45*
X453144Y505587D02*
D03*
X353068D02*
D03*
D46*
X359697Y275590D02*
D03*
X576320Y407000D02*
D03*
D47*
X334551Y275590D02*
D03*
X611372Y407000D02*
D03*
D48*
X276926Y165100D02*
D03*
X251526D02*
D03*
X226126D02*
D03*
X200726D02*
D03*
X175326D02*
D03*
X149926D02*
D03*
X124526D02*
D03*
X99126D02*
D03*
Y241300D02*
D03*
X124526D02*
D03*
X149926D02*
D03*
X175326D02*
D03*
X200726D02*
D03*
X226126D02*
D03*
X251526D02*
D03*
D49*
X276926D02*
D03*
D50*
X403894Y363749D02*
D03*
X420912D02*
D03*
X437930D02*
D03*
X454948D02*
D03*
D51*
X471966D02*
D03*
D52*
X519163Y345414D02*
D03*
D53*
Y169138D02*
D03*
D54*
X622934Y169138D02*
D03*
X597607Y169652D02*
D03*
X572135Y169138D02*
D03*
D55*
X1340106Y988016D02*
D03*
Y1036816D02*
D03*
D56*
X2170303Y671322D02*
D03*
X2157603Y696722D02*
D03*
X1948688Y481590D02*
D03*
X1935988Y506990D02*
D03*
X1726396Y669545D02*
D03*
X1713696Y694945D02*
D03*
X2391664Y670560D02*
D03*
X2378964Y695960D02*
D03*
X2392934Y478282D02*
D03*
X2380234Y503682D02*
D03*
X2170176Y289638D02*
D03*
X2157476Y315038D02*
D03*
X2392553Y288329D02*
D03*
X2379853Y313729D02*
D03*
X2171570Y480861D02*
D03*
X2158870Y506261D02*
D03*
X1948434Y288798D02*
D03*
X1935734Y314198D02*
D03*
X1948172Y670814D02*
D03*
X1935472Y696214D02*
D03*
X1726636Y480861D02*
D03*
X1713936Y506261D02*
D03*
X1505204Y672338D02*
D03*
X1492504Y697738D02*
D03*
X1504950Y481330D02*
D03*
X1492250Y506730D02*
D03*
X1283900Y288329D02*
D03*
X1271200Y313729D02*
D03*
X1062228Y292092D02*
D03*
X1049528Y317492D02*
D03*
X1062228Y478544D02*
D03*
X1049528Y503944D02*
D03*
X1504696Y289814D02*
D03*
X1491996Y315214D02*
D03*
X1283335Y480861D02*
D03*
X1270635Y506261D02*
D03*
X1728216Y288036D02*
D03*
X1715516Y313436D02*
D03*
D57*
X2144903Y671322D02*
D03*
X1923288Y481590D02*
D03*
X1700996Y669545D02*
D03*
X2366264Y670560D02*
D03*
X2367534Y478282D02*
D03*
X2144776Y289638D02*
D03*
X2367153Y288329D02*
D03*
X2146170Y480861D02*
D03*
X1923034Y288798D02*
D03*
X1922772Y670814D02*
D03*
X1701236Y480861D02*
D03*
X1479804Y672338D02*
D03*
X1479550Y481330D02*
D03*
X1258500Y288329D02*
D03*
X1036828Y292092D02*
D03*
Y478544D02*
D03*
X1479296Y289814D02*
D03*
X1257935Y480861D02*
D03*
X1702816Y288036D02*
D03*
D58*
X1437246Y139860D02*
D03*
X1479246D02*
D03*
X1521246D02*
D03*
X1563246D02*
D03*
X1605246D02*
D03*
X1437246Y194860D02*
D03*
X1479246D02*
D03*
X1521246D02*
D03*
X1563246D02*
D03*
X1605246D02*
D03*
X1647246D02*
D03*
X1794647Y139000D02*
D03*
X1836647D02*
D03*
X1878647D02*
D03*
X1920647D02*
D03*
X1962647D02*
D03*
X1794647Y194000D02*
D03*
X1836647D02*
D03*
X1878647D02*
D03*
X1920647D02*
D03*
X1962647D02*
D03*
X2004647D02*
D03*
X696000Y139860D02*
D03*
X738000Y194860D02*
D03*
X696000D02*
D03*
X2339515Y194000D02*
D03*
X2297515D02*
D03*
X2255515D02*
D03*
X2213515D02*
D03*
X2171515D02*
D03*
X2129515D02*
D03*
X2297515Y139000D02*
D03*
X2255515D02*
D03*
X2213515D02*
D03*
X2171515D02*
D03*
X2129515D02*
D03*
D59*
X1647246Y139860D02*
D03*
X2004647Y139000D02*
D03*
X738000Y139860D02*
D03*
X2339515Y139000D02*
D03*
D60*
X717000Y66860D02*
D03*
D61*
X483756Y25000D02*
D03*
X575956D02*
D03*
Y126600D02*
D03*
X483756D02*
D03*
M02*
