M48
;Layer_Color=9474304
;FILE_FORMAT=4:4
METRIC,LZ
;TYPE=PLATED
T1F00S00C0.6300
T2F00S00C0.7112
T3F00S00C0.7620
T4F00S00C0.7874
T5F00S00C0.8000
T6F00S00C0.8128
T7F00S00C0.8636
T8F00S00C0.9398
T9F00S00C0.9652
T10F00S00C0.9906
T11F00S00C1.0000
T12F00S00C1.1176
T13F00S00C1.1430
T14F00S00C1.2000
T15F00S00C1.2700
T16F00S00C1.3462
T17F00S00C1.7000
T18F00S00C1.8000
T19F00S00C2.6400
T20F00S00C3.1750
T21F00S00C3.3020
T22F00S00C3.5000
;TYPE=NON_PLATED
T23F00S00C3.0000
%
T01
X01340106Y00988016
Y01036816
T02
X00761869Y0035
X00792349
X00824988
X0085369Y00349731
X0088392Y003254
X00965904Y0032429
Y00340882
Y00357392
X00984955
X00984955Y0034139
X00984955Y0032429
X01004005Y0032429
X01004004Y0034139
Y00357392
X011877Y0035544
Y00338929
Y00322337
X0120675
X0120675Y00339438
X0120675Y0035544
X01225799
Y00339438
X012258Y00322338
X01409496Y00322337
Y00338929
Y0035544
X01255Y00063
X01428546Y00322337
X01428546Y00339438
X01428546Y0035544
X01447595
Y00339438
X01447596Y00322338
X01631291Y00322337
Y00338929
Y00355439
X01650342
X01650341Y00339437
X01650342Y00322337
X01669391Y00322337
X0166939Y00339437
Y00355439
X01853087
Y00338929
Y00322337
X01872137
X01872137Y00339437
X01872137Y00355439
X01891186
Y00339437
X01891187Y00322337
X02074882Y00325038
Y0034163
Y0035814
X02093932
X02093932Y00342138
X02093932Y00325038
X02112982Y00325038
X02112981Y00342138
Y0035814
X02296678Y0035544
Y00338929
Y00322337
X02315728
X02315728Y00339438
X02315728Y0035544
X02334777
Y00339438
X02334778Y00322338
Y0051429
X02334777Y0053139
Y00547392
X02315728
X02315728Y0053139
X02315728Y00514289
X02296678
Y00530881
Y00547392
Y00706242
Y00722834
Y00739344
X02315728
X02315728Y00723342
X02315728Y00706242
X02334778Y00706242
X02334777Y00723342
Y00739344
X02112982
Y00723342
X02112982Y00706242
X02093933Y00706242
X02093932Y00723342
X02093933Y00739344
X02074882
Y00722834
Y00706242
Y00547392
Y00530882
Y0051429
X02093933
X02093932Y0053139
X02093933Y00547392
X02112982
Y0053139
X02112982Y0051429
X02135Y00440069
X01935Y0044
X01891187Y0051429
X01891186Y0053139
Y00547392
X01872137
X01872137Y0053139
X01872137Y0051429
X01853087
Y00530882
Y00547392
Y00706242
Y00722834
Y00739344
X01872137
X01872137Y00723342
X01872137Y00706242
X01891187Y00706242
X01891186Y00723342
Y00739344
X0176Y00672592
X01715Y00633959
X01669391Y00706242
X0166939Y00723342
Y00739344
X01650342
X01650341Y00723342
X01650342Y00706242
X01631291
Y00722834
Y00739344
X01530997Y00756999
X01515Y00756995
X01447595Y00739344
Y00723342
X01447596Y00706242
X01428546Y00706242
X01428546Y00723342
X01428546Y00739344
Y00547392
X01428546Y0053139
X01428546Y0051429
X01447596Y0051429
X01447595Y0053139
Y00547392
X0149Y0044022
X01631291Y0051429
Y00530882
Y00547392
X01650342
X01650341Y0053139
X01650342Y0051429
X01669391Y0051429
X0166939Y0053139
Y00547392
X01714119Y00440069
X01409496Y0051429
Y00530882
Y00547392
X01318Y00573506
X01295Y00568
X01225799Y00547392
Y0053139
X012258Y0051429
X0120675Y0051429
X0120675Y0053139
X0120675Y00547392
X011877
Y00530882
Y0051429
X01102Y00542218
X01080857Y00568
X01114945Y00598
X01095006Y00631
X01049529Y0063
X01080857Y00665
X01106523Y00775
X01145023Y00738023
X01171Y00719
X01258Y00743
X0127Y00634765
X0136338Y0066462
X01409496Y00706242
Y00722834
Y00739344
X0127Y00444365
X01048893Y00443339
X01004005Y00512338
X01004004Y00529438
Y0054544
X00984955
X00984955Y00529438
X00984955Y00512337
X00965904
Y00528929
Y0054544
X00979Y00695
X00883Y00727126
X00867Y00617
X0083878Y00591
X00899129Y00426606
X0059Y00625
X0057
X00611923Y0066
X00491041Y00633959
X00469837Y00625252
X0037Y00625
X00268348Y00622503
X003Y00565
X00314522Y0057585
X002Y00625251
X00065416Y00532106
X00109Y00385
X00154Y00405
X00965Y00879
X00985Y00875
X01005Y00874887
X00995Y00893951
X01014998Y00894998
X00975Y00895
X01012Y01001
X01015Y0101708
X00949Y01057656
X00951Y01095
X00971Y0113
X0099Y0115
X00869985Y01167
X01072848Y0116
X01059Y01139756
X01045Y0112
X01034Y01074293
X01066Y01013
X0107212Y0098312
X01083998Y00992998
X01107Y01035
X01155Y0103
X0118Y0099
X01194501Y00922499
X01186501Y00909501
X01188998Y00889998
X01205Y00882269
X01215Y00894996
X0125Y0091
X01274003Y00903998
X01274Y00924
X01286152Y00935
X01305Y00925
X01311914Y0090139
X01286Y00893
X01299Y00862
X01329Y0085192
X01376Y00852
X01364Y0093
Y0095
X01365Y00965092
X01339997Y00973998
X01326Y0099466
X01304068Y01025068
X01315916Y0104108
X01327997Y01050998
X01349997Y01046998
X01342997Y01064998
X01352997Y01075998
X01397Y01074848
Y01
X01365997Y01167998
X01113Y01172
X0122955Y01039
X01237998Y00855998
X01225997Y00845998
X01178501Y0087107
X01145023Y00869745
X01153Y00889869
X01106996Y00894996
X01075Y00894587
X01055Y00895
X01035Y00894996
X01045Y00875
X01064998Y00874998
X01084998
X01077Y00856
X01106523Y00831242
X01121998Y00793998
X0117Y0082
X01032Y00819745
X01031429Y00805045
X01024998Y00874998
X01121996Y00923
X01285Y00795
X01492078Y00789
X01513Y00852
X01504696Y00925
Y00942
X01479Y00981456
X01485Y011
X01501Y01104
X01517Y01096
X01557Y01121
X01424Y01089907
X01648079Y00959329
Y00936625
Y00913257
Y00889198
X01675049
Y00913257
Y00936625
Y00959329
X01700449Y00958657
Y00935953
X01725849
Y00958657
Y00912586
X01700449Y00888526
X01712Y00787
X01746371Y01002982
Y01038
X01765Y01075
Y01105281
X01979459Y0109
X01990996Y01079998
X01979459Y01132
X0199Y01145
X01970686Y01029
X01971192Y00999
X01948758Y00958657
Y00935953
Y00912586
Y00888526
X01923358
Y00912586
Y00935953
Y00958657
X01897958Y00959329
Y00936625
Y00913257
Y00889198
X01870988
Y00913257
Y00936625
Y00959329
X02093933Y0096108
Y00938376
Y00915009
Y00890949
X02120903
Y00915009
Y00938376
Y0096108
X02146303Y00960409
Y00937705
Y00914337
Y00890278
X02171703
Y00914337
Y00937705
Y00960409
X02195Y01
Y01032
X0231704Y0096
Y00937296
Y00913929
Y00889869
X0234401
Y00913929
Y00937296
Y0096
X0236941Y00959329
Y00936625
Y00913257
Y00889198
X0239481
Y00913257
Y00936625
Y00959329
X02395Y00793242
X0236Y00816459
X01501Y01203
X01484Y0121385
X01342Y01193
X0135515Y0117815
X01128998Y01177998
X01137998Y01189998
X01114998Y01199998
X01094Y01205
X01014124
T03
X000635Y00166497
Y00245237
X00115763Y0027813
X00141163
X00175326
X00200726
X00238826Y00278892
X00264226
X00252947Y0032004
X00278347
X00359696Y003323
Y003577
X0031242Y001905
Y001651
X00972255Y00292092
X00997655
X01033542Y00344924
X01061974
X01157733Y00342104
X01193292Y00289638
X01218692
X01255522Y00342103
X01283716
X01380236Y003429
X01371Y0019481
Y0016941
X012447Y001693
X012193
X01415846Y00290068
X01441246
X01477301Y003429
X01504225
X01601724
X01637641Y00290068
X01663041
X01699024Y003429
X01728724
X01715Y001947
Y001693
X01859437Y00290068
X01884837
X01921256Y003429
X01949196
X02044446
X02081232Y00290068
X02106632
X02158Y00343238
X01822958Y003429
X0230378Y00290068
X0232918
X02379853Y0034417
Y0042291
X0232791Y00479806
X0230251
X02267966Y0050038
X02267204Y00534924
Y00613664
X02256Y00697738
X02303028Y00673862
X02328428
X02378964Y00723714
X0238Y00612394
Y00533654
X02267966Y0042164
X02256Y00776478
X02158Y00725
X02106632Y00673862
X02081232
X02035Y0070273
X02044954Y00613664
Y00534924
X02081232Y00482092
X02106632
X0215927Y00534
Y0061274
X02158Y00421978
X02044446Y0042164
X01949196
X01921256
X01884837Y00482092
X01859437
X0182245Y00534924
Y00613664
X01859437Y00673862
X01884837
X01935333Y00725
X01936115Y00613663
Y00534923
X01822958Y0042164
X01821Y00724
X0172847Y00725704
X0169926
X01663041Y00673862
X01637641
X01601216Y00725704
X01506728
X01477301
X01441246Y00673862
X01415846
X01477295Y00613664
X01506474
Y00534924
X01477295
X01441246Y00482092
X01415846
X01477301Y0042164
X01504225
X01601724
X01637641Y00482092
X01663041
X01699872Y00534924
X01728668
Y00613664
X01699872
X01601724
Y00534924
X01699024Y0042164
X01728724
X01380236
X01283716Y00420843
X01255522
X01157733Y00420844
X01192022Y00482092
X01217422
X01255522Y00534924
X01284224
Y00613664
X01255522
X01157732
X01143753Y00651
X01065013
X01063752Y00610846
X01034288
Y00532106
X01063752
X01157732Y00534924
X01061974Y00423664
X01033542
X010683Y00693002
X010937
X012393Y00722
X012647
X01379982Y00725704
X01379474Y00613664
Y00534924
X00997655Y00480068
X00972255
X00935736Y0050938
X00935736Y00532106
X00907015Y0053261
Y0061135
X00935736Y00610846
X0089575Y00659359
X0081701
X00779224
Y00633959
X0074081
Y00659359
X0071033
X00709819Y0063
X00631079
X0063159Y00659359
X00643669Y00724312
X00935736Y0043064
X00518Y004177
Y003923
X0029Y00426212
Y00504952
X00260285Y0055372
X00234885
X00252368Y00622711
Y00701451
X00252484Y00724312
X00285554Y00726852
Y00701451
X00351543Y00701305
X00351544Y00723255
X00384589Y00726852
Y00701452
X00450604Y00701305
Y00723255
X00483649Y00726852
Y00701451
X00549664
X0055Y00724312
X00582684Y00777652
X00483624
X00384589Y00776346
X00285529
X00351543Y00622565
X00450604
X00549664Y00622711
X00155371Y00622503
Y00701243
X00153425Y00724525
X00187096Y00727369
Y00701969
Y00777864
X00089332
X00089331Y00726852
Y00701451
X00128273Y0055372
X00207013
X00187096Y00803264
X00153425Y00803265
X00089332Y00803264
X00086251Y00867282
X00111651
X00115461Y00896492
X00090061
X00138321Y00883158
X00217061
X00115461Y00975232
X00090061
X00104922Y01024128
Y01102868
X00134727Y01114932
X00213467
X00245Y010777
Y010523
X00246652Y0101638
X00280561Y0099896
X0028056Y00973327
X0030931Y00972691
X00336869Y00972692
X0033471Y01023493
Y01102233
X00359347Y01115567
X00438088
X00469837Y01074293
Y01048893
X00469862Y01012952
X00502856Y00995553
X00502858Y00972692
X00530798Y00972059
X00558357Y00972057
X00556198Y01023365
Y01102105
X00581598Y01114932
X00502856Y01074293
X00469862Y00934212
X00469837Y00907288
Y00881888
X00440937
X00502858Y00893952
X00530798Y00893319
X00558357Y00893317
X00556578Y00863473
X00531179
X00584139Y00881888
X00582684Y00803052
X0055
X00483624
X00450604Y00801995
X00384589Y00801746
X00351544Y00801995
X00285529Y00801746
X00252484Y00803052
X00246652Y00883539
Y00908939
Y00937641
X0028056Y00894587
X0030931Y00893951
X00336869Y00893952
X0033471Y00864108
X0030931
X00362197Y00881888
X00280561Y010777
X00692087Y01074293
Y01048893
Y01015365
X00726377Y00995425
X00726251Y00972692
X0075184Y00971547
X0078105
Y010226
Y0110134
X0080518Y01114932
X0088392
X0091632Y01073401
Y01048001
Y01015617
X0095Y0099466
X0095Y00972058
X00988722Y00983904
X01014122
X01014124Y00944766
X00988724
X0091632Y00936877
Y00906143
Y00880742
X0088646Y00880361
X0095Y00893318
X0080772Y00880361
X0078105Y00892807
X0075184
X00726251Y00893952
X00692087Y00882269
Y00907669
Y00936625
X00662879Y00881888
X00643669Y00803052
X0075184Y00863216
X0077724
X00726377Y01074165
X00660338Y01114932
X0095Y010734
X009883Y0108259
X010137
X01014121Y01038574
X00988721
X01047612Y01038384
Y00959644
X01106523Y00871982
Y00793242
X01077199Y0079
X01051799
X0132588Y008128
X01379982Y00804444
X0132588Y0089154
X01385641Y00988416
X01411041
Y01037778
X01385641
X01593088Y01061013
X01618488
X01649349Y01061016
X01676019Y01061016
X01702816
X01728216
Y01139756
X01702816
X01676019
X01649349Y01139756
X01618488Y01100386
X01593088
Y01011118
X01618488
X01605788Y00974096
Y00948696
Y00914598
Y00889198
X01601216Y00804444
X01506728
X01477301
X0147955Y00883666
X0150495
X01764Y0087874
X01794
Y008
X01764
X0172847Y00804444
X0169926
X01821Y0080274
X01825269Y008883
Y009137
X01825244Y00947709
Y00973109
X01815107Y01011601
X01840507
X01840508Y01061157
X01815108
X01814916Y01100386
X01840316
X01870988Y01061016
X0189844
X01925893
X01953345
Y01139756
X01925893
X0189844
X01870988
X0203962Y01100386
X0206502
Y01060958
X0203962
Y01012103
X0206502
X0205232Y00974003
Y00948603
X020597Y00912
X020343
X02020712Y00880735
X0204827Y00880742
X0199Y00880735
Y00801995
X02020712
X0204827Y00802002
X02035Y0078147
X01935333Y0080374
X02158
X02148501Y01061016
X02122255
X02096008
Y01139756
X02122255
X02148501
X02174748
Y01061016
X02260346Y01061157
X02285746
X0231718Y01061016
X02344696
X02372211
X02399727
Y01139756
X02372211
X02344696
X0231718
X02285788Y01100386
X02260388
X02260346Y01013601
X02285746
X02273046Y00974852
Y00949452
X02282571Y00913257
X02257171
X02269871Y00878485
X02243Y0087874
X02214996Y00878485
Y00799745
X02243Y008
X02269871Y00799745
X02378964Y00802454
T04
X00099126Y001651
X00124526
X00149926
X00175326
X00200726
Y002413
X00175326
X00149926
X00124526
X00099126
X00226126
X00251526
X00276926
Y001651
X00251526
X00226126
T05
X0109243Y00734
Y00759
X01128522Y00753021
X01204722
X01238885Y00753041
X01315085
X0101623Y00759
X00995115Y00759001
X00995115Y00734001
X0101623Y00734
X00918915Y00734001
X00918915Y00759001
X0085511Y00758419
Y00725399
X0077891
X00750969Y007254
X0075097Y0075844
X0077891Y00758419
X0067477Y0075844
X00674769Y007254
X00615729Y00726974
X0052Y007269
X00519163Y00701304
Y00625104
X00420125Y00625251
Y00701451
X00420614Y0072558
X00321407Y00725795
X00321065Y00701305
Y00625105
X00221977Y00625252
Y00701451
X00221998Y00727126
X00124891
X00124907Y00701305
Y00625105
X00124891Y00803326
X00221998
X00321407Y00801995
X00420614Y0080178
X0052Y008031
X00615729Y00803174
T06
X01036828Y00292092
X01062228
X01049528Y00317492
X012712Y00313729
X012839Y00288329
X012585
X01479296Y00289814
X01504696
X01491996Y00315214
X01715516Y00313436
X01728216Y00288036
X01702816
X01923034Y00288798
X01948434
X01935734Y00314198
X02157476Y00315038
X02170176Y00289638
X02144776
X02367153Y00288329
X02392553
X02379853Y00313729
X02367534Y00478282
X02392934
X02380234Y00503682
X02391664Y0067056
X02366264
X02378964Y0069596
X02157603Y00696722
X02170303Y00671322
X02144903
X0215887Y00506261
X0217157Y00480861
X0214617
X01948688Y0048159
X01923288
X01935988Y0050699
X01948172Y00670814
X01922772
X01935472Y00696214
X01713696Y00694945
X01726396Y00669545
X01700996
X01713936Y00506261
X01726636Y00480861
X01701236
X0150495Y0048133
X0147955
X0149225Y0050673
X01479804Y00672338
X01505204
X01492504Y00697738
X01270635Y00506261
X01283335Y00480861
X01257935
X01062228Y00478544
X01036828
X01049528Y00503944
T07
X0067Y0023316
Y0035
X00716149Y0033415
X00746629
X00777109
X00807996Y00334149
X00838069Y0033415
X00869184
X00899129
X01039368Y00657
X0103904Y00693
X01145023Y00684
X01261863
X00922199Y00693
X0089575Y00692379
X00922528Y00657
X0085369Y00555863
X00822996Y0055603
X00792349
X00761869
Y0043919
X00777109Y0045099
X00792349Y0043919
X00807996Y00450989
X00822996Y0043919
X00838069Y0045099
X0085369Y00439022
X00869184Y0045099
X00899129
X00746629
X00716149
X0075097Y00692379
X0077891
X0063413
T08
X01185Y00805842
Y00831242
X012104
Y00805842
X012358
Y00831242
T09
X00334551Y0027559
X00359697
X008888Y001214
Y00096
X009142
Y001214
X009396
Y00096
X00965
Y001214
X009904
Y00096
X010158
Y001214
X010412
Y00096
X010666
Y001214
X01092
Y00096
X011174
Y001214
X011428
Y00096
X011682
Y001214
X011936
Y00096
X01219
Y001214
X012444
Y00096
X012698
Y001214
X012952
Y00096
X00611372Y00407
X0057632
T10
X00137267Y00922527
Y00947927
Y00973327
Y00998727
Y01024128
Y01049528
Y01074928
X00213467
Y01049528
Y01024128
Y00998727
Y00973327
Y00947927
Y00922527
X00362197Y00921892
Y00947292
Y00972692
Y00998092
Y01023493
Y01048893
Y01074293
X00438397
Y01048893
Y01023493
Y00998092
Y00972692
Y00947292
Y00921892
X00584137Y00921766
Y00947166
Y00972566
Y00997965
Y01023365
Y01048765
Y01074165
X00660338
Y01048765
Y01023365
Y00997965
Y00972566
Y00947166
Y00921766
X0080772Y00921
Y009464
Y009718
Y009972
Y010226
Y01048
Y010734
X0088392
Y01048
Y010226
Y009972
Y009718
Y009464
Y00921
X01454658Y00930656
Y00956056
Y00981456
Y01006856
Y01032256
Y01057656
Y01083056
X01530858
Y01057656
Y01032256
Y01006856
Y00981456
Y00956056
Y00930656
T11
X00572135Y00169138
X00597607Y00169652
X00622934Y00169138
T12
X0012954Y0040894
Y0043434
Y0045974
Y0048514
X0020574
Y0045974
Y0043434
Y0040894
T13
X00186752Y0008382
X00214438
X00200595Y00112268
X00172909
X00228281
X00255967
X00283653
X0026981Y0008382
X00242124
X00334Y00393
X00454904
T14
X00403894Y00363749
X00420912
X0043793
X00454948
X00471966
T15
X00353068Y00505587
X00453144
T16
X00519163Y00169138
Y00345414
T17
X00483756Y001266
X00575956
T18
X00696Y0013986
X00738
Y0019486
X00696
X01437246
X01479246
X01521246
X01563246
X01605246
X01647246
Y0013986
X01605246
X01563246
X01521246
X01479246
X01437246
X01794647Y00139
Y00194
X01836647
X01878647
X01920647
X01962647
X02004647
Y00139
X01962647
X01920647
X01878647
X01836647
X02129515
X02171515
Y00194
X02129515
X02213515
X02255515
X02297515
X02339515
Y00139
X02297515
X02255515
X02213515
T19
X00483756Y00025
X00575956
T20
X00438088Y00189299
X00597856Y00330902
T21
X00102043Y00098044
X00354519
T22
X00035Y00035
X00802Y00035
X0172
X02415Y00035
Y01215
X01225
X00035
T23
X00717Y0006686
M30
