G04*
G04 #@! TF.GenerationSoftware,Altium Limited,Altium Designer,18.1.7 (191)*
G04*
G04 Layer_Color=16711935*
%FSLAX44Y44*%
%MOMM*%
G71*
G01*
G75*
%ADD25C,1.4732*%
%ADD26R,1.4732X1.4732*%
%ADD27C,1.4000*%
%ADD28R,1.4000X1.4000*%
%ADD29R,1.2700X1.2700*%
%ADD30C,1.2700*%
%ADD31R,1.3716X1.3716*%
%ADD32C,1.3716*%
%ADD33R,1.2700X1.2700*%
%ADD34C,5.0000*%
%ADD35C,1.6510*%
%ADD36R,1.6510X1.6510*%
%ADD37R,1.6764X1.6764*%
%ADD38C,1.6764*%
%ADD39O,0.6400X1.2700*%
%ADD40O,1.2700X0.6400*%
%ADD41R,1.3716X1.3716*%
%ADD42R,1.4986X1.4986*%
%ADD43C,1.4986*%
%ADD44R,1.4000X1.4000*%
%ADD45C,1.7780*%
%ADD46R,1.5240X1.5240*%
%ADD47C,1.5240*%
%ADD48C,1.2954*%
%ADD49R,1.2954X1.2954*%
%ADD50O,1.4500X2.0000*%
%ADD51R,1.4500X2.0000*%
%ADD52R,1.8542X1.8542*%
%ADD53C,1.8542*%
%ADD54O,1.8000X2.5000*%
%ADD55C,1.0300*%
%ADD56C,1.3208*%
%ADD57R,1.3208X1.3208*%
%ADD58C,2.7000*%
%ADD59R,2.7000X2.7000*%
%ADD60C,3.0000*%
%ADD61C,3.5000*%
G36*
X285808Y120310D02*
X287816Y119479D01*
X289541Y118155D01*
X290864Y116431D01*
X291695Y114423D01*
X291979Y112268D01*
X291695Y110113D01*
X290864Y108105D01*
X289541Y106381D01*
X287816Y105057D01*
X285808Y104226D01*
X283653Y103942D01*
X281498Y104226D01*
X279490Y105057D01*
X277766Y106381D01*
X276442Y108105D01*
X275611Y110113D01*
X275327Y112268D01*
X275611Y114423D01*
X276442Y116431D01*
X277766Y118155D01*
X279490Y119479D01*
X281498Y120310D01*
X283653Y120594D01*
X285808Y120310D01*
D02*
G37*
G36*
X258122D02*
X260130Y119479D01*
X261854Y118155D01*
X263178Y116431D01*
X264009Y114423D01*
X264293Y112268D01*
X264009Y110113D01*
X263178Y108105D01*
X261854Y106381D01*
X260130Y105057D01*
X258122Y104226D01*
X255967Y103942D01*
X253812Y104226D01*
X251804Y105057D01*
X250079Y106381D01*
X248756Y108105D01*
X247924Y110113D01*
X247641Y112268D01*
X247924Y114423D01*
X248756Y116431D01*
X250079Y118155D01*
X251804Y119479D01*
X253812Y120310D01*
X255967Y120594D01*
X258122Y120310D01*
D02*
G37*
G36*
X230436D02*
X232444Y119479D01*
X234168Y118155D01*
X235492Y116431D01*
X236324Y114423D01*
X236607Y112268D01*
X236324Y110113D01*
X235492Y108105D01*
X234168Y106381D01*
X232444Y105057D01*
X230436Y104226D01*
X228281Y103942D01*
X226126Y104226D01*
X224118Y105057D01*
X222393Y106381D01*
X221070Y108105D01*
X220238Y110113D01*
X219955Y112268D01*
X220238Y114423D01*
X221070Y116431D01*
X222393Y118155D01*
X224118Y119479D01*
X226126Y120310D01*
X228281Y120594D01*
X230436Y120310D01*
D02*
G37*
G36*
X202750D02*
X204758Y119479D01*
X206483Y118155D01*
X207806Y116431D01*
X208638Y114423D01*
X208921Y112268D01*
X208638Y110113D01*
X207806Y108105D01*
X206483Y106381D01*
X204758Y105057D01*
X202750Y104226D01*
X200595Y103942D01*
X198440Y104226D01*
X196432Y105057D01*
X194708Y106381D01*
X193384Y108105D01*
X192553Y110113D01*
X192269Y112268D01*
X192553Y114423D01*
X193384Y116431D01*
X194708Y118155D01*
X196432Y119479D01*
X198440Y120310D01*
X200595Y120594D01*
X202750Y120310D01*
D02*
G37*
G36*
X175064D02*
X177072Y119479D01*
X178797Y118155D01*
X180120Y116431D01*
X180951Y114423D01*
X181235Y112268D01*
X180951Y110113D01*
X180120Y108105D01*
X178797Y106381D01*
X177072Y105057D01*
X175064Y104226D01*
X172909Y103942D01*
X170754Y104226D01*
X168746Y105057D01*
X167022Y106381D01*
X165698Y108105D01*
X164867Y110113D01*
X164583Y112268D01*
X164867Y114423D01*
X165698Y116431D01*
X167022Y118155D01*
X168746Y119479D01*
X170754Y120310D01*
X172909Y120594D01*
X175064Y120310D01*
D02*
G37*
G36*
X357756Y114315D02*
X360868Y113371D01*
X363736Y111838D01*
X366250Y109775D01*
X368313Y107261D01*
X369846Y104393D01*
X370790Y101280D01*
X371109Y98044D01*
X370790Y94808D01*
X369846Y91695D01*
X368313Y88827D01*
X366250Y86313D01*
X363736Y84250D01*
X360868Y82717D01*
X357756Y81773D01*
X354519Y81454D01*
X351283Y81773D01*
X348170Y82717D01*
X345302Y84250D01*
X342788Y86313D01*
X340725Y88827D01*
X339192Y91695D01*
X338248Y94808D01*
X337929Y98044D01*
X338248Y101280D01*
X339192Y104393D01*
X340725Y107261D01*
X342788Y109775D01*
X345302Y111838D01*
X348170Y113371D01*
X351283Y114315D01*
X354519Y114634D01*
X357756Y114315D01*
D02*
G37*
G36*
X105280D02*
X108392Y113371D01*
X111260Y111838D01*
X113774Y109775D01*
X115837Y107261D01*
X117370Y104393D01*
X118314Y101280D01*
X118633Y98044D01*
X118314Y94808D01*
X117370Y91695D01*
X115837Y88827D01*
X113774Y86313D01*
X111260Y84250D01*
X108392Y82717D01*
X105280Y81773D01*
X102043Y81454D01*
X98806Y81773D01*
X95694Y82717D01*
X92826Y84250D01*
X90312Y86313D01*
X88249Y88827D01*
X86716Y91695D01*
X85772Y94808D01*
X85453Y98044D01*
X85772Y101280D01*
X86716Y104393D01*
X88249Y107261D01*
X90312Y109775D01*
X92826Y111838D01*
X95694Y113371D01*
X98806Y114315D01*
X102043Y114634D01*
X105280Y114315D01*
D02*
G37*
G36*
X271965Y91862D02*
X273973Y91031D01*
X275697Y89707D01*
X277021Y87983D01*
X277852Y85975D01*
X278136Y83820D01*
X277852Y81665D01*
X277021Y79657D01*
X275697Y77933D01*
X273973Y76609D01*
X271965Y75778D01*
X269810Y75494D01*
X267655Y75778D01*
X265647Y76609D01*
X263923Y77933D01*
X262599Y79657D01*
X261768Y81665D01*
X261484Y83820D01*
X261768Y85975D01*
X262599Y87983D01*
X263923Y89707D01*
X265647Y91031D01*
X267655Y91862D01*
X269810Y92146D01*
X271965Y91862D01*
D02*
G37*
G36*
X244279D02*
X246287Y91031D01*
X248011Y89707D01*
X249335Y87983D01*
X250166Y85975D01*
X250450Y83820D01*
X250166Y81665D01*
X249335Y79657D01*
X248011Y77933D01*
X246287Y76609D01*
X244279Y75778D01*
X242124Y75494D01*
X239969Y75778D01*
X237961Y76609D01*
X236236Y77933D01*
X234913Y79657D01*
X234081Y81665D01*
X233798Y83820D01*
X234081Y85975D01*
X234913Y87983D01*
X236236Y89707D01*
X237961Y91031D01*
X239969Y91862D01*
X242124Y92146D01*
X244279Y91862D01*
D02*
G37*
G36*
X216593D02*
X218601Y91031D01*
X220326Y89707D01*
X221649Y87983D01*
X222481Y85975D01*
X222764Y83820D01*
X222481Y81665D01*
X221649Y79657D01*
X220326Y77933D01*
X218601Y76609D01*
X216593Y75778D01*
X214438Y75494D01*
X212283Y75778D01*
X210275Y76609D01*
X208550Y77933D01*
X207227Y79657D01*
X206395Y81665D01*
X206112Y83820D01*
X206395Y85975D01*
X207227Y87983D01*
X208550Y89707D01*
X210275Y91031D01*
X212283Y91862D01*
X214438Y92146D01*
X216593Y91862D01*
D02*
G37*
G36*
X188907D02*
X190915Y91031D01*
X192640Y89707D01*
X193963Y87983D01*
X194795Y85975D01*
X195078Y83820D01*
X194795Y81665D01*
X193963Y79657D01*
X192640Y77933D01*
X190915Y76609D01*
X188907Y75778D01*
X186752Y75494D01*
X184597Y75778D01*
X182589Y76609D01*
X180865Y77933D01*
X179541Y79657D01*
X178710Y81665D01*
X178426Y83820D01*
X178710Y85975D01*
X179541Y87983D01*
X180865Y89707D01*
X182589Y91031D01*
X184597Y91862D01*
X186752Y92146D01*
X188907Y91862D01*
D02*
G37*
D25*
X888800Y96000D02*
D03*
Y121400D02*
D03*
X914200Y96000D02*
D03*
Y121400D02*
D03*
X939600Y96000D02*
D03*
Y121400D02*
D03*
X965000Y96000D02*
D03*
Y121400D02*
D03*
X990400Y96000D02*
D03*
Y121400D02*
D03*
X1015800Y96000D02*
D03*
Y121400D02*
D03*
X1041200Y96000D02*
D03*
Y121400D02*
D03*
X1066600Y96000D02*
D03*
Y121400D02*
D03*
X1092000Y96000D02*
D03*
Y121400D02*
D03*
X1117400Y96000D02*
D03*
Y121400D02*
D03*
X1142800Y96000D02*
D03*
Y121400D02*
D03*
X1168200Y96000D02*
D03*
Y121400D02*
D03*
X1193600Y96000D02*
D03*
Y121400D02*
D03*
X1219000Y96000D02*
D03*
Y121400D02*
D03*
X1244400Y96000D02*
D03*
Y121400D02*
D03*
X1269800Y96000D02*
D03*
Y121400D02*
D03*
X1295200Y96000D02*
D03*
X1185000Y831242D02*
D03*
X1210400Y805842D02*
D03*
Y831242D02*
D03*
X1235800Y805842D02*
D03*
Y831242D02*
D03*
D26*
X1295200Y121400D02*
D03*
X1185000Y805842D02*
D03*
D27*
X1238885Y753041D02*
D03*
X1128522Y753021D02*
D03*
X1092430Y759000D02*
D03*
X995115Y759001D02*
D03*
X124891Y727126D02*
D03*
X124907Y625105D02*
D03*
X221998Y727126D02*
D03*
X221977Y625252D02*
D03*
X420614Y725580D02*
D03*
X321407Y725795D02*
D03*
X520000Y726900D02*
D03*
X615729Y726974D02*
D03*
X519163Y625104D02*
D03*
X321065Y625105D02*
D03*
X420125Y625251D02*
D03*
X750969Y725400D02*
D03*
X674770Y758440D02*
D03*
X778910Y758419D02*
D03*
X855110Y725399D02*
D03*
X1092430Y734000D02*
D03*
X995115Y734001D02*
D03*
D28*
X1315085Y753041D02*
D03*
X1204722Y753021D02*
D03*
X1016230Y759000D02*
D03*
X918915Y759001D02*
D03*
X674769Y725400D02*
D03*
X750970Y758440D02*
D03*
X855110Y758419D02*
D03*
X778910Y725399D02*
D03*
X1016230Y734000D02*
D03*
X918915Y734001D02*
D03*
D29*
X1264700Y722000D02*
D03*
X1065013Y651000D02*
D03*
X1077199Y790000D02*
D03*
X134727Y1114932D02*
D03*
X138321Y883158D02*
D03*
X309310Y864108D02*
D03*
X1637641Y482092D02*
D03*
X2081232Y673862D02*
D03*
X1415846Y290068D02*
D03*
X972255Y480068D02*
D03*
X128273Y553720D02*
D03*
X988722Y983904D02*
D03*
X988724Y944766D02*
D03*
X175326Y278130D02*
D03*
X1415846Y673862D02*
D03*
X2302510Y479806D02*
D03*
X2303780Y290068D02*
D03*
X2303028Y673862D02*
D03*
X2081232Y290068D02*
D03*
X1884837Y673862D02*
D03*
X1859437Y290068D02*
D03*
X2081232Y482092D02*
D03*
X2260346Y1013601D02*
D03*
X1859437Y482092D02*
D03*
X1593088Y1011118D02*
D03*
X1815107Y1011601D02*
D03*
X895750Y659359D02*
D03*
X1637641Y673862D02*
D03*
X86251Y867282D02*
D03*
X631590Y659359D02*
D03*
X531179Y863473D02*
D03*
X751840Y863216D02*
D03*
X362197Y881888D02*
D03*
X359347Y1115567D02*
D03*
X584139Y881888D02*
D03*
X581598Y1114932D02*
D03*
X807720Y880361D02*
D03*
X805180Y1114932D02*
D03*
X260285Y553720D02*
D03*
X278347Y320040D02*
D03*
X264226Y278892D02*
D03*
X988300Y1082590D02*
D03*
X988721Y1038574D02*
D03*
X1411041Y1037778D02*
D03*
Y988416D02*
D03*
X997655Y292092D02*
D03*
X1193292Y289638D02*
D03*
X1219300Y169300D02*
D03*
X1192022Y482092D02*
D03*
X1415846D02*
D03*
X1593088Y1061013D02*
D03*
X1618488Y1100386D02*
D03*
X1840316D02*
D03*
X1815108Y1061157D02*
D03*
X1637641Y290068D02*
D03*
X2034300Y912000D02*
D03*
X2039620Y1012103D02*
D03*
Y1060958D02*
D03*
X2065020Y1100386D02*
D03*
X2260346Y1061157D02*
D03*
X2285788Y1100386D02*
D03*
X2257171Y913257D02*
D03*
X141163Y278130D02*
D03*
X631079Y630000D02*
D03*
X1093700Y693002D02*
D03*
X1479550Y883666D02*
D03*
D30*
X1239300Y722000D02*
D03*
X1143753Y651000D02*
D03*
X1051799Y790000D02*
D03*
X907015Y611350D02*
D03*
X1477295Y613664D02*
D03*
X502856Y1074293D02*
D03*
X336869Y893952D02*
D03*
X213467Y1114932D02*
D03*
X280560Y973327D02*
D03*
X217061Y883158D02*
D03*
X90061Y975232D02*
D03*
X104922Y1102868D02*
D03*
X246652Y1016380D02*
D03*
X280561Y1077700D02*
D03*
X115461Y896492D02*
D03*
X334710Y864108D02*
D03*
X469837Y1074293D02*
D03*
X2214996Y878485D02*
D03*
X1663041Y482092D02*
D03*
X2106632Y673862D02*
D03*
X187096Y701969D02*
D03*
X935736Y532106D02*
D03*
X1033542Y344924D02*
D03*
X935736Y509380D02*
D03*
X1441246Y290068D02*
D03*
X997655Y480068D02*
D03*
X1325880Y891540D02*
D03*
X1106523Y871982D02*
D03*
X207013Y553720D02*
D03*
X779224Y659359D02*
D03*
X1014122Y983904D02*
D03*
X1014124Y944766D02*
D03*
X1699872Y613664D02*
D03*
X1477301Y725704D02*
D03*
X1379982D02*
D03*
X1821000Y724000D02*
D03*
X1990000Y880735D02*
D03*
X2269871Y878485D02*
D03*
X1699260Y804444D02*
D03*
X2243000Y878740D02*
D03*
X1764000D02*
D03*
X2048270Y880742D02*
D03*
X153425Y724525D02*
D03*
X740810Y659359D02*
D03*
X89332Y803264D02*
D03*
X518000Y392300D02*
D03*
X200726Y278130D02*
D03*
X1157733Y342104D02*
D03*
X1379474Y534924D02*
D03*
X1601724D02*
D03*
X1441246Y673862D02*
D03*
X1702816Y1061016D02*
D03*
X1921256Y342900D02*
D03*
X1822958D02*
D03*
X2020712Y880735D02*
D03*
X2267966Y500380D02*
D03*
X2327910Y479806D02*
D03*
X2329180Y290068D02*
D03*
X2328428Y673862D02*
D03*
X2106632Y290068D02*
D03*
X1859437Y673862D02*
D03*
X1884837Y290068D02*
D03*
X2106632Y482092D02*
D03*
X2044446Y342900D02*
D03*
X2267204Y534924D02*
D03*
X2256000Y697738D02*
D03*
X2044954Y534924D02*
D03*
X2285746Y1013601D02*
D03*
X1676019Y1061016D02*
D03*
X1728216D02*
D03*
X1794000Y878740D02*
D03*
X1601216Y725704D02*
D03*
X1822450Y534924D02*
D03*
X2035000Y702730D02*
D03*
X1884837Y482092D02*
D03*
X1618488Y1011118D02*
D03*
X1840507Y1011601D02*
D03*
X1255522Y534924D02*
D03*
X1284224Y613664D02*
D03*
X1157732Y534924D02*
D03*
X817010Y659359D02*
D03*
X469837Y907288D02*
D03*
X1663041Y673862D02*
D03*
X1477301Y421640D02*
D03*
X1380236Y342900D02*
D03*
X1063752Y532106D02*
D03*
X1034288Y610846D02*
D03*
X111651Y867282D02*
D03*
X483649Y701451D02*
D03*
X643669Y724312D02*
D03*
X549664Y622711D02*
D03*
X1601724Y342900D02*
D03*
X450604Y622565D02*
D03*
X351543D02*
D03*
X351544Y723255D02*
D03*
X252484Y724312D02*
D03*
X155371Y622503D02*
D03*
X285529Y801746D02*
D03*
X246652Y908939D02*
D03*
X483624Y803052D02*
D03*
X582684D02*
D03*
X384589Y801746D02*
D03*
X710330Y659359D02*
D03*
X89331Y701451D02*
D03*
X187096Y803264D02*
D03*
X252368Y622711D02*
D03*
X450604Y723255D02*
D03*
X550000Y724312D02*
D03*
X692087Y907669D02*
D03*
X556578Y863473D02*
D03*
X916320Y906143D02*
D03*
Y1073401D02*
D03*
X777240Y863216D02*
D03*
X469862Y1012952D02*
D03*
X334710Y1102233D02*
D03*
X309310Y972691D02*
D03*
X440937Y881888D02*
D03*
X502858Y972692D02*
D03*
X438088Y1115567D02*
D03*
X558357Y893317D02*
D03*
X726377Y1074165D02*
D03*
X692087Y1015365D02*
D03*
X556198Y1102105D02*
D03*
X530798Y972059D02*
D03*
X662879Y881888D02*
D03*
X726251Y972692D02*
D03*
X660338Y1114932D02*
D03*
X781050Y892807D02*
D03*
X950000Y1073400D02*
D03*
X916320Y1015617D02*
D03*
X781050Y1101340D02*
D03*
X751840Y971547D02*
D03*
X886460Y880361D02*
D03*
X950000Y972058D02*
D03*
X883920Y1114932D02*
D03*
X245000Y1077700D02*
D03*
X234885Y553720D02*
D03*
X252947Y320040D02*
D03*
X238826Y278892D02*
D03*
X312420Y165100D02*
D03*
X63500Y166497D02*
D03*
X359696Y332300D02*
D03*
X384589Y701452D02*
D03*
X285554Y701451D02*
D03*
X692087Y1074293D02*
D03*
X1013700Y1082590D02*
D03*
X1014121Y1038574D02*
D03*
X1385641Y1037778D02*
D03*
Y988416D02*
D03*
X972255Y292092D02*
D03*
X1255522Y420843D02*
D03*
X1218692Y289638D02*
D03*
X1244700Y169300D02*
D03*
X1371000Y194810D02*
D03*
X1217422Y482092D02*
D03*
X1441246D02*
D03*
X1506728Y804444D02*
D03*
X1605788Y914598D02*
D03*
Y974096D02*
D03*
X1618488Y1061013D02*
D03*
X1649349Y1139756D02*
D03*
X1593088Y1100386D02*
D03*
X1814916D02*
D03*
X1840508Y1061157D02*
D03*
X1825244Y973109D02*
D03*
X1825269Y913700D02*
D03*
X1699024Y342900D02*
D03*
X1715000Y194700D02*
D03*
X1663041Y290068D02*
D03*
X2059700Y912000D02*
D03*
X2052320Y974003D02*
D03*
X2065020Y1012103D02*
D03*
Y1060958D02*
D03*
X2039620Y1100386D02*
D03*
X2096008Y1139756D02*
D03*
X2148501Y1061016D02*
D03*
X2122255D02*
D03*
X2174748D02*
D03*
X1870988Y1139756D02*
D03*
X1925893Y1061016D02*
D03*
X1953345D02*
D03*
X1898440D02*
D03*
X2372211D02*
D03*
X2344696D02*
D03*
X2317180Y1139756D02*
D03*
X2399727Y1061016D02*
D03*
X2285746Y1061157D02*
D03*
X2260388Y1100386D02*
D03*
X2273046Y974852D02*
D03*
X2282571Y913257D02*
D03*
X1728668Y534924D02*
D03*
X1728724Y421640D02*
D03*
X1504225Y342900D02*
D03*
X2158000Y725000D02*
D03*
X1936115Y534923D02*
D03*
X1935333Y725000D02*
D03*
X2158000Y343238D02*
D03*
X2378964Y723714D02*
D03*
X2380000Y533654D02*
D03*
X2379853Y344170D02*
D03*
X2159270Y534000D02*
D03*
X1506474Y534924D02*
D03*
X1949196Y421640D02*
D03*
X1283716Y342103D02*
D03*
X1728470Y725704D02*
D03*
X1061974Y423664D02*
D03*
X115763Y278130D02*
D03*
X290000Y504952D02*
D03*
X709819Y630000D02*
D03*
X1068300Y693002D02*
D03*
X1504950Y883666D02*
D03*
X1047612Y1038384D02*
D03*
X1299000Y862000D02*
D03*
X1145023Y738023D02*
D03*
Y869745D02*
D03*
X1121996Y923000D02*
D03*
X1155000Y1030000D02*
D03*
X1106523Y775000D02*
D03*
X1031429Y805045D02*
D03*
X979000Y695000D02*
D03*
X1255000Y63000D02*
D03*
X154000Y405000D02*
D03*
X109000Y385000D02*
D03*
X65416Y532106D02*
D03*
X1329000Y851920D02*
D03*
X1376000Y852000D02*
D03*
X1513000D02*
D03*
X1342997Y1064998D02*
D03*
X1315916Y1041080D02*
D03*
X1327997Y1050998D02*
D03*
X1363380Y664620D02*
D03*
X1364000Y930000D02*
D03*
X1504696Y942000D02*
D03*
X1285000Y795000D02*
D03*
X1397000Y1000000D02*
D03*
Y1074848D02*
D03*
X1424000Y1089907D02*
D03*
X965000Y879000D02*
D03*
X1171000Y719000D02*
D03*
X1014124Y1205000D02*
D03*
X2334777Y723342D02*
D03*
X2334778Y706242D02*
D03*
X2315728Y706242D02*
D03*
X2315728Y723342D02*
D03*
X2296678Y706242D02*
D03*
Y722834D02*
D03*
X2315728Y739344D02*
D03*
X2334777D02*
D03*
X2296678D02*
D03*
X1725849Y912586D02*
D03*
X1714119Y440069D02*
D03*
X1490000Y440220D02*
D03*
X1270000Y634765D02*
D03*
Y444365D02*
D03*
X1048893Y443339D02*
D03*
X1049529Y630000D02*
D03*
X1669390Y355439D02*
D03*
X1650342D02*
D03*
X1631291D02*
D03*
Y338929D02*
D03*
Y322337D02*
D03*
X1650341Y339437D02*
D03*
X1650342Y322337D02*
D03*
X1669391Y322337D02*
D03*
X1669390Y339437D02*
D03*
X2112982Y547392D02*
D03*
X2093933D02*
D03*
X2074882D02*
D03*
Y530882D02*
D03*
Y514290D02*
D03*
X2093932Y531390D02*
D03*
X2093933Y514290D02*
D03*
X2112982Y514290D02*
D03*
X2112982Y531390D02*
D03*
Y739344D02*
D03*
X2093933D02*
D03*
X2074882D02*
D03*
Y722834D02*
D03*
Y706242D02*
D03*
X2093932Y723342D02*
D03*
X2093933Y706242D02*
D03*
X2112982Y706242D02*
D03*
X2112982Y723342D02*
D03*
X1891186Y739344D02*
D03*
X1872137D02*
D03*
X1853087D02*
D03*
Y722834D02*
D03*
Y706242D02*
D03*
X1872137Y723342D02*
D03*
X1872137Y706242D02*
D03*
X1891187Y706242D02*
D03*
X1891186Y723342D02*
D03*
Y547392D02*
D03*
X1872137D02*
D03*
X1853087D02*
D03*
Y530882D02*
D03*
Y514290D02*
D03*
X1872137Y531390D02*
D03*
X1872137Y514290D02*
D03*
X1891187Y514290D02*
D03*
X1891186Y531390D02*
D03*
Y355439D02*
D03*
X1872137D02*
D03*
X1853087D02*
D03*
Y338929D02*
D03*
Y322337D02*
D03*
X1872137Y339437D02*
D03*
X1872137Y322337D02*
D03*
X1891187Y322337D02*
D03*
X1891186Y339437D02*
D03*
X1669390Y739344D02*
D03*
X1650342D02*
D03*
X1631291D02*
D03*
Y722834D02*
D03*
Y706242D02*
D03*
X1650341Y723342D02*
D03*
X1650342Y706242D02*
D03*
X1669391Y706242D02*
D03*
X1669390Y723342D02*
D03*
X1669390Y547392D02*
D03*
X1650342D02*
D03*
X1631291D02*
D03*
Y530882D02*
D03*
Y514290D02*
D03*
X1650341Y531390D02*
D03*
X1650342Y514290D02*
D03*
X1669391Y514290D02*
D03*
X1669390Y531390D02*
D03*
X1447595Y739344D02*
D03*
X1428546D02*
D03*
X1409496D02*
D03*
Y722834D02*
D03*
Y706242D02*
D03*
X1428546Y723342D02*
D03*
X1428546Y706242D02*
D03*
X1447596Y706242D02*
D03*
X1447595Y723342D02*
D03*
X1004004Y545440D02*
D03*
X984955D02*
D03*
X965904D02*
D03*
Y528929D02*
D03*
Y512337D02*
D03*
X984955Y529438D02*
D03*
X984955Y512337D02*
D03*
X1004005Y512338D02*
D03*
X1004004Y529438D02*
D03*
Y357392D02*
D03*
X984955D02*
D03*
X965904D02*
D03*
Y340882D02*
D03*
Y324290D02*
D03*
X984955Y341390D02*
D03*
X984955Y324290D02*
D03*
X1004005Y324290D02*
D03*
X1004004Y341390D02*
D03*
X1225799Y547392D02*
D03*
X1206750D02*
D03*
X1187700D02*
D03*
Y530882D02*
D03*
Y514290D02*
D03*
X1206750Y531390D02*
D03*
X1206750Y514290D02*
D03*
X1225800Y514290D02*
D03*
X1225799Y531390D02*
D03*
Y355440D02*
D03*
X1206750D02*
D03*
X1187700D02*
D03*
Y338929D02*
D03*
Y322337D02*
D03*
X1206750Y339438D02*
D03*
X1206750Y322337D02*
D03*
X1225800Y322338D02*
D03*
X1225799Y339438D02*
D03*
X1447595Y547392D02*
D03*
X1428546D02*
D03*
X1409496D02*
D03*
Y530882D02*
D03*
Y514290D02*
D03*
X1428546Y531390D02*
D03*
X1428546Y514290D02*
D03*
X1447596Y514290D02*
D03*
X1447595Y531390D02*
D03*
Y355440D02*
D03*
X1428546D02*
D03*
X1409496D02*
D03*
Y338929D02*
D03*
Y322337D02*
D03*
X1428546Y339438D02*
D03*
X1428546Y322337D02*
D03*
X1447596Y322338D02*
D03*
X1447595Y339438D02*
D03*
X1760000Y672592D02*
D03*
X1935000Y440000D02*
D03*
X1700449Y888526D02*
D03*
X1675049Y889198D02*
D03*
X1648079D02*
D03*
X1675049Y913257D02*
D03*
X1648079D02*
D03*
X1725849Y935953D02*
D03*
X1700449D02*
D03*
X1675049Y936625D02*
D03*
X1648079D02*
D03*
Y959329D02*
D03*
X1675049D02*
D03*
X1700449Y958657D02*
D03*
X1725849D02*
D03*
X1948758Y888526D02*
D03*
X1923358D02*
D03*
X1897958Y889198D02*
D03*
X1870988D02*
D03*
X1948758Y912586D02*
D03*
X1923358D02*
D03*
X1897958Y913257D02*
D03*
X1870988D02*
D03*
X1948758Y935953D02*
D03*
X1923358D02*
D03*
X1897958Y936625D02*
D03*
X1870988D02*
D03*
Y959329D02*
D03*
X1897958D02*
D03*
X1923358Y958657D02*
D03*
X1948758D02*
D03*
X2171703Y890278D02*
D03*
X2146303D02*
D03*
X2120903Y890949D02*
D03*
X2093933D02*
D03*
X2171703Y914337D02*
D03*
X2146303D02*
D03*
X2120903Y915009D02*
D03*
X2093933D02*
D03*
X2171703Y937705D02*
D03*
X2146303D02*
D03*
X2120903Y938376D02*
D03*
X2093933D02*
D03*
Y961080D02*
D03*
X2120903D02*
D03*
X2146303Y960409D02*
D03*
X2171703D02*
D03*
X2394810Y889198D02*
D03*
X2369410D02*
D03*
X2344010Y889869D02*
D03*
X2317040D02*
D03*
X2394810Y913257D02*
D03*
X2369410D02*
D03*
X2344010Y913929D02*
D03*
X2317040D02*
D03*
X2394810Y936625D02*
D03*
X2369410D02*
D03*
X2344010Y937296D02*
D03*
X2317040D02*
D03*
Y960000D02*
D03*
X2344010D02*
D03*
X2369410Y959329D02*
D03*
X2394810D02*
D03*
X2334777Y547392D02*
D03*
X2315728D02*
D03*
X2296678D02*
D03*
Y530881D02*
D03*
Y514289D02*
D03*
X2315728Y531390D02*
D03*
X2315728Y514289D02*
D03*
X2334778Y514290D02*
D03*
X2334777Y531390D02*
D03*
Y355440D02*
D03*
X2315728D02*
D03*
X2296678D02*
D03*
Y338929D02*
D03*
Y322337D02*
D03*
X2315728Y339438D02*
D03*
X2315728Y322337D02*
D03*
X2334778Y322338D02*
D03*
X2334777Y339438D02*
D03*
X2112981Y342138D02*
D03*
X2112982Y325038D02*
D03*
X2093932Y325038D02*
D03*
X2093932Y342138D02*
D03*
X2074882Y325038D02*
D03*
Y341630D02*
D03*
Y358140D02*
D03*
X2093932D02*
D03*
X2112981D02*
D03*
X761869Y350000D02*
D03*
X268348Y622503D02*
D03*
X792349Y350000D02*
D03*
X300000Y565000D02*
D03*
X314522Y575850D02*
D03*
X370000Y625000D02*
D03*
X824988Y350000D02*
D03*
X469837Y625252D02*
D03*
X200000Y625251D02*
D03*
X853690Y349731D02*
D03*
X570000Y625000D02*
D03*
X590000D02*
D03*
X491041Y633959D02*
D03*
X611923Y660000D02*
D03*
X883920Y325400D02*
D03*
X899129Y426606D02*
D03*
X985000Y875000D02*
D03*
X1170000Y820000D02*
D03*
X1032000Y819745D02*
D03*
X1225997Y845998D02*
D03*
X1237998Y855998D02*
D03*
X1077000Y856000D02*
D03*
X1094000Y1205000D02*
D03*
X1250000Y910000D02*
D03*
X1186501Y909501D02*
D03*
X1080857Y568000D02*
D03*
Y665000D02*
D03*
X1106523Y831242D02*
D03*
X1121998Y793998D02*
D03*
X1339997Y973998D02*
D03*
X1326000Y994660D02*
D03*
X1295000Y568000D02*
D03*
X1349997Y1046998D02*
D03*
X1365000Y965092D02*
D03*
X1364000Y950000D02*
D03*
X1113000Y1172000D02*
D03*
X1304068Y1025068D02*
D03*
X1178501Y871070D02*
D03*
X1530997Y756999D02*
D03*
X1515000Y756995D02*
D03*
X1479000Y981456D02*
D03*
X1355150Y1178150D02*
D03*
X1365997Y1167998D02*
D03*
X1352997Y1075998D02*
D03*
X1557000Y1121000D02*
D03*
X1501000Y1104000D02*
D03*
Y1203000D02*
D03*
X1485000Y1100000D02*
D03*
X1484000Y1213850D02*
D03*
X1712000Y787000D02*
D03*
X1492078Y789000D02*
D03*
X1274000Y924000D02*
D03*
X1274003Y903998D02*
D03*
X1286152Y935000D02*
D03*
X1286000Y893000D02*
D03*
X2395000Y793242D02*
D03*
X2360000Y816459D02*
D03*
X2135000Y440069D02*
D03*
X1979459Y1132000D02*
D03*
Y1090000D02*
D03*
X1990000Y1145000D02*
D03*
X1990996Y1079998D02*
D03*
X1765000Y1075000D02*
D03*
X1128998Y1177998D02*
D03*
X1194501Y922499D02*
D03*
X1229550Y1039000D02*
D03*
X1180000Y990000D02*
D03*
X1258000Y743000D02*
D03*
X1746371Y1002982D02*
D03*
Y1038000D02*
D03*
X1971192Y999000D02*
D03*
X1970686Y1029000D02*
D03*
X2195000Y1000000D02*
D03*
Y1032000D02*
D03*
X1318000Y573506D02*
D03*
X1114945Y598000D02*
D03*
X1095006Y631000D02*
D03*
X1102000Y542218D02*
D03*
X1342000Y1193000D02*
D03*
X1137998Y1189998D02*
D03*
X1114998Y1199998D02*
D03*
X1024998Y874998D02*
D03*
X1005000Y874887D02*
D03*
X1045000Y875000D02*
D03*
X1064998Y874998D02*
D03*
X1084998D02*
D03*
X1075000Y894587D02*
D03*
X1055000Y895000D02*
D03*
X1035000Y894996D02*
D03*
X1014998Y894998D02*
D03*
X995000Y893951D02*
D03*
X975000Y895000D02*
D03*
X869985Y1167000D02*
D03*
X1188998Y889998D02*
D03*
X1153000Y889869D02*
D03*
X1205000Y882269D02*
D03*
X1311914Y901390D02*
D03*
X1765000Y1105281D02*
D03*
X1517000Y1096000D02*
D03*
X1504696Y925000D02*
D03*
X1305000D02*
D03*
X1215000Y894996D02*
D03*
X1715000Y633959D02*
D03*
X838780Y591000D02*
D03*
X867000Y617000D02*
D03*
X883000Y727126D02*
D03*
X1072848Y1160000D02*
D03*
X990000Y1150000D02*
D03*
X951000Y1095000D02*
D03*
X949000Y1057656D02*
D03*
X1059000Y1139756D02*
D03*
X971000Y1130000D02*
D03*
X1034000Y1074293D02*
D03*
X1045000Y1120000D02*
D03*
X1015000Y1017080D02*
D03*
X1012000Y1001000D02*
D03*
X1072120Y983120D02*
D03*
X1083998Y992998D02*
D03*
X1066000Y1013000D02*
D03*
X1106996Y894996D02*
D03*
X1107000Y1035000D02*
D03*
D31*
X1261863Y684000D02*
D03*
X1039368Y657000D02*
D03*
X895750Y692379D02*
D03*
X750970D02*
D03*
X922199Y693000D02*
D03*
D32*
X1145023Y684000D02*
D03*
X922528Y657000D02*
D03*
X670000Y233160D02*
D03*
X778910Y692379D02*
D03*
X634130D02*
D03*
X899129Y334150D02*
D03*
X869184D02*
D03*
X838069D02*
D03*
X807996Y334149D02*
D03*
X716149Y334150D02*
D03*
X853690Y439022D02*
D03*
X822996Y439190D02*
D03*
X792349D02*
D03*
X777109Y334150D02*
D03*
X746629D02*
D03*
X761869Y439190D02*
D03*
X1039040Y693000D02*
D03*
D33*
X907015Y532610D02*
D03*
X1477295Y534924D02*
D03*
X502856Y995553D02*
D03*
X336869Y972692D02*
D03*
X280560Y894587D02*
D03*
X90061Y896492D02*
D03*
X104922Y1024128D02*
D03*
X246652Y937641D02*
D03*
X280561Y998960D02*
D03*
X115461Y975232D02*
D03*
X469837Y1048893D02*
D03*
X2214996Y799745D02*
D03*
X187096Y727369D02*
D03*
X935736Y610846D02*
D03*
X1033542Y423664D02*
D03*
X935736Y430640D02*
D03*
X1325880Y812800D02*
D03*
X1106523Y793242D02*
D03*
X779224Y633959D02*
D03*
X1699872Y534924D02*
D03*
X1477301Y804444D02*
D03*
X1379982D02*
D03*
X1821000Y802740D02*
D03*
X1990000Y801995D02*
D03*
X2269871Y799745D02*
D03*
X1699260Y725704D02*
D03*
X2243000Y800000D02*
D03*
X1764000D02*
D03*
X2048270Y802002D02*
D03*
X153425Y803265D02*
D03*
X740810Y633959D02*
D03*
X89332Y777864D02*
D03*
X518000Y417700D02*
D03*
X1157733Y420844D02*
D03*
X1379474Y613664D02*
D03*
X1601724D02*
D03*
X1702816Y1139756D02*
D03*
X1921256Y421640D02*
D03*
X1822958D02*
D03*
X2020712Y801995D02*
D03*
X2267966Y421640D02*
D03*
X2044446D02*
D03*
X2267204Y613664D02*
D03*
X2256000Y776478D02*
D03*
X2044954Y613664D02*
D03*
X1676019Y1139756D02*
D03*
X1728216D02*
D03*
X1794000Y800000D02*
D03*
X1601216Y804444D02*
D03*
X1822450Y613664D02*
D03*
X2035000Y781470D02*
D03*
X1255522Y613664D02*
D03*
X1284224Y534924D02*
D03*
X1157732Y613664D02*
D03*
X469837Y881888D02*
D03*
X1477301Y342900D02*
D03*
X1380236Y421640D02*
D03*
X1063752Y610846D02*
D03*
X1034288Y532106D02*
D03*
X483649Y726852D02*
D03*
X643669Y803052D02*
D03*
X549664Y701451D02*
D03*
X1601724Y421640D02*
D03*
X450604Y701305D02*
D03*
X351543D02*
D03*
X351544Y801995D02*
D03*
X252484Y803052D02*
D03*
X155371Y701243D02*
D03*
X285529Y776346D02*
D03*
X246652Y883539D02*
D03*
X483624Y777652D02*
D03*
X582684D02*
D03*
X384589Y776346D02*
D03*
X89331Y726852D02*
D03*
X187096Y777864D02*
D03*
X252368Y701451D02*
D03*
X450604Y801995D02*
D03*
X550000Y803052D02*
D03*
X692087Y882269D02*
D03*
X916320Y880742D02*
D03*
Y1048001D02*
D03*
X469862Y934212D02*
D03*
X334710Y1023493D02*
D03*
X309310Y893951D02*
D03*
X502858Y893952D02*
D03*
X558357Y972057D02*
D03*
X726377Y995425D02*
D03*
X692087Y936625D02*
D03*
X556198Y1023365D02*
D03*
X530798Y893319D02*
D03*
X726251Y893952D02*
D03*
X781050Y971547D02*
D03*
X950000Y994660D02*
D03*
X916320Y936877D02*
D03*
X781050Y1022600D02*
D03*
X751840Y892807D02*
D03*
X950000Y893318D02*
D03*
X245000Y1052300D02*
D03*
X312420Y190500D02*
D03*
X63500Y245237D02*
D03*
X359696Y357700D02*
D03*
X384589Y726852D02*
D03*
X285554Y726852D02*
D03*
X692087Y1048893D02*
D03*
X1255522Y342103D02*
D03*
X1371000Y169410D02*
D03*
X1506728Y725704D02*
D03*
X1605788Y889198D02*
D03*
Y948696D02*
D03*
X1649349Y1061016D02*
D03*
X1825244Y947709D02*
D03*
X1825269Y888300D02*
D03*
X1699024Y421640D02*
D03*
X1715000Y169300D02*
D03*
X2052320Y948603D02*
D03*
X2096008Y1061016D02*
D03*
X2148501Y1139756D02*
D03*
X2122255D02*
D03*
X2174748D02*
D03*
X1870988Y1061016D02*
D03*
X1925893Y1139756D02*
D03*
X1953345D02*
D03*
X1898440D02*
D03*
X2372211D02*
D03*
X2344696D02*
D03*
X2317180Y1061016D02*
D03*
X2399727Y1139756D02*
D03*
X2273046Y949452D02*
D03*
X1728668Y613664D02*
D03*
X1728724Y342900D02*
D03*
X1504225Y421640D02*
D03*
X2158000Y803740D02*
D03*
X1936115Y613663D02*
D03*
X1935333Y803740D02*
D03*
X2158000Y421978D02*
D03*
X2378964Y802454D02*
D03*
X2380000Y612394D02*
D03*
X2379853Y422910D02*
D03*
X2159270Y612740D02*
D03*
X1506474Y613664D02*
D03*
X1949196Y342900D02*
D03*
X1283716Y420843D02*
D03*
X1728470Y804444D02*
D03*
X1061974Y344924D02*
D03*
X290000Y426212D02*
D03*
X1047612Y959644D02*
D03*
D34*
X102043Y98044D02*
D03*
X354519D02*
D03*
X438088Y189299D02*
D03*
X597856Y330902D02*
D03*
D35*
X269810Y83820D02*
D03*
X242124D02*
D03*
X214438D02*
D03*
X186752D02*
D03*
X283653Y112268D02*
D03*
X255967D02*
D03*
X228281D02*
D03*
X200595D02*
D03*
X334000Y393000D02*
D03*
D36*
X172909Y112268D02*
D03*
X454904Y393000D02*
D03*
D37*
X129540Y485140D02*
D03*
D38*
Y459740D02*
D03*
Y434340D02*
D03*
Y408940D02*
D03*
X205740D02*
D03*
Y434340D02*
D03*
Y459740D02*
D03*
Y485140D02*
D03*
D39*
X1225000Y1215000D02*
D03*
X1720000Y35000D02*
D03*
X2415000Y35000D02*
D03*
X35000Y1215000D02*
D03*
Y35000D02*
D03*
X802000Y35000D02*
D03*
D40*
X2415000Y1215000D02*
D03*
D41*
X670000Y350000D02*
D03*
X899129Y450990D02*
D03*
X869184D02*
D03*
X838069D02*
D03*
X807996Y450989D02*
D03*
X716149Y450990D02*
D03*
X853690Y555863D02*
D03*
X822996Y556030D02*
D03*
X792349D02*
D03*
X777109Y450990D02*
D03*
X746629D02*
D03*
X761869Y556030D02*
D03*
D42*
X584137Y1074165D02*
D03*
X362197Y1074293D02*
D03*
X137267Y1074928D02*
D03*
X807720Y1073400D02*
D03*
X1530858Y930656D02*
D03*
D43*
X584137Y1048765D02*
D03*
Y1023365D02*
D03*
Y997965D02*
D03*
Y972566D02*
D03*
Y947166D02*
D03*
Y921766D02*
D03*
X660338D02*
D03*
Y947166D02*
D03*
Y972566D02*
D03*
Y997965D02*
D03*
Y1023365D02*
D03*
Y1048765D02*
D03*
Y1074165D02*
D03*
X362197Y1048893D02*
D03*
Y1023493D02*
D03*
Y998092D02*
D03*
Y972692D02*
D03*
Y947292D02*
D03*
Y921892D02*
D03*
X438397D02*
D03*
Y947292D02*
D03*
Y972692D02*
D03*
Y998092D02*
D03*
Y1023493D02*
D03*
Y1048893D02*
D03*
Y1074293D02*
D03*
X137267Y1049528D02*
D03*
Y1024128D02*
D03*
Y998727D02*
D03*
Y973327D02*
D03*
Y947927D02*
D03*
Y922527D02*
D03*
X213467D02*
D03*
Y947927D02*
D03*
Y973327D02*
D03*
Y998727D02*
D03*
Y1024128D02*
D03*
Y1049528D02*
D03*
Y1074928D02*
D03*
X807720Y1048000D02*
D03*
Y1022600D02*
D03*
Y997200D02*
D03*
Y971800D02*
D03*
Y946400D02*
D03*
Y921000D02*
D03*
X883920D02*
D03*
Y946400D02*
D03*
Y971800D02*
D03*
Y997200D02*
D03*
Y1022600D02*
D03*
Y1048000D02*
D03*
Y1073400D02*
D03*
X1530858Y956056D02*
D03*
Y981456D02*
D03*
Y1006856D02*
D03*
Y1032256D02*
D03*
Y1057656D02*
D03*
Y1083056D02*
D03*
X1454658D02*
D03*
Y1057656D02*
D03*
Y1032256D02*
D03*
Y1006856D02*
D03*
Y981456D02*
D03*
Y956056D02*
D03*
Y930656D02*
D03*
D44*
X124891Y803326D02*
D03*
X124907Y701305D02*
D03*
X221998Y803326D02*
D03*
X221977Y701451D02*
D03*
X420614Y801780D02*
D03*
X321407Y801995D02*
D03*
X520000Y803100D02*
D03*
X615729Y803174D02*
D03*
X519163Y701304D02*
D03*
X321065Y701305D02*
D03*
X420125Y701451D02*
D03*
D45*
X453144Y505587D02*
D03*
X353068D02*
D03*
D46*
X359697Y275590D02*
D03*
X576320Y407000D02*
D03*
D47*
X334551Y275590D02*
D03*
X611372Y407000D02*
D03*
D48*
X276926Y165100D02*
D03*
X251526D02*
D03*
X226126D02*
D03*
X200726D02*
D03*
X175326D02*
D03*
X149926D02*
D03*
X124526D02*
D03*
X99126D02*
D03*
Y241300D02*
D03*
X124526D02*
D03*
X149926D02*
D03*
X175326D02*
D03*
X200726D02*
D03*
X226126D02*
D03*
X251526D02*
D03*
D49*
X276926D02*
D03*
D50*
X403894Y363749D02*
D03*
X420912D02*
D03*
X437930D02*
D03*
X454948D02*
D03*
D51*
X471966D02*
D03*
D52*
X519163Y345414D02*
D03*
D53*
Y169138D02*
D03*
D54*
X622934Y169138D02*
D03*
X597607Y169652D02*
D03*
X572135Y169138D02*
D03*
D55*
X1340106Y988016D02*
D03*
Y1036816D02*
D03*
D56*
X2170303Y671322D02*
D03*
X2157603Y696722D02*
D03*
X1948688Y481590D02*
D03*
X1935988Y506990D02*
D03*
X1726396Y669545D02*
D03*
X1713696Y694945D02*
D03*
X2391664Y670560D02*
D03*
X2378964Y695960D02*
D03*
X2392934Y478282D02*
D03*
X2380234Y503682D02*
D03*
X2170176Y289638D02*
D03*
X2157476Y315038D02*
D03*
X2392553Y288329D02*
D03*
X2379853Y313729D02*
D03*
X2171570Y480861D02*
D03*
X2158870Y506261D02*
D03*
X1948434Y288798D02*
D03*
X1935734Y314198D02*
D03*
X1948172Y670814D02*
D03*
X1935472Y696214D02*
D03*
X1726636Y480861D02*
D03*
X1713936Y506261D02*
D03*
X1505204Y672338D02*
D03*
X1492504Y697738D02*
D03*
X1504950Y481330D02*
D03*
X1492250Y506730D02*
D03*
X1283900Y288329D02*
D03*
X1271200Y313729D02*
D03*
X1062228Y292092D02*
D03*
X1049528Y317492D02*
D03*
X1062228Y478544D02*
D03*
X1049528Y503944D02*
D03*
X1504696Y289814D02*
D03*
X1491996Y315214D02*
D03*
X1283335Y480861D02*
D03*
X1270635Y506261D02*
D03*
X1728216Y288036D02*
D03*
X1715516Y313436D02*
D03*
D57*
X2144903Y671322D02*
D03*
X1923288Y481590D02*
D03*
X1700996Y669545D02*
D03*
X2366264Y670560D02*
D03*
X2367534Y478282D02*
D03*
X2144776Y289638D02*
D03*
X2367153Y288329D02*
D03*
X2146170Y480861D02*
D03*
X1923034Y288798D02*
D03*
X1922772Y670814D02*
D03*
X1701236Y480861D02*
D03*
X1479804Y672338D02*
D03*
X1479550Y481330D02*
D03*
X1258500Y288329D02*
D03*
X1036828Y292092D02*
D03*
Y478544D02*
D03*
X1479296Y289814D02*
D03*
X1257935Y480861D02*
D03*
X1702816Y288036D02*
D03*
D58*
X1437246Y139860D02*
D03*
X1479246D02*
D03*
X1521246D02*
D03*
X1563246D02*
D03*
X1605246D02*
D03*
X1437246Y194860D02*
D03*
X1479246D02*
D03*
X1521246D02*
D03*
X1563246D02*
D03*
X1605246D02*
D03*
X1647246D02*
D03*
X1794647Y139000D02*
D03*
X1836647D02*
D03*
X1878647D02*
D03*
X1920647D02*
D03*
X1962647D02*
D03*
X1794647Y194000D02*
D03*
X1836647D02*
D03*
X1878647D02*
D03*
X1920647D02*
D03*
X1962647D02*
D03*
X2004647D02*
D03*
X696000Y139860D02*
D03*
X738000Y194860D02*
D03*
X696000D02*
D03*
X2339515Y194000D02*
D03*
X2297515D02*
D03*
X2255515D02*
D03*
X2213515D02*
D03*
X2171515D02*
D03*
X2129515D02*
D03*
X2297515Y139000D02*
D03*
X2255515D02*
D03*
X2213515D02*
D03*
X2171515D02*
D03*
X2129515D02*
D03*
D59*
X1647246Y139860D02*
D03*
X2004647Y139000D02*
D03*
X738000Y139860D02*
D03*
X2339515Y139000D02*
D03*
D60*
X717000Y66860D02*
D03*
D61*
X483756Y25000D02*
D03*
X575956D02*
D03*
Y126600D02*
D03*
X483756D02*
D03*
M02*
