G04*
G04 #@! TF.GenerationSoftware,Altium Limited,Altium Designer,18.1.7 (191)*
G04*
G04 Layer_Color=8421504*
%FSLAX44Y44*%
%MOMM*%
G71*
G01*
G75*
%ADD17R,1.4732X0.5080*%
%ADD18R,0.5080X1.4732*%
%ADD19R,0.8001X4.5999*%
%ADD20R,10.8001X9.3997*%
%ADD21R,0.8000X2.3500*%
%ADD22R,6.7000X5.7500*%
G36*
X2341728Y727142D02*
X2319528D01*
Y744542D01*
X2341728D01*
Y727142D01*
D02*
G37*
G36*
X2311928D02*
X2289728D01*
Y744542D01*
X2311928D01*
Y727142D01*
D02*
G37*
G36*
X2119932D02*
X2097732D01*
Y744542D01*
X2119932D01*
Y727142D01*
D02*
G37*
G36*
X2090132D02*
X2067932D01*
Y744542D01*
X2090132D01*
Y727142D01*
D02*
G37*
G36*
X1898137D02*
X1875937D01*
Y744542D01*
X1898137D01*
Y727142D01*
D02*
G37*
G36*
X1868337D02*
X1846137D01*
Y744542D01*
X1868337D01*
Y727142D01*
D02*
G37*
G36*
X1676341D02*
X1654141D01*
Y744542D01*
X1676341D01*
Y727142D01*
D02*
G37*
G36*
X1646541D02*
X1624341D01*
Y744542D01*
X1646541D01*
Y727142D01*
D02*
G37*
G36*
X1454546D02*
X1432346D01*
Y744542D01*
X1454546D01*
Y727142D01*
D02*
G37*
G36*
X1424746D02*
X1402546D01*
Y744542D01*
X1424746D01*
Y727142D01*
D02*
G37*
G36*
X2341728Y702142D02*
X2319528D01*
Y719542D01*
X2341728D01*
Y702142D01*
D02*
G37*
G36*
X2311928D02*
X2289728D01*
Y719542D01*
X2311928D01*
Y702142D01*
D02*
G37*
G36*
X2119932D02*
X2097732D01*
Y719542D01*
X2119932D01*
Y702142D01*
D02*
G37*
G36*
X2090132D02*
X2067932D01*
Y719542D01*
X2090132D01*
Y702142D01*
D02*
G37*
G36*
X1898137D02*
X1875937D01*
Y719542D01*
X1898137D01*
Y702142D01*
D02*
G37*
G36*
X1868337D02*
X1846137D01*
Y719542D01*
X1868337D01*
Y702142D01*
D02*
G37*
G36*
X1676341D02*
X1654141D01*
Y719542D01*
X1676341D01*
Y702142D01*
D02*
G37*
G36*
X1646541D02*
X1624341D01*
Y719542D01*
X1646541D01*
Y702142D01*
D02*
G37*
G36*
X1454546D02*
X1432346D01*
Y719542D01*
X1454546D01*
Y702142D01*
D02*
G37*
G36*
X1424746D02*
X1402546D01*
Y719542D01*
X1424746D01*
Y702142D01*
D02*
G37*
G36*
X2119932Y535190D02*
X2097732D01*
Y552590D01*
X2119932D01*
Y535190D01*
D02*
G37*
G36*
X2090132D02*
X2067932D01*
Y552590D01*
X2090132D01*
Y535190D01*
D02*
G37*
G36*
X1898137D02*
X1875937D01*
Y552590D01*
X1898137D01*
Y535190D01*
D02*
G37*
G36*
X1868337D02*
X1846137D01*
Y552590D01*
X1868337D01*
Y535190D01*
D02*
G37*
G36*
X1676341D02*
X1654141D01*
Y552590D01*
X1676341D01*
Y535190D01*
D02*
G37*
G36*
X1646541D02*
X1624341D01*
Y552590D01*
X1646541D01*
Y535190D01*
D02*
G37*
G36*
X1454546D02*
X1432346D01*
Y552590D01*
X1454546D01*
Y535190D01*
D02*
G37*
G36*
X1424746D02*
X1402546D01*
Y552590D01*
X1424746D01*
Y535190D01*
D02*
G37*
G36*
X1232750D02*
X1210550D01*
Y552590D01*
X1232750D01*
Y535190D01*
D02*
G37*
G36*
X1202950D02*
X1180750D01*
Y552590D01*
X1202950D01*
Y535190D01*
D02*
G37*
G36*
X2341728Y535190D02*
X2319528D01*
Y552590D01*
X2341728D01*
Y535190D01*
D02*
G37*
G36*
X2311928D02*
X2289728D01*
Y552590D01*
X2311928D01*
Y535190D01*
D02*
G37*
G36*
X1010955Y533238D02*
X988755D01*
Y550638D01*
X1010955D01*
Y533238D01*
D02*
G37*
G36*
X981154D02*
X958954D01*
Y550638D01*
X981154D01*
Y533238D01*
D02*
G37*
G36*
X2119932Y510190D02*
X2097732D01*
Y527590D01*
X2119932D01*
Y510190D01*
D02*
G37*
G36*
X2090132D02*
X2067932D01*
Y527590D01*
X2090132D01*
Y510190D01*
D02*
G37*
G36*
X1898137D02*
X1875937D01*
Y527590D01*
X1898137D01*
Y510190D01*
D02*
G37*
G36*
X1868337D02*
X1846137D01*
Y527590D01*
X1868337D01*
Y510190D01*
D02*
G37*
G36*
X1676341D02*
X1654141D01*
Y527590D01*
X1676341D01*
Y510190D01*
D02*
G37*
G36*
X1646541D02*
X1624341D01*
Y527590D01*
X1646541D01*
Y510190D01*
D02*
G37*
G36*
X1454546D02*
X1432346D01*
Y527590D01*
X1454546D01*
Y510190D01*
D02*
G37*
G36*
X1424746D02*
X1402546D01*
Y527590D01*
X1424746D01*
Y510190D01*
D02*
G37*
G36*
X1232750D02*
X1210550D01*
Y527590D01*
X1232750D01*
Y510190D01*
D02*
G37*
G36*
X1202950D02*
X1180750D01*
Y527590D01*
X1202950D01*
Y510190D01*
D02*
G37*
G36*
X2341728Y510190D02*
X2319528D01*
Y527590D01*
X2341728D01*
Y510190D01*
D02*
G37*
G36*
X2311928D02*
X2289728D01*
Y527590D01*
X2311928D01*
Y510190D01*
D02*
G37*
G36*
X1010955Y508238D02*
X988755D01*
Y525638D01*
X1010955D01*
Y508238D01*
D02*
G37*
G36*
X981154D02*
X958954D01*
Y525638D01*
X981154D01*
Y508238D01*
D02*
G37*
G36*
X1010955Y345190D02*
X988755D01*
Y362590D01*
X1010955D01*
Y345190D01*
D02*
G37*
G36*
X981154D02*
X958954D01*
Y362590D01*
X981154D01*
Y345190D01*
D02*
G37*
G36*
X2341728Y343238D02*
X2319528D01*
Y360638D01*
X2341728D01*
Y343238D01*
D02*
G37*
G36*
X2311928D02*
X2289728D01*
Y360638D01*
X2311928D01*
Y343238D01*
D02*
G37*
G36*
X2119932Y343238D02*
X2097732D01*
Y360638D01*
X2119932D01*
Y343238D01*
D02*
G37*
G36*
X2090132D02*
X2067932D01*
Y360638D01*
X2090132D01*
Y343238D01*
D02*
G37*
G36*
X1898137D02*
X1875937D01*
Y360638D01*
X1898137D01*
Y343238D01*
D02*
G37*
G36*
X1868337D02*
X1846137D01*
Y360638D01*
X1868337D01*
Y343238D01*
D02*
G37*
G36*
X1676341D02*
X1654141D01*
Y360638D01*
X1676341D01*
Y343238D01*
D02*
G37*
G36*
X1646541D02*
X1624341D01*
Y360638D01*
X1646541D01*
Y343238D01*
D02*
G37*
G36*
X1454546D02*
X1432346D01*
Y360638D01*
X1454546D01*
Y343238D01*
D02*
G37*
G36*
X1424746D02*
X1402546D01*
Y360638D01*
X1424746D01*
Y343238D01*
D02*
G37*
G36*
X1232750D02*
X1210550D01*
Y360638D01*
X1232750D01*
Y343238D01*
D02*
G37*
G36*
X1202950D02*
X1180750D01*
Y360638D01*
X1202950D01*
Y343238D01*
D02*
G37*
G36*
X1010955Y320190D02*
X988755D01*
Y337590D01*
X1010955D01*
Y320190D01*
D02*
G37*
G36*
X981154D02*
X958954D01*
Y337590D01*
X981154D01*
Y320190D01*
D02*
G37*
G36*
X2341728Y318238D02*
X2319528D01*
Y335638D01*
X2341728D01*
Y318238D01*
D02*
G37*
G36*
X2311928D02*
X2289728D01*
Y335638D01*
X2311928D01*
Y318238D01*
D02*
G37*
G36*
X2119932Y318238D02*
X2097732D01*
Y335638D01*
X2119932D01*
Y318238D01*
D02*
G37*
G36*
X2090132D02*
X2067932D01*
Y335638D01*
X2090132D01*
Y318238D01*
D02*
G37*
G36*
X1898137D02*
X1875937D01*
Y335638D01*
X1898137D01*
Y318238D01*
D02*
G37*
G36*
X1868337D02*
X1846137D01*
Y335638D01*
X1868337D01*
Y318238D01*
D02*
G37*
G36*
X1676341D02*
X1654141D01*
Y335638D01*
X1676341D01*
Y318238D01*
D02*
G37*
G36*
X1646541D02*
X1624341D01*
Y335638D01*
X1646541D01*
Y318238D01*
D02*
G37*
G36*
X1454546D02*
X1432346D01*
Y335638D01*
X1454546D01*
Y318238D01*
D02*
G37*
G36*
X1424746D02*
X1402546D01*
Y335638D01*
X1424746D01*
Y318238D01*
D02*
G37*
G36*
X1232750D02*
X1210550D01*
Y335638D01*
X1232750D01*
Y318238D01*
D02*
G37*
G36*
X1202950D02*
X1180750D01*
Y335638D01*
X1202950D01*
Y318238D01*
D02*
G37*
G36*
X285808Y120310D02*
X287816Y119479D01*
X289541Y118155D01*
X290864Y116431D01*
X291695Y114423D01*
X291979Y112268D01*
X291695Y110113D01*
X290864Y108105D01*
X289541Y106381D01*
X287816Y105057D01*
X285808Y104226D01*
X283653Y103942D01*
X281498Y104226D01*
X279490Y105057D01*
X277766Y106381D01*
X276442Y108105D01*
X275611Y110113D01*
X275327Y112268D01*
X275611Y114423D01*
X276442Y116431D01*
X277766Y118155D01*
X279490Y119479D01*
X281498Y120310D01*
X283653Y120594D01*
X285808Y120310D01*
D02*
G37*
G36*
X258122D02*
X260130Y119479D01*
X261854Y118155D01*
X263178Y116431D01*
X264009Y114423D01*
X264293Y112268D01*
X264009Y110113D01*
X263178Y108105D01*
X261854Y106381D01*
X260130Y105057D01*
X258122Y104226D01*
X255967Y103942D01*
X253812Y104226D01*
X251804Y105057D01*
X250079Y106381D01*
X248756Y108105D01*
X247924Y110113D01*
X247641Y112268D01*
X247924Y114423D01*
X248756Y116431D01*
X250079Y118155D01*
X251804Y119479D01*
X253812Y120310D01*
X255967Y120594D01*
X258122Y120310D01*
D02*
G37*
G36*
X230436D02*
X232444Y119479D01*
X234168Y118155D01*
X235492Y116431D01*
X236324Y114423D01*
X236607Y112268D01*
X236324Y110113D01*
X235492Y108105D01*
X234168Y106381D01*
X232444Y105057D01*
X230436Y104226D01*
X228281Y103942D01*
X226126Y104226D01*
X224118Y105057D01*
X222393Y106381D01*
X221070Y108105D01*
X220238Y110113D01*
X219955Y112268D01*
X220238Y114423D01*
X221070Y116431D01*
X222393Y118155D01*
X224118Y119479D01*
X226126Y120310D01*
X228281Y120594D01*
X230436Y120310D01*
D02*
G37*
G36*
X202750D02*
X204758Y119479D01*
X206483Y118155D01*
X207806Y116431D01*
X208638Y114423D01*
X208921Y112268D01*
X208638Y110113D01*
X207806Y108105D01*
X206483Y106381D01*
X204758Y105057D01*
X202750Y104226D01*
X200595Y103942D01*
X198440Y104226D01*
X196432Y105057D01*
X194708Y106381D01*
X193384Y108105D01*
X192553Y110113D01*
X192269Y112268D01*
X192553Y114423D01*
X193384Y116431D01*
X194708Y118155D01*
X196432Y119479D01*
X198440Y120310D01*
X200595Y120594D01*
X202750Y120310D01*
D02*
G37*
G36*
X175064D02*
X177072Y119479D01*
X178797Y118155D01*
X180120Y116431D01*
X180951Y114423D01*
X181235Y112268D01*
X180951Y110113D01*
X180120Y108105D01*
X178797Y106381D01*
X177072Y105057D01*
X175064Y104226D01*
X172909Y103942D01*
X170754Y104226D01*
X168746Y105057D01*
X167022Y106381D01*
X165698Y108105D01*
X164867Y110113D01*
X164583Y112268D01*
X164867Y114423D01*
X165698Y116431D01*
X167022Y118155D01*
X168746Y119479D01*
X170754Y120310D01*
X172909Y120594D01*
X175064Y120310D01*
D02*
G37*
G36*
X271965Y91862D02*
X273973Y91031D01*
X275697Y89707D01*
X277021Y87983D01*
X277852Y85975D01*
X278136Y83820D01*
X277852Y81665D01*
X277021Y79657D01*
X275697Y77933D01*
X273973Y76609D01*
X271965Y75778D01*
X269810Y75494D01*
X267655Y75778D01*
X265647Y76609D01*
X263923Y77933D01*
X262599Y79657D01*
X261768Y81665D01*
X261484Y83820D01*
X261768Y85975D01*
X262599Y87983D01*
X263923Y89707D01*
X265647Y91031D01*
X267655Y91862D01*
X269810Y92146D01*
X271965Y91862D01*
D02*
G37*
G36*
X244279D02*
X246287Y91031D01*
X248011Y89707D01*
X249335Y87983D01*
X250166Y85975D01*
X250450Y83820D01*
X250166Y81665D01*
X249335Y79657D01*
X248011Y77933D01*
X246287Y76609D01*
X244279Y75778D01*
X242124Y75494D01*
X239969Y75778D01*
X237961Y76609D01*
X236236Y77933D01*
X234913Y79657D01*
X234081Y81665D01*
X233798Y83820D01*
X234081Y85975D01*
X234913Y87983D01*
X236236Y89707D01*
X237961Y91031D01*
X239969Y91862D01*
X242124Y92146D01*
X244279Y91862D01*
D02*
G37*
G36*
X216593D02*
X218601Y91031D01*
X220326Y89707D01*
X221649Y87983D01*
X222481Y85975D01*
X222764Y83820D01*
X222481Y81665D01*
X221649Y79657D01*
X220326Y77933D01*
X218601Y76609D01*
X216593Y75778D01*
X214438Y75494D01*
X212283Y75778D01*
X210275Y76609D01*
X208550Y77933D01*
X207227Y79657D01*
X206395Y81665D01*
X206112Y83820D01*
X206395Y85975D01*
X207227Y87983D01*
X208550Y89707D01*
X210275Y91031D01*
X212283Y91862D01*
X214438Y92146D01*
X216593Y91862D01*
D02*
G37*
G36*
X188907D02*
X190915Y91031D01*
X192640Y89707D01*
X193963Y87983D01*
X194795Y85975D01*
X195078Y83820D01*
X194795Y81665D01*
X193963Y79657D01*
X192640Y77933D01*
X190915Y76609D01*
X188907Y75778D01*
X186752Y75494D01*
X184597Y75778D01*
X182589Y76609D01*
X180865Y77933D01*
X179541Y79657D01*
X178710Y81665D01*
X178426Y83820D01*
X178710Y85975D01*
X179541Y87983D01*
X180865Y89707D01*
X182589Y91031D01*
X184597Y91862D01*
X186752Y92146D01*
X188907Y91862D01*
D02*
G37*
D17*
X1129031Y961080D02*
D03*
Y969080D02*
D03*
Y977080D02*
D03*
Y985080D02*
D03*
Y993080D02*
D03*
Y1001080D02*
D03*
Y1009080D02*
D03*
Y1017080D02*
D03*
Y1025080D02*
D03*
Y1033080D02*
D03*
Y1041080D02*
D03*
Y1049080D02*
D03*
Y1057080D02*
D03*
Y1065080D02*
D03*
Y1073080D02*
D03*
Y1081080D02*
D03*
X1283970D02*
D03*
Y1073080D02*
D03*
Y1065080D02*
D03*
Y1057080D02*
D03*
Y1049080D02*
D03*
Y1041080D02*
D03*
Y1033080D02*
D03*
Y1025080D02*
D03*
Y1017080D02*
D03*
Y1009080D02*
D03*
Y1001080D02*
D03*
Y993080D02*
D03*
Y985080D02*
D03*
Y977080D02*
D03*
Y969080D02*
D03*
Y961080D02*
D03*
D18*
X1146500Y1098550D02*
D03*
X1154500D02*
D03*
X1162500D02*
D03*
X1170500D02*
D03*
X1178501D02*
D03*
X1186501D02*
D03*
X1194501D02*
D03*
X1202501D02*
D03*
X1210500D02*
D03*
X1218501D02*
D03*
X1226500D02*
D03*
X1234501D02*
D03*
X1242501D02*
D03*
X1250500D02*
D03*
X1258500D02*
D03*
X1266500D02*
D03*
Y943610D02*
D03*
X1258500D02*
D03*
X1250500D02*
D03*
X1242501D02*
D03*
X1234501D02*
D03*
X1226500D02*
D03*
X1218501D02*
D03*
X1210500D02*
D03*
X1202501D02*
D03*
X1194501D02*
D03*
X1186501D02*
D03*
X1178501D02*
D03*
X1170500D02*
D03*
X1162500D02*
D03*
X1154500D02*
D03*
X1146500D02*
D03*
D19*
X2318610Y1013601D02*
D03*
X2331310D02*
D03*
X2369410D02*
D03*
X2344010D02*
D03*
X2356710D02*
D03*
X2382110D02*
D03*
X2394810D02*
D03*
X2095947D02*
D03*
X2108647D02*
D03*
X2146747D02*
D03*
X2121347D02*
D03*
X2134047D02*
D03*
X2159447D02*
D03*
X2172147D02*
D03*
X1873282D02*
D03*
X1885983D02*
D03*
X1924082D02*
D03*
X1898683D02*
D03*
X1911382D02*
D03*
X1936783D02*
D03*
X1949483D02*
D03*
X1726819D02*
D03*
X1714119D02*
D03*
X1688719D02*
D03*
X1676019D02*
D03*
X1701419D02*
D03*
X1663319D02*
D03*
X1650619D02*
D03*
D20*
X2356710Y924600D02*
D03*
X2134047D02*
D03*
X1911382D02*
D03*
X1688719D02*
D03*
D21*
X1229550Y414938D02*
D03*
X1218150D02*
D03*
X1195350D02*
D03*
X1183950D02*
D03*
X1673141Y606890D02*
D03*
X1661741D02*
D03*
X1638941D02*
D03*
X1627541D02*
D03*
X1451346Y798842D02*
D03*
X1439946D02*
D03*
X1417146D02*
D03*
X1405746D02*
D03*
X1451346Y606890D02*
D03*
X1439946D02*
D03*
X1417146D02*
D03*
X1405746D02*
D03*
X2071132Y798842D02*
D03*
X2082532D02*
D03*
X2105332D02*
D03*
X2116732D02*
D03*
X1849337Y606890D02*
D03*
X1860737D02*
D03*
X1883537D02*
D03*
X1894937D02*
D03*
X1627541Y798842D02*
D03*
X1638941D02*
D03*
X1661741D02*
D03*
X1673141D02*
D03*
X2071132Y414937D02*
D03*
X2082532D02*
D03*
X2105332D02*
D03*
X2116732D02*
D03*
Y606890D02*
D03*
X2105332D02*
D03*
X2082532D02*
D03*
X2071132D02*
D03*
X1849337Y414937D02*
D03*
X1860737D02*
D03*
X1883537D02*
D03*
X1894937D02*
D03*
X1849337Y798842D02*
D03*
X1860737D02*
D03*
X1883537D02*
D03*
X1894937D02*
D03*
X1007755Y416890D02*
D03*
X996355D02*
D03*
X973555D02*
D03*
X962154D02*
D03*
X1007755Y604938D02*
D03*
X996355D02*
D03*
X973555D02*
D03*
X962154D02*
D03*
X1451346Y414938D02*
D03*
X1439946D02*
D03*
X1417146D02*
D03*
X1405746D02*
D03*
X1229550Y606890D02*
D03*
X1218150D02*
D03*
X1195350D02*
D03*
X1183950D02*
D03*
X1673141Y414937D02*
D03*
X1661741D02*
D03*
X1638941D02*
D03*
X1627541D02*
D03*
X2292928Y798842D02*
D03*
X2304328D02*
D03*
X2327128D02*
D03*
X2338528D02*
D03*
X2292928Y414938D02*
D03*
X2304328D02*
D03*
X2327128D02*
D03*
X2338528D02*
D03*
X2292928Y606890D02*
D03*
X2304328D02*
D03*
X2327128D02*
D03*
X2338528D02*
D03*
D22*
X1206750Y339438D02*
D03*
X1650341Y531390D02*
D03*
X1428546Y723342D02*
D03*
Y531390D02*
D03*
X2093932Y723342D02*
D03*
X1872137Y531390D02*
D03*
X1650341Y723342D02*
D03*
X2093932Y339437D02*
D03*
Y531390D02*
D03*
X1872137Y339437D02*
D03*
Y723342D02*
D03*
X984955Y341390D02*
D03*
Y529438D02*
D03*
X1428546Y339438D02*
D03*
X1206750Y531390D02*
D03*
X1650341Y339437D02*
D03*
X2315728Y723342D02*
D03*
Y339438D02*
D03*
Y531390D02*
D03*
M02*
