<?xml version="1.0" encoding="UTF-8" standalone="no"?>
<svg
   xmlns:dc="http://purl.org/dc/elements/1.1/"
   xmlns:cc="http://creativecommons.org/ns#"
   xmlns:rdf="http://www.w3.org/1999/02/22-rdf-syntax-ns#"
   xmlns:svg="http://www.w3.org/2000/svg"
   xmlns="http://www.w3.org/2000/svg"
   xmlns:sodipodi="http://sodipodi.sourceforge.net/DTD/sodipodi-0.dtd"
   xmlns:inkscape="http://www.inkscape.org/namespaces/inkscape"
   sodipodi:docname="seatbelt.svg"
   inkscape:version="1.0beta1 (32d4812, 2019-09-19)"
   id="svg8"
   version="1.1"
   viewBox="0 0 210 297"
   height="297mm"
   width="210mm">
  <defs
     id="defs2" />
  <sodipodi:namedview
     inkscape:window-maximized="0"
     inkscape:window-y="23"
     inkscape:window-x="42"
     inkscape:window-height="828"
     inkscape:window-width="1440"
     inkscape:snap-global="false"
     showgrid="false"
     inkscape:document-rotation="0"
     inkscape:current-layer="layer2"
     inkscape:document-units="mm"
     inkscape:cy="593.607"
     inkscape:cx="457.46591"
     inkscape:zoom="0.90011951"
     inkscape:pageshadow="2"
     inkscape:pageopacity="0.0"
     borderopacity="1.0"
     bordercolor="#666666"
     pagecolor="#ffffff"
     id="base" />
  <metadata
     id="metadata5">
    <rdf:RDF>
      <cc:Work
         rdf:about="">
        <dc:format>image/svg+xml</dc:format>
        <dc:type
           rdf:resource="http://purl.org/dc/dcmitype/StillImage" />
        <dc:title></dc:title>
      </cc:Work>
    </rdf:RDF>
  </metadata>
  <g
     sodipodi:insensitive="true"
     style="display:inline;opacity:0.439759"
     inkscape:label="image"
     id="layer2"
     inkscape:groupmode="layer" />
  <g
     sodipodi:insensitive="true"
     id="layer1"
     inkscape:groupmode="layer"
     inkscape:label="Layer 1">
    <ellipse
       inkscape:export-ydpi="16.272137"
       inkscape:export-xdpi="16.272137"
       ry="9.7975368"
       rx="8.6060829"
       cy="114.32726"
       cx="75.456886"
       id="path109"
       style="fill:#404040;fill-opacity:1;stroke-width:0.0437506" />
    <path
       inkscape:export-ydpi="16.272137"
       inkscape:export-xdpi="16.272137"
       sodipodi:nodetypes="cccc"
       inkscape:connector-curvature="0"
       id="path113"
       d="m 59.736604,155.36404 c -1.028642,-10.12798 -0.529725,-17.92949 4.345405,-23.94048 4.118119,-5.06074 16.117965,-5.40056 21.206475,-1.49863 z"
       style="fill:#404141;fill-opacity:1;stroke:none;stroke-width:0.132291px;stroke-linecap:butt;stroke-linejoin:miter;stroke-opacity:1" />
    <path
       inkscape:export-ydpi="16.272137"
       inkscape:export-xdpi="16.272137"
       sodipodi:nodetypes="cccc"
       inkscape:connector-curvature="0"
       id="path956"
       d="m 67.416213,155.82921 21.69188,-21.69202 c 3.632829,7.77242 2.568815,15.70559 2.210008,23.94988 -7.429068,-3.08507 -15.08333,-3.2733 -23.901888,-2.25786 z"
       style="fill:#424141;fill-opacity:1;stroke:none;stroke-width:0.132291px;stroke-linecap:butt;stroke-linejoin:miter;stroke-opacity:1" />
    <path
       inkscape:export-ydpi="16.272137"
       inkscape:export-xdpi="16.272137"
       sodipodi:nodetypes="ccccc"
       inkscape:connector-curvature="0"
       id="path958"
       d="m 85.454804,129.95303 c 1.559801,1.04684 2.652555,2.56073 3.672839,4.1471 l 7.211638,-7.09613 c 1.850361,-2.99044 -1.301101,-6.08793 -3.839666,-3.95526 z"
       style="fill:#404040;fill-opacity:1;stroke:none;stroke-width:0.132291px;stroke-linecap:butt;stroke-linejoin:miter;stroke-opacity:1" />
    <path
       inkscape:export-ydpi="16.272137"
       inkscape:export-xdpi="16.272137"
       sodipodi:nodetypes="ccccc"
       inkscape:connector-curvature="0"
       id="path960"
       d="m 59.390929,155.85082 c 0.225381,3.38934 -0.718644,6.56991 -1.674133,9.77587 l -5.128323,4.64754 c -2.866125,1.87565 -5.799739,-1.25992 -3.525723,-4.16676 z"
       style="fill:#404040;fill-opacity:1;stroke:none;stroke-width:0.132291px;stroke-linecap:butt;stroke-linejoin:miter;stroke-opacity:1" />
    <path
       inkscape:export-ydpi="16.272137"
       inkscape:export-xdpi="16.272137"
       sodipodi:nodetypes="ccccc"
       inkscape:connector-curvature="0"
       id="path962"
       d="m 91.316921,158.20039 c 2.833115,1.18462 5.951667,2.93803 9.349359,6.94552 0.61725,2.2515 -1.576474,4.55328 -4.006479,3.68598 -0.986074,-1.18487 -1.980288,-2.36703 -3.525702,-3.36546 -0.490007,-2.49249 -1.799588,-5.35799 -1.817178,-7.26604 z"
       style="fill:#404040;fill-opacity:1;stroke:none;stroke-width:0.132291px;stroke-linecap:butt;stroke-linejoin:miter;stroke-opacity:1" />
    <path
       inkscape:export-ydpi="16.272137"
       inkscape:export-xdpi="16.272137"
       sodipodi:nodetypes="ccccccccc"
       inkscape:connector-curvature="0"
       id="path964"
       d="m 57.982983,165.62669 c 7.916131,-6.2087 26.863684,-6.19828 34.993599,-0.17746 2.505305,3.39492 1.186544,10.9147 -3.279442,24.41113 -1.500261,3.09496 -8.219712,2.65281 -7.941385,-2.59856 2.365288,-5.4852 3.668759,-11.23586 4.326976,-17.14783 -6.104816,-2.49605 -14.819892,-3.02258 -20.99397,0.16026 0.337831,6.57574 2.089248,12.117 4.132368,16.56113 0.972382,4.20016 -5.18481,7.39669 -7.81835,2.99061 -3.270968,-9.30049 -5.993943,-17.83695 -3.419796,-24.19928 z"
       style="fill:#404040;fill-opacity:1;stroke:none;stroke-width:0.132291px;stroke-linecap:butt;stroke-linejoin:miter;stroke-opacity:1" />
    <ellipse
       inkscape:export-ydpi="16.272137"
       inkscape:export-xdpi="16.272137"
       style="fill:#fbff11;fill-opacity:1;stroke-width:0.0437506"
       id="ellipse995"
       cx="140.01505"
       cy="114.32726"
       rx="8.6060829"
       ry="9.7975368" />
    <path
       inkscape:export-ydpi="16.272137"
       inkscape:export-xdpi="16.272137"
       style="fill:#fbff11;fill-opacity:1;stroke:none;stroke-width:0.132291px;stroke-linecap:butt;stroke-linejoin:miter;stroke-opacity:1"
       d="m 124.29505,155.36404 c -1.02865,-10.12798 -0.52973,-17.92949 4.34543,-23.94048 4.11814,-5.06074 16.11805,-5.40056 21.20662,-1.49863 z"
       id="path997"
       inkscape:connector-curvature="0"
       sodipodi:nodetypes="cccc" />
    <path
       inkscape:export-ydpi="16.272137"
       inkscape:export-xdpi="16.272137"
       style="fill:#fbff11;fill-opacity:1;stroke:none;stroke-width:0.132291px;stroke-linecap:butt;stroke-linejoin:miter;stroke-opacity:1"
       d="m 131.9747,155.82921 21.69205,-21.69202 c 3.63287,7.77242 2.56885,15.70559 2.21003,23.94988 -7.42915,-3.08507 -15.08347,-3.2733 -23.90208,-2.25786 z"
       id="path999"
       inkscape:connector-curvature="0"
       sodipodi:nodetypes="cccc" />
    <path
       inkscape:export-ydpi="16.272137"
       inkscape:export-xdpi="16.272137"
       style="fill:#fbff11;fill-opacity:1;stroke:none;stroke-width:0.132291px;stroke-linecap:butt;stroke-linejoin:miter;stroke-opacity:1"
       d="m 150.01342,129.95303 c 1.55982,1.04684 2.65259,2.56073 3.67288,4.1471 l 7.2117,-7.09613 c 1.85037,-2.99044 -1.30111,-6.08793 -3.83969,-3.95526 z"
       id="path1001"
       inkscape:connector-curvature="0"
       sodipodi:nodetypes="ccccc" />
    <path
       inkscape:export-ydpi="16.272137"
       inkscape:export-xdpi="16.272137"
       style="fill:#fbff11;fill-opacity:1;stroke:none;stroke-width:0.132291px;stroke-linecap:butt;stroke-linejoin:miter;stroke-opacity:1"
       d="m 123.94937,155.85082 c 0.22538,3.38934 -0.71865,6.56991 -1.67414,9.77587 l -5.12835,4.64754 c -2.86615,1.87565 -5.79978,-1.25992 -3.52575,-4.16676 z"
       id="path1003"
       inkscape:connector-curvature="0"
       sodipodi:nodetypes="ccccc" />
    <path
       inkscape:export-ydpi="16.272137"
       inkscape:export-xdpi="16.272137"
       style="fill:#fbff11;fill-opacity:1;stroke:none;stroke-width:0.132291px;stroke-linecap:butt;stroke-linejoin:miter;stroke-opacity:1"
       d="m 155.8756,158.20039 c 2.83314,1.18462 5.95171,2.93803 9.34942,6.94552 0.61725,2.2515 -1.57648,4.55328 -4.0065,3.68598 -0.98608,-1.18487 -1.9803,-2.36703 -3.52572,-3.36546 -0.49001,-2.49249 -1.79961,-5.35799 -1.8172,-7.26604 z"
       id="path1005"
       inkscape:connector-curvature="0"
       sodipodi:nodetypes="ccccc" />
    <path
       inkscape:export-ydpi="16.272137"
       inkscape:export-xdpi="16.272137"
       style="fill:#fbff11;fill-opacity:1;stroke:none;stroke-width:0.132291px;stroke-linecap:butt;stroke-linejoin:miter;stroke-opacity:1"
       d="m 122.54142,165.62669 c 7.91617,-6.2087 26.86385,-6.19828 34.99386,-0.17746 2.50532,3.39492 1.18655,10.9147 -3.27947,24.41113 -1.50029,3.09496 -8.21981,2.65281 -7.94148,-2.59856 2.36531,-5.4852 3.6688,-11.23586 4.32703,-17.14783 -6.10489,-2.49605 -14.82001,-3.02258 -20.99413,0.16026 0.33784,6.57574 2.08926,12.117 4.1324,16.56113 0.97238,4.20016 -5.18484,7.39669 -7.8184,2.99061 -3.27099,-9.30049 -5.99398,-17.83695 -3.41981,-24.19928 z"
       id="path1007"
       inkscape:connector-curvature="0"
       sodipodi:nodetypes="ccccccccc" />
  </g>
</svg>
