G04*
G04 #@! TF.GenerationSoftware,Altium Limited,Altium Designer,18.1.7 (191)*
G04*
G04 Layer_Color=65535*
%FSLAX44Y44*%
%MOMM*%
G71*
G01*
G75*
%ADD10C,0.2000*%
%ADD11C,1.0160*%
%ADD12C,0.2540*%
%ADD13C,0.1524*%
%ADD14C,0.2032*%
D10*
X-119382Y-95890D02*
G03*
X-95890Y-119382I-6341J-29834D01*
G01*
X16611Y152220D02*
G03*
X-16611Y152220I-16611J25580D01*
G01*
X-365580Y16611D02*
G03*
X-365580Y-16611I-25580J-16611D01*
G01*
X-16611Y-365580D02*
G03*
X16611Y-365580I16611J-25580D01*
G01*
X365580Y-16611D02*
G03*
X365580Y16611I25580J16611D01*
G01*
X-351143Y466963D02*
G03*
X-377118Y446249I-28936J9642D01*
G01*
X-573074Y-113761D02*
G03*
X-565682Y-146151I-21242J-21887D01*
G01*
X-146152Y-565681D02*
G03*
X-113762Y-573074I10503J-28635D01*
G01*
X446248Y-377119D02*
G03*
X466962Y-351144I30356J-2961D01*
G01*
X533392Y238431D02*
G03*
X518977Y268363I15839J26065D01*
G01*
X-152220Y16611D02*
G03*
X-152220Y-16611I-25580J-16611D01*
G01*
X119382Y95890D02*
G03*
X95890Y119382I6341J29834D01*
G01*
X-342555Y128769D02*
G03*
X-352821Y97172I-29461J-7894D01*
G01*
X-128769Y-342555D02*
G03*
X-97172Y-352821I7894J-29461D01*
G01*
X342555Y-128769D02*
G03*
X352821Y-97172I29461J7894D01*
G01*
X128769Y342555D02*
G03*
X97172Y352821I-7894J29461D01*
G01*
X-238430Y533392D02*
G03*
X-268363Y518977I-26065J15839D01*
G01*
X-584021Y16612D02*
G03*
X-584021Y-16611I-25580J-16611D01*
G01*
X-268364Y-518977D02*
G03*
X-238431Y-533392I3868J-30254D01*
G01*
X351143Y-466963D02*
G03*
X377118Y-446249I28936J-9642D01*
G01*
X573074Y113762D02*
G03*
X565681Y146152I21242J21887D01*
G01*
X146152Y565681D02*
G03*
X113762Y573074I-10503J28635D01*
G01*
X-95890Y119382D02*
G03*
X-119382Y95890I-29834J6341D01*
G01*
X152220Y-16611D02*
G03*
X152220Y16611I25580J16611D01*
G01*
X-285997Y228322D02*
G03*
X-305525Y201444I-30458J1596D01*
G01*
X-228322Y-285997D02*
G03*
X-201444Y-305525I-1596J-30458D01*
G01*
X285997Y-228322D02*
G03*
X305525Y-201444I30458J-1596D01*
G01*
X228322Y285997D02*
G03*
X201444Y305525I1596J30458D01*
G01*
X-113762Y573074D02*
G03*
X-146152Y565682I-21887J21242D01*
G01*
X-565681Y146152D02*
G03*
X-573074Y113762I-28635J-10503D01*
G01*
X-377119Y-446248D02*
G03*
X-351144Y-466962I-2961J-30356D01*
G01*
X238430Y-533392D02*
G03*
X268363Y-518977I26065J-15839D01*
G01*
X584021Y-16612D02*
G03*
X584021Y16611I25580J16611D01*
G01*
X268364Y518977D02*
G03*
X238431Y533392I-3868J30254D01*
G01*
X-25580Y-16611D02*
G03*
X-25580Y16611I25580J16611D01*
G01*
X95890Y-119382D02*
G03*
X119382Y-95890I29834J-6341D01*
G01*
X-201444Y305525D02*
G03*
X-228322Y285997I-28474J10930D01*
G01*
X-305525Y-201444D02*
G03*
X-285997Y-228322I-10930J-28474D01*
G01*
X201444Y-305525D02*
G03*
X228322Y-285997I28474J-10930D01*
G01*
X305525Y201444D02*
G03*
X285997Y228322I10930J28474D01*
G01*
X-518977Y268364D02*
G03*
X-533392Y238431I-30254J-3868D01*
G01*
X-466963Y-351143D02*
G03*
X-446249Y-377118I-9642J-28936D01*
G01*
X113761Y-573074D02*
G03*
X146151Y-565682I21887J-21242D01*
G01*
X565681Y-146153D02*
G03*
X573074Y-113763I28635J10503D01*
G01*
X377118Y446249D02*
G03*
X351144Y466963I2961J30356D01*
G01*
X-16611Y-152220D02*
G03*
X16611Y-152220I16611J-25580D01*
G01*
X-97172Y352821D02*
G03*
X-128769Y342555I-23703J19194D01*
G01*
X-352821Y-97172D02*
G03*
X-342555Y-128769I-19194J-23703D01*
G01*
X97172Y-352821D02*
G03*
X128769Y-342555I23703J-19194D01*
G01*
X352821Y97172D02*
G03*
X342555Y128769I19194J23703D01*
G01*
X-446248Y377118D02*
G03*
X-466963Y351144I-30356J2961D01*
G01*
X-533392Y-238430D02*
G03*
X-518977Y-268363I-15839J-26065D01*
G01*
X-16612Y-584021D02*
G03*
X16611Y-584021I16611J-25580D01*
G01*
X518977Y-268364D02*
G03*
X533391Y-238431I30254J3868D01*
G01*
X466963Y351143D02*
G03*
X446249Y377118I9642J28936D01*
G01*
X16612Y584021D02*
G03*
X-16611Y584021I-16611J25580D01*
G01*
X16611Y365580D02*
G03*
X-16611Y365580I-16611J25580D01*
G01*
X-119382Y-95890D02*
X-95890Y-119382D01*
X-132087Y-123602D02*
X-123602D01*
Y-132087D02*
Y-123602D01*
X-132087D02*
X-123602Y-132087D01*
X-127845Y-119360D02*
X-119360Y-127845D01*
X-16611Y152220D02*
X16611D01*
X0Y174800D02*
X6000Y180800D01*
X-6000D02*
X0Y174800D01*
X-6000Y180800D02*
X6000D01*
X-6000Y174800D02*
X6000D01*
X-365580Y-16611D02*
Y16611D01*
X-394160Y6000D02*
X-388160Y0D01*
X-394160Y-6000D02*
X-388160Y0D01*
X-394160Y6000D02*
X-394160Y-6000D01*
X-388160Y6000D02*
X-388160Y-6000D01*
X-16611Y-365580D02*
X16611D01*
X-6000Y-394160D02*
X0Y-388160D01*
X6000Y-394160D01*
X-6000D02*
X6000D01*
X-6000Y-388160D02*
X6000D01*
X365580Y-16611D02*
Y16611D01*
X388160Y0D02*
X394160Y-6000D01*
X388160Y0D02*
X394160Y6000D01*
Y-6000D02*
Y6000D01*
X388160Y-6000D02*
Y6000D01*
X-382900Y470518D02*
X-373518Y478000D01*
X-386641Y475209D02*
X-377259Y482691D01*
X-386641Y475209D02*
X-378209Y474259D01*
X-377259Y482691D01*
X-377118Y446249D02*
X-351143Y466963D01*
X-592727Y-129131D02*
X-590056Y-140830D01*
X-598576Y-130466D02*
X-595906Y-142165D01*
X-591391Y-134981D01*
X-598576Y-130466D02*
X-591391Y-134981D01*
X-573074Y-113761D02*
X-565682Y-146151D01*
X-140831Y-590056D02*
X-129132Y-592726D01*
X-142167Y-595906D02*
X-130467Y-598576D01*
X-134982Y-591391D02*
X-130467Y-598576D01*
X-142167Y-595906D02*
X-134982Y-591391D01*
X-146152Y-565681D02*
X-113762Y-573074D01*
X470518Y-382901D02*
X477999Y-373519D01*
X475209Y-386641D02*
X482690Y-377259D01*
X474258Y-378209D02*
X482690Y-377259D01*
X474258Y-378209D02*
X475209Y-386641D01*
X446248Y-377119D02*
X466962Y-351144D01*
X543924Y268600D02*
X549131Y257788D01*
X549330Y271203D02*
X554537Y260391D01*
X546528Y263194D02*
X549330Y271203D01*
X546528Y263194D02*
X554537Y260391D01*
X518977Y268363D02*
X533392Y238431D01*
X-152220Y-16611D02*
Y16611D01*
X-180800Y6000D02*
X-174800Y0D01*
X-180800Y-6000D02*
X-174800Y0D01*
X-180800Y-6000D02*
Y6000D01*
X-174800Y-6000D02*
Y6000D01*
X95890Y119382D02*
X119382Y95890D01*
X123602Y123602D02*
X132087D01*
X123602D02*
Y132087D01*
X132087Y123602D01*
X119360Y127845D02*
X127845Y119360D01*
X-352821Y97172D02*
X-342555Y128769D01*
X-373014Y127509D02*
X-369162Y119948D01*
X-376722Y116096D02*
X-369162Y119948D01*
X-376722Y116096D02*
X-373014Y127509D01*
X-371016Y114242D02*
X-367308Y125654D01*
X-128769Y-342555D02*
X-97172Y-352821D01*
X-127509Y-373014D02*
X-119948Y-369162D01*
X-116096Y-376722D01*
X-127509Y-373014D02*
X-116096Y-376722D01*
X-125654Y-367308D02*
X-114242Y-371016D01*
X342555Y-128769D02*
X352821Y-97172D01*
X369162Y-119948D02*
X373014Y-127508D01*
X369162Y-119948D02*
X376722Y-116096D01*
X373014Y-127508D02*
X376722Y-116096D01*
X367308Y-125654D02*
X371016Y-114242D01*
X97172Y352821D02*
X128769Y342555D01*
X119948Y369162D02*
X127508Y373014D01*
X116096Y376722D02*
X119948Y369162D01*
X116096Y376722D02*
X127508Y373014D01*
X114242Y371016D02*
X125654Y367308D01*
X-268599Y543924D02*
X-257788Y549131D01*
X-271203Y549330D02*
X-260391Y554537D01*
X-271203Y549330D02*
X-263194Y546528D01*
X-260391Y554537D01*
X-268363Y518977D02*
X-238430Y533392D01*
X-606600Y-6000D02*
X-606600Y6000D01*
X-612600Y-6000D02*
X-612600Y6000D01*
X-612600Y-6000D02*
X-606600Y0D01*
X-612600Y6000D02*
X-606600Y0D01*
X-584021Y-16611D02*
X-584021Y16612D01*
X-268600Y-543924D02*
X-257789Y-549131D01*
X-271203Y-549330D02*
X-260392Y-554537D01*
X-263194Y-546527D02*
X-260392Y-554537D01*
X-271203Y-549330D02*
X-263194Y-546527D01*
X-268364Y-518977D02*
X-238431Y-533391D01*
X373517Y-478000D02*
X382899Y-470518D01*
X377258Y-482691D02*
X386640Y-475210D01*
X378208Y-474259D02*
X386640Y-475210D01*
X377258Y-482691D02*
X378208Y-474259D01*
X351143Y-466963D02*
X377118Y-446249D01*
X590056Y140831D02*
X592726Y129132D01*
X595906Y142166D02*
X598576Y130467D01*
X591391Y134981D02*
X595906Y142166D01*
X591391Y134981D02*
X598576Y130467D01*
X565681Y146152D02*
X573074Y113762D01*
X129132Y592726D02*
X140831Y590056D01*
X130467Y598576D02*
X142166Y595906D01*
X130467Y598576D02*
X134981Y591391D01*
X142166Y595906D01*
X113762Y573074D02*
X146152Y565681D01*
X-119382Y95890D02*
X-95890Y119382D01*
X-123602Y123602D02*
Y132087D01*
X-132087Y123602D02*
X-123602D01*
X-132087D02*
X-123602Y132087D01*
X-127845Y119360D02*
X-119360Y127845D01*
X152220Y-16611D02*
Y16611D01*
X174800Y0D02*
X180800Y-6000D01*
X174800Y0D02*
X180800Y6000D01*
Y-6000D02*
Y6000D01*
X174800Y-6000D02*
Y6000D01*
X-305525Y201444D02*
X-285997Y228322D01*
X-315355Y236536D02*
X-314028Y228155D01*
X-322409Y226827D02*
X-314028Y228155D01*
X-322409Y226827D02*
X-315355Y236536D01*
X-317555Y223300D02*
X-310501Y233009D01*
X-228322Y-285997D02*
X-201444Y-305525D01*
X-236536Y-315355D02*
X-228155Y-314028D01*
X-226827Y-322409D01*
X-236536Y-315355D02*
X-226827Y-322409D01*
X-233009Y-310501D02*
X-223301Y-317555D01*
X285997Y-228322D02*
X305525Y-201444D01*
X314028Y-228155D02*
X315355Y-236536D01*
X314028Y-228155D02*
X322409Y-226827D01*
X315355Y-236536D02*
X322409Y-226827D01*
X310501Y-233009D02*
X317555Y-223301D01*
X201444Y305525D02*
X228322Y285997D01*
X228155Y314028D02*
X236535Y315355D01*
X226827Y322409D02*
X228155Y314028D01*
X226827Y322409D02*
X236535Y315355D01*
X223301Y317555D02*
X233009Y310501D01*
X-140831Y590056D02*
X-129131Y592726D01*
X-142166Y595906D02*
X-130466Y598576D01*
X-142166Y595906D02*
X-134981Y591391D01*
X-130466Y598576D01*
X-146152Y565682D02*
X-113762Y573074D01*
X-592726Y129132D02*
X-590056Y140831D01*
X-598576Y130467D02*
X-595906Y142166D01*
X-598576Y130467D02*
X-591391Y134982D01*
X-595906Y142166D02*
X-591391Y134982D01*
X-573074Y113762D02*
X-565681Y146152D01*
X-382900Y-470518D02*
X-373518Y-478000D01*
X-386641Y-475209D02*
X-377259Y-482691D01*
X-378209Y-474259D02*
X-377259Y-482691D01*
X-386641Y-475209D02*
X-378209Y-474259D01*
X-377119Y-446248D02*
X-351144Y-466962D01*
X257787Y-549131D02*
X268599Y-543925D01*
X260391Y-554537D02*
X271202Y-549330D01*
X263193Y-546528D02*
X271202Y-549330D01*
X260391Y-554537D02*
X263193Y-546528D01*
X238430Y-533392D02*
X268363Y-518977D01*
X606600Y-6001D02*
Y5999D01*
X612600Y-6001D02*
Y5999D01*
X606600Y-1D02*
X612600Y5999D01*
X606600Y-1D02*
X612600Y-6001D01*
X584021Y-16612D02*
X584021Y16611D01*
X257788Y549131D02*
X268600Y543924D01*
X260392Y554537D02*
X271203Y549330D01*
X260392Y554537D02*
X263194Y546528D01*
X271203Y549330D01*
X238431Y533392D02*
X268364Y518977D01*
X-25580Y-16611D02*
Y16611D01*
X-3000Y0D02*
X3000Y-6000D01*
X-3000Y0D02*
X3000Y6000D01*
Y-6000D02*
Y6000D01*
X-3000Y-6000D02*
Y6000D01*
X95890Y-119382D02*
X119382Y-95890D01*
X123602Y-132087D02*
Y-123602D01*
X132087D01*
X123602Y-132087D02*
X132087Y-123602D01*
X119360Y-127845D02*
X127845Y-119360D01*
X-228322Y285997D02*
X-201444Y305525D01*
X-228155Y314028D02*
X-226827Y322409D01*
X-236535Y315355D02*
X-228155Y314028D01*
X-236535Y315355D02*
X-226827Y322409D01*
X-233009Y310501D02*
X-223301Y317555D01*
X-305525Y-201444D02*
X-285997Y-228322D01*
X-322409Y-226827D02*
X-314028Y-228155D01*
X-315355Y-236535D02*
X-314028Y-228155D01*
X-322409Y-226827D02*
X-315355Y-236535D01*
X-317555Y-223301D02*
X-310501Y-233009D01*
X201444Y-305525D02*
X228322Y-285997D01*
X226827Y-322409D02*
X228155Y-314028D01*
X236535Y-315355D01*
X226827Y-322409D02*
X236535Y-315355D01*
X223301Y-317555D02*
X233009Y-310501D01*
X285997Y228322D02*
X305525Y201444D01*
X314028Y228155D02*
X322409Y226827D01*
X314028Y228155D02*
X315355Y236536D01*
X322409Y226827D01*
X310501Y233009D02*
X317555Y223301D01*
X-549131Y257788D02*
X-543924Y268600D01*
X-554537Y260392D02*
X-549330Y271203D01*
X-554537Y260392D02*
X-546528Y263194D01*
X-549330Y271203D02*
X-546528Y263194D01*
X-533392Y238431D02*
X-518977Y268364D01*
X-478000Y-373517D02*
X-470518Y-382900D01*
X-482691Y-377258D02*
X-475209Y-386640D01*
X-474259Y-378209D01*
X-482691Y-377258D02*
X-474259Y-378209D01*
X-466963Y-351143D02*
X-446249Y-377118D01*
X129131Y-592727D02*
X140830Y-590056D01*
X130466Y-598576D02*
X142165Y-595906D01*
X134981Y-591391D02*
X142165Y-595906D01*
X130466Y-598576D02*
X134981Y-591391D01*
X113761Y-573074D02*
X146151Y-565682D01*
X590056Y-140831D02*
X592726Y-129132D01*
X595905Y-142167D02*
X598576Y-130468D01*
X591391Y-134982D02*
X598576Y-130468D01*
X591391Y-134982D02*
X595905Y-142167D01*
X565681Y-146152D02*
X573074Y-113763D01*
X373518Y478000D02*
X382900Y470518D01*
X377259Y482691D02*
X386641Y475209D01*
X377259Y482691D02*
X378209Y474259D01*
X386641Y475209D01*
X351143Y466963D02*
X377118Y446249D01*
X-16611Y-152220D02*
X16611D01*
X-6000Y-180800D02*
X0Y-174800D01*
X6000Y-180800D01*
X-6000D02*
X6000D01*
X-6000Y-174800D02*
X6000D01*
X-128769Y342555D02*
X-97172Y352821D01*
X-119948Y369162D02*
X-116096Y376723D01*
X-127508Y373014D02*
X-119948Y369162D01*
X-127508Y373014D02*
X-116096Y376723D01*
X-125654Y367308D02*
X-114242Y371016D01*
X-352821Y-97172D02*
X-342555Y-128769D01*
X-376723Y-116096D02*
X-369162Y-119948D01*
X-373014Y-127508D02*
X-369162Y-119948D01*
X-376723Y-116096D02*
X-373014Y-127508D01*
X-371016Y-114242D02*
X-367308Y-125654D01*
X97172Y-352821D02*
X128769Y-342555D01*
X116096Y-376722D02*
X119948Y-369162D01*
X127508Y-373014D01*
X116096Y-376722D02*
X127508Y-373014D01*
X114242Y-371016D02*
X125654Y-367308D01*
X342555Y128769D02*
X352821Y97172D01*
X369162Y119948D02*
X376722Y116096D01*
X369162Y119948D02*
X373014Y127508D01*
X376722Y116096D01*
X367308Y125654D02*
X371016Y114242D01*
X-478000Y373518D02*
X-470518Y382900D01*
X-482691Y377259D02*
X-475209Y386641D01*
X-482691Y377259D02*
X-474259Y378209D01*
X-475209Y386641D02*
X-474259Y378209D01*
X-466963Y351144D02*
X-446248Y377118D01*
X-549131Y-257788D02*
X-543925Y-268599D01*
X-554537Y-260391D02*
X-549330Y-271203D01*
X-546528Y-263193D01*
X-554537Y-260391D02*
X-546528Y-263193D01*
X-533392Y-238430D02*
X-518977Y-268363D01*
X-6001Y-606600D02*
X5999Y-606600D01*
X-6001Y-612600D02*
X5999Y-612600D01*
X-1Y-606600D02*
X5999Y-612600D01*
X-6001Y-612600D02*
X-1Y-606600D01*
X-16612Y-584021D02*
X16611Y-584021D01*
X543924Y-268600D02*
X549131Y-257789D01*
X549330Y-271204D02*
X554537Y-260392D01*
X546527Y-263195D02*
X554537Y-260392D01*
X546527Y-263195D02*
X549330Y-271204D01*
X518977Y-268364D02*
X533391Y-238431D01*
X470518Y382900D02*
X478000Y373518D01*
X475209Y386641D02*
X482691Y377259D01*
X474259Y378209D02*
X475209Y386641D01*
X474259Y378209D02*
X482691Y377259D01*
X446249Y377118D02*
X466963Y351143D01*
X-6000Y606600D02*
X6000Y606600D01*
X-6000Y612600D02*
X6000Y612600D01*
X-6000Y612600D02*
X0Y606600D01*
X6000Y612600D01*
X-16611Y584021D02*
X16612D01*
X-16611Y365580D02*
X16611D01*
X0Y388160D02*
X6000Y394160D01*
X-6000Y394160D02*
X0Y388160D01*
X-6000Y394160D02*
X6000Y394160D01*
X-6000Y388160D02*
X6000Y388160D01*
D11*
X500380Y0D02*
G03*
X500380Y0I-500380J0D01*
G01*
X284480D02*
G03*
X284480Y0I-284480J0D01*
G01*
D12*
X-698500Y776000D02*
X-683260Y781080D01*
X-698500Y776000D02*
X-683260Y770920D01*
X683260D02*
X698500Y776000D01*
X683260Y781080D02*
X698500Y776000D01*
X-698500D02*
X-57642D01*
X49514D02*
X698500D01*
X-698500Y3040D02*
Y778540D01*
X698500Y3040D02*
Y778540D01*
D13*
X-43421Y782094D02*
X-53578D01*
Y774476D01*
X-48500Y777015D01*
X-45960D01*
X-43421Y774476D01*
Y769398D01*
X-45960Y766859D01*
X-51039D01*
X-53578Y769398D01*
X-28186Y782094D02*
X-38343D01*
Y774476D01*
X-33265Y777015D01*
X-30725D01*
X-28186Y774476D01*
Y769398D01*
X-30725Y766859D01*
X-35804D01*
X-38343Y769398D01*
X-23108Y779554D02*
X-20569Y782094D01*
X-15490D01*
X-12951Y779554D01*
Y769398D01*
X-15490Y766859D01*
X-20569D01*
X-23108Y769398D01*
Y779554D01*
X-7873D02*
X-5334Y782094D01*
X-255D01*
X2284Y779554D01*
Y769398D01*
X-255Y766859D01*
X-5334D01*
X-7873Y769398D01*
Y779554D01*
X7362Y766859D02*
Y769398D01*
X9901D01*
Y766859D01*
X7362D01*
X20058Y779554D02*
X22597Y782094D01*
X27676D01*
X30215Y779554D01*
Y769398D01*
X27676Y766859D01*
X22597D01*
X20058Y769398D01*
Y779554D01*
X35293D02*
X37832Y782094D01*
X42911D01*
X45450Y779554D01*
Y769398D01*
X42911Y766859D01*
X37832D01*
X35293Y769398D01*
Y779554D01*
D14*
X-24571Y48862D02*
Y38705D01*
X-17800D01*
X-7643Y48862D02*
X-14414D01*
Y38705D01*
X-7643D01*
X-14414Y43784D02*
X-11028D01*
X-4257Y48862D02*
Y38705D01*
X821D01*
X2514Y40398D01*
Y47169D01*
X821Y48862D01*
X-4257D01*
X12671D02*
X5899D01*
Y43784D01*
X9285Y45476D01*
X10978D01*
X12671Y43784D01*
Y40398D01*
X10978Y38705D01*
X7592D01*
X5899Y40398D01*
X16056Y48862D02*
X22827D01*
Y47169D01*
X16056Y40398D01*
Y38705D01*
X-166878Y186089D02*
Y175932D01*
X-160107D01*
X-149950Y186089D02*
X-156721D01*
Y175932D01*
X-149950D01*
X-156721Y181011D02*
X-153336D01*
X-146564Y186089D02*
Y175932D01*
X-141486D01*
X-139793Y177625D01*
Y184396D01*
X-141486Y186089D01*
X-146564D01*
X-129636D02*
X-136408D01*
Y181011D01*
X-133022Y182704D01*
X-131329D01*
X-129636Y181011D01*
Y177625D01*
X-131329Y175932D01*
X-134715D01*
X-136408Y177625D01*
X-119480Y186089D02*
X-122865Y184396D01*
X-126251Y181011D01*
Y177625D01*
X-124558Y175932D01*
X-121173D01*
X-119480Y177625D01*
Y179318D01*
X-121173Y181011D01*
X-126251D01*
X-207197Y48862D02*
Y38705D01*
X-200426D01*
X-190269Y48862D02*
X-197040D01*
Y38705D01*
X-190269D01*
X-197040Y43784D02*
X-193654D01*
X-186883Y48862D02*
Y38705D01*
X-181805D01*
X-180112Y40398D01*
Y47169D01*
X-181805Y48862D01*
X-186883D01*
X-169956D02*
X-176727D01*
Y43784D01*
X-173341Y45476D01*
X-171648D01*
X-169956Y43784D01*
Y40398D01*
X-171648Y38705D01*
X-175034D01*
X-176727Y40398D01*
X-159799Y48862D02*
X-166570D01*
Y43784D01*
X-163184Y45476D01*
X-161492D01*
X-159799Y43784D01*
Y40398D01*
X-161492Y38705D01*
X-164877D01*
X-166570Y40398D01*
X-166811Y-68994D02*
Y-79151D01*
X-160040D01*
X-149883Y-68994D02*
X-156654D01*
Y-79151D01*
X-149883D01*
X-156654Y-74072D02*
X-153268D01*
X-146497Y-68994D02*
Y-79151D01*
X-141419D01*
X-139726Y-77458D01*
Y-70687D01*
X-141419Y-68994D01*
X-146497D01*
X-129570D02*
X-136341D01*
Y-74072D01*
X-132955Y-72379D01*
X-131262D01*
X-129570Y-74072D01*
Y-77458D01*
X-131262Y-79151D01*
X-134648D01*
X-136341Y-77458D01*
X-121105Y-79151D02*
Y-68994D01*
X-126184Y-74072D01*
X-119413D01*
X-29397Y-134018D02*
Y-144175D01*
X-22626D01*
X-12469Y-134018D02*
X-19240D01*
Y-144175D01*
X-12469D01*
X-19240Y-139096D02*
X-15855D01*
X-9083Y-134018D02*
Y-144175D01*
X-4005D01*
X-2312Y-142482D01*
Y-135711D01*
X-4005Y-134018D01*
X-9083D01*
X7844D02*
X1073D01*
Y-139096D01*
X4459Y-137403D01*
X6152D01*
X7844Y-139096D01*
Y-142482D01*
X6152Y-144175D01*
X2766D01*
X1073Y-142482D01*
X11230Y-135711D02*
X12923Y-134018D01*
X16308D01*
X18001Y-135711D01*
Y-137403D01*
X16308Y-139096D01*
X14616D01*
X16308D01*
X18001Y-140789D01*
Y-142482D01*
X16308Y-144175D01*
X12923D01*
X11230Y-142482D01*
X88371Y-68906D02*
Y-79063D01*
X95143D01*
X105299Y-68906D02*
X98528D01*
Y-79063D01*
X105299D01*
X98528Y-73984D02*
X101914D01*
X108685Y-68906D02*
Y-79063D01*
X113763D01*
X115456Y-77370D01*
Y-70599D01*
X113763Y-68906D01*
X108685D01*
X125613D02*
X118842D01*
Y-73984D01*
X122227Y-72292D01*
X123920D01*
X125613Y-73984D01*
Y-77370D01*
X123920Y-79063D01*
X120534D01*
X118842Y-77370D01*
X135770Y-79063D02*
X128998D01*
X135770Y-72292D01*
Y-70599D01*
X134077Y-68906D01*
X130691D01*
X128998Y-70599D01*
X153229Y48862D02*
Y38705D01*
X160000D01*
X170157Y48862D02*
X163386D01*
Y38705D01*
X170157D01*
X163386Y43784D02*
X166772D01*
X173543Y48862D02*
Y38705D01*
X178621D01*
X180314Y40398D01*
Y47169D01*
X178621Y48862D01*
X173543D01*
X190471D02*
X183699D01*
Y43784D01*
X187085Y45476D01*
X188778D01*
X190471Y43784D01*
Y40398D01*
X188778Y38705D01*
X185392D01*
X183699Y40398D01*
X193856Y38705D02*
X197242D01*
X195549D01*
Y48862D01*
X193856Y47169D01*
X88205Y186022D02*
Y175865D01*
X94976D01*
X105133Y186022D02*
X98362D01*
Y175865D01*
X105133D01*
X98362Y180944D02*
X101748D01*
X108519Y186022D02*
Y175865D01*
X113597D01*
X115290Y177558D01*
Y184329D01*
X113597Y186022D01*
X108519D01*
X125447D02*
X118675D01*
Y180944D01*
X122061Y182637D01*
X123754D01*
X125447Y180944D01*
Y177558D01*
X123754Y175865D01*
X120368D01*
X118675Y177558D01*
X128832Y184329D02*
X130525Y186022D01*
X133911D01*
X135603Y184329D01*
Y177558D01*
X133911Y175865D01*
X130525D01*
X128832Y177558D01*
Y184329D01*
X-29397Y226662D02*
Y216505D01*
X-22626D01*
X-12469Y226662D02*
X-19240D01*
Y216505D01*
X-12469D01*
X-19240Y221584D02*
X-15855D01*
X-9083Y226662D02*
Y216505D01*
X-4005D01*
X-2312Y218198D01*
Y224969D01*
X-4005Y226662D01*
X-9083D01*
X6152Y216505D02*
Y226662D01*
X1073Y221584D01*
X7844D01*
X11230Y218198D02*
X12923Y216505D01*
X16308D01*
X18001Y218198D01*
Y224969D01*
X16308Y226662D01*
X12923D01*
X11230Y224969D01*
Y223277D01*
X12923Y221584D01*
X18001D01*
X-157159Y427830D02*
Y417673D01*
X-150388D01*
X-140231Y427830D02*
X-147002D01*
Y417673D01*
X-140231D01*
X-147002Y422752D02*
X-143617D01*
X-136845Y427830D02*
Y417673D01*
X-131767D01*
X-130074Y419366D01*
Y426137D01*
X-131767Y427830D01*
X-136845D01*
X-121610Y417673D02*
Y427830D01*
X-126689Y422752D01*
X-119917D01*
X-116532Y426137D02*
X-114839Y427830D01*
X-111454D01*
X-109761Y426137D01*
Y424445D01*
X-111454Y422752D01*
X-109761Y421059D01*
Y419366D01*
X-111454Y417673D01*
X-114839D01*
X-116532Y419366D01*
Y421059D01*
X-114839Y422752D01*
X-116532Y424445D01*
Y426137D01*
X-114839Y422752D02*
X-111454D01*
X-270443Y376268D02*
Y366111D01*
X-263672D01*
X-253515Y376268D02*
X-260286D01*
Y366111D01*
X-253515D01*
X-260286Y371190D02*
X-256901D01*
X-250129Y376268D02*
Y366111D01*
X-245051D01*
X-243358Y367804D01*
Y374575D01*
X-245051Y376268D01*
X-250129D01*
X-234894Y366111D02*
Y376268D01*
X-239973Y371190D01*
X-233202D01*
X-229816Y376268D02*
X-223045D01*
Y374575D01*
X-229816Y367804D01*
Y366111D01*
X-357057Y289654D02*
Y279497D01*
X-350286D01*
X-340129Y289654D02*
X-346900D01*
Y279497D01*
X-340129D01*
X-346900Y284576D02*
X-343515D01*
X-336743Y289654D02*
Y279497D01*
X-331665D01*
X-329972Y281190D01*
Y287961D01*
X-331665Y289654D01*
X-336743D01*
X-321508Y279497D02*
Y289654D01*
X-326587Y284576D01*
X-319816D01*
X-309659Y289654D02*
X-313044Y287961D01*
X-316430Y284576D01*
Y281190D01*
X-314737Y279497D01*
X-311352D01*
X-309659Y281190D01*
Y282883D01*
X-311352Y284576D01*
X-316430D01*
X-408365Y176624D02*
Y166467D01*
X-401594D01*
X-391437Y176624D02*
X-398208D01*
Y166467D01*
X-391437D01*
X-398208Y171546D02*
X-394823D01*
X-388051Y176624D02*
Y166467D01*
X-382973D01*
X-381280Y168160D01*
Y174931D01*
X-382973Y176624D01*
X-388051D01*
X-372816Y166467D02*
Y176624D01*
X-377895Y171546D01*
X-371124D01*
X-360967Y176624D02*
X-367738D01*
Y171546D01*
X-364352Y173239D01*
X-362659D01*
X-360967Y171546D01*
Y168160D01*
X-362659Y166467D01*
X-366045D01*
X-367738Y168160D01*
X-420557Y48862D02*
Y38705D01*
X-413786D01*
X-403629Y48862D02*
X-410400D01*
Y38705D01*
X-403629D01*
X-410400Y43784D02*
X-407015D01*
X-400243Y48862D02*
Y38705D01*
X-395165D01*
X-393472Y40398D01*
Y47169D01*
X-395165Y48862D01*
X-400243D01*
X-385008Y38705D02*
Y48862D01*
X-390087Y43784D01*
X-383316D01*
X-374851Y38705D02*
Y48862D01*
X-379930Y43784D01*
X-373159D01*
X-408365Y-66708D02*
Y-76865D01*
X-401594D01*
X-391437Y-66708D02*
X-398208D01*
Y-76865D01*
X-391437D01*
X-398208Y-71786D02*
X-394823D01*
X-388051Y-66708D02*
Y-76865D01*
X-382973D01*
X-381280Y-75172D01*
Y-68401D01*
X-382973Y-66708D01*
X-388051D01*
X-372816Y-76865D02*
Y-66708D01*
X-377895Y-71786D01*
X-371124D01*
X-367738Y-68401D02*
X-366045Y-66708D01*
X-362659D01*
X-360967Y-68401D01*
Y-70093D01*
X-362659Y-71786D01*
X-364352D01*
X-362659D01*
X-360967Y-73479D01*
Y-75172D01*
X-362659Y-76865D01*
X-366045D01*
X-367738Y-75172D01*
X-357057Y-173134D02*
Y-183291D01*
X-350286D01*
X-340129Y-173134D02*
X-346900D01*
Y-183291D01*
X-340129D01*
X-346900Y-178212D02*
X-343515D01*
X-336743Y-173134D02*
Y-183291D01*
X-331665D01*
X-329972Y-181598D01*
Y-174827D01*
X-331665Y-173134D01*
X-336743D01*
X-321508Y-183291D02*
Y-173134D01*
X-326587Y-178212D01*
X-319816D01*
X-309659Y-183291D02*
X-316430D01*
X-309659Y-176520D01*
Y-174827D01*
X-311352Y-173134D01*
X-314737D01*
X-316430Y-174827D01*
X-270443Y-260764D02*
Y-270921D01*
X-263672D01*
X-253515Y-260764D02*
X-260286D01*
Y-270921D01*
X-253515D01*
X-260286Y-265842D02*
X-256901D01*
X-250129Y-260764D02*
Y-270921D01*
X-245051D01*
X-243358Y-269228D01*
Y-262457D01*
X-245051Y-260764D01*
X-250129D01*
X-234894Y-270921D02*
Y-260764D01*
X-239973Y-265842D01*
X-233202D01*
X-229816Y-270921D02*
X-226430D01*
X-228123D01*
Y-260764D01*
X-229816Y-262457D01*
X-157159Y-321216D02*
Y-331373D01*
X-150388D01*
X-140231Y-321216D02*
X-147002D01*
Y-331373D01*
X-140231D01*
X-147002Y-326294D02*
X-143617D01*
X-136845Y-321216D02*
Y-331373D01*
X-131767D01*
X-130074Y-329680D01*
Y-322909D01*
X-131767Y-321216D01*
X-136845D01*
X-121610Y-331373D02*
Y-321216D01*
X-126689Y-326294D01*
X-119917D01*
X-116532Y-322909D02*
X-114839Y-321216D01*
X-111454D01*
X-109761Y-322909D01*
Y-329680D01*
X-111454Y-331373D01*
X-114839D01*
X-116532Y-329680D01*
Y-322909D01*
X-29397Y-347378D02*
Y-357535D01*
X-22626D01*
X-12469Y-347378D02*
X-19240D01*
Y-357535D01*
X-12469D01*
X-19240Y-352456D02*
X-15855D01*
X-9083Y-347378D02*
Y-357535D01*
X-4005D01*
X-2312Y-355842D01*
Y-349071D01*
X-4005Y-347378D01*
X-9083D01*
X1073Y-349071D02*
X2766Y-347378D01*
X6152D01*
X7844Y-349071D01*
Y-350764D01*
X6152Y-352456D01*
X4459D01*
X6152D01*
X7844Y-354149D01*
Y-355842D01*
X6152Y-357535D01*
X2766D01*
X1073Y-355842D01*
X11230D02*
X12923Y-357535D01*
X16308D01*
X18001Y-355842D01*
Y-349071D01*
X16308Y-347378D01*
X12923D01*
X11230Y-349071D01*
Y-350764D01*
X12923Y-352456D01*
X18001D01*
X86173Y-321216D02*
Y-331373D01*
X92944D01*
X103101Y-321216D02*
X96330D01*
Y-331373D01*
X103101D01*
X96330Y-326294D02*
X99715D01*
X106487Y-321216D02*
Y-331373D01*
X111565D01*
X113258Y-329680D01*
Y-322909D01*
X111565Y-321216D01*
X106487D01*
X116643Y-322909D02*
X118336Y-321216D01*
X121722D01*
X123414Y-322909D01*
Y-324602D01*
X121722Y-326294D01*
X120029D01*
X121722D01*
X123414Y-327987D01*
Y-329680D01*
X121722Y-331373D01*
X118336D01*
X116643Y-329680D01*
X126800Y-322909D02*
X128493Y-321216D01*
X131878D01*
X133571Y-322909D01*
Y-324602D01*
X131878Y-326294D01*
X133571Y-327987D01*
Y-329680D01*
X131878Y-331373D01*
X128493D01*
X126800Y-329680D01*
Y-327987D01*
X128493Y-326294D01*
X126800Y-324602D01*
Y-322909D01*
X128493Y-326294D02*
X131878D01*
X192345Y-260764D02*
Y-270921D01*
X199116D01*
X209273Y-260764D02*
X202502D01*
Y-270921D01*
X209273D01*
X202502Y-265842D02*
X205888D01*
X212659Y-260764D02*
Y-270921D01*
X217737D01*
X219430Y-269228D01*
Y-262457D01*
X217737Y-260764D01*
X212659D01*
X222815Y-262457D02*
X224508Y-260764D01*
X227894D01*
X229587Y-262457D01*
Y-264149D01*
X227894Y-265842D01*
X226201D01*
X227894D01*
X229587Y-267535D01*
Y-269228D01*
X227894Y-270921D01*
X224508D01*
X222815Y-269228D01*
X232972Y-260764D02*
X239743D01*
Y-262457D01*
X232972Y-269228D01*
Y-270921D01*
X279975Y-173134D02*
Y-183291D01*
X286746D01*
X296903Y-173134D02*
X290132D01*
Y-183291D01*
X296903D01*
X290132Y-178212D02*
X293517D01*
X300289Y-173134D02*
Y-183291D01*
X305367D01*
X307060Y-181598D01*
Y-174827D01*
X305367Y-173134D01*
X300289D01*
X310445Y-174827D02*
X312138Y-173134D01*
X315524D01*
X317216Y-174827D01*
Y-176520D01*
X315524Y-178212D01*
X313831D01*
X315524D01*
X317216Y-179905D01*
Y-181598D01*
X315524Y-183291D01*
X312138D01*
X310445Y-181598D01*
X327373Y-173134D02*
X323988Y-174827D01*
X320602Y-178212D01*
Y-181598D01*
X322295Y-183291D01*
X325681D01*
X327373Y-181598D01*
Y-179905D01*
X325681Y-178212D01*
X320602D01*
X340427Y-66708D02*
Y-76865D01*
X347198D01*
X357355Y-66708D02*
X350584D01*
Y-76865D01*
X357355D01*
X350584Y-71786D02*
X353969D01*
X360741Y-66708D02*
Y-76865D01*
X365819D01*
X367512Y-75172D01*
Y-68401D01*
X365819Y-66708D01*
X360741D01*
X370897Y-68401D02*
X372590Y-66708D01*
X375976D01*
X377668Y-68401D01*
Y-70093D01*
X375976Y-71786D01*
X374283D01*
X375976D01*
X377668Y-73479D01*
Y-75172D01*
X375976Y-76865D01*
X372590D01*
X370897Y-75172D01*
X387825Y-66708D02*
X381054D01*
Y-71786D01*
X384440Y-70093D01*
X386133D01*
X387825Y-71786D01*
Y-75172D01*
X386133Y-76865D01*
X382747D01*
X381054Y-75172D01*
X366613Y48817D02*
Y38660D01*
X373384D01*
X383540Y48817D02*
X376769D01*
Y38660D01*
X383540D01*
X376769Y43738D02*
X380155D01*
X386926Y48817D02*
Y38660D01*
X392005D01*
X393697Y40353D01*
Y47124D01*
X392005Y48817D01*
X386926D01*
X397083Y47124D02*
X398776Y48817D01*
X402161D01*
X403854Y47124D01*
Y45431D01*
X402161Y43738D01*
X400468D01*
X402161D01*
X403854Y42046D01*
Y40353D01*
X402161Y38660D01*
X398776D01*
X397083Y40353D01*
X412318Y38660D02*
Y48817D01*
X407240Y43738D01*
X414011D01*
X340427Y176624D02*
Y166467D01*
X347198D01*
X357355Y176624D02*
X350584D01*
Y166467D01*
X357355D01*
X350584Y171546D02*
X353969D01*
X360741Y176624D02*
Y166467D01*
X365819D01*
X367512Y168160D01*
Y174931D01*
X365819Y176624D01*
X360741D01*
X370897Y174931D02*
X372590Y176624D01*
X375976D01*
X377668Y174931D01*
Y173239D01*
X375976Y171546D01*
X374283D01*
X375976D01*
X377668Y169853D01*
Y168160D01*
X375976Y166467D01*
X372590D01*
X370897Y168160D01*
X381054Y174931D02*
X382747Y176624D01*
X386133D01*
X387825Y174931D01*
Y173239D01*
X386133Y171546D01*
X384440D01*
X386133D01*
X387825Y169853D01*
Y168160D01*
X386133Y166467D01*
X382747D01*
X381054Y168160D01*
X279975Y289654D02*
Y279497D01*
X286746D01*
X296903Y289654D02*
X290132D01*
Y279497D01*
X296903D01*
X290132Y284576D02*
X293517D01*
X300289Y289654D02*
Y279497D01*
X305367D01*
X307060Y281190D01*
Y287961D01*
X305367Y289654D01*
X300289D01*
X310445Y287961D02*
X312138Y289654D01*
X315524D01*
X317216Y287961D01*
Y286269D01*
X315524Y284576D01*
X313831D01*
X315524D01*
X317216Y282883D01*
Y281190D01*
X315524Y279497D01*
X312138D01*
X310445Y281190D01*
X327373Y279497D02*
X320602D01*
X327373Y286269D01*
Y287961D01*
X325681Y289654D01*
X322295D01*
X320602Y287961D01*
X192345Y376268D02*
Y366111D01*
X199116D01*
X209273Y376268D02*
X202502D01*
Y366111D01*
X209273D01*
X202502Y371190D02*
X205888D01*
X212659Y376268D02*
Y366111D01*
X217737D01*
X219430Y367804D01*
Y374575D01*
X217737Y376268D01*
X212659D01*
X222815Y374575D02*
X224508Y376268D01*
X227894D01*
X229587Y374575D01*
Y372882D01*
X227894Y371190D01*
X226201D01*
X227894D01*
X229587Y369497D01*
Y367804D01*
X227894Y366111D01*
X224508D01*
X222815Y367804D01*
X232972Y366111D02*
X236358D01*
X234665D01*
Y376268D01*
X232972Y374575D01*
X86173Y427830D02*
Y417673D01*
X92944D01*
X103101Y427830D02*
X96330D01*
Y417673D01*
X103101D01*
X96330Y422752D02*
X99715D01*
X106487Y427830D02*
Y417673D01*
X111565D01*
X113258Y419366D01*
Y426137D01*
X111565Y427830D01*
X106487D01*
X116643Y426137D02*
X118336Y427830D01*
X121722D01*
X123414Y426137D01*
Y424445D01*
X121722Y422752D01*
X120029D01*
X121722D01*
X123414Y421059D01*
Y419366D01*
X121722Y417673D01*
X118336D01*
X116643Y419366D01*
X126800Y426137D02*
X128493Y427830D01*
X131878D01*
X133571Y426137D01*
Y419366D01*
X131878Y417673D01*
X128493D01*
X126800Y419366D01*
Y426137D01*
X-29397Y440022D02*
Y429865D01*
X-22626D01*
X-12469Y440022D02*
X-19240D01*
Y429865D01*
X-12469D01*
X-19240Y434944D02*
X-15855D01*
X-9083Y440022D02*
Y429865D01*
X-4005D01*
X-2312Y431558D01*
Y438329D01*
X-4005Y440022D01*
X-9083D01*
X7844Y429865D02*
X1073D01*
X7844Y436637D01*
Y438329D01*
X6152Y440022D01*
X2766D01*
X1073Y438329D01*
X11230Y431558D02*
X12923Y429865D01*
X16308D01*
X18001Y431558D01*
Y438329D01*
X16308Y440022D01*
X12923D01*
X11230Y438329D01*
Y436637D01*
X12923Y434944D01*
X18001D01*
X-170113Y648048D02*
Y637891D01*
X-163342D01*
X-153185Y648048D02*
X-159956D01*
Y637891D01*
X-153185D01*
X-159956Y642970D02*
X-156571D01*
X-149799Y648048D02*
Y637891D01*
X-144721D01*
X-143028Y639584D01*
Y646355D01*
X-144721Y648048D01*
X-149799D01*
X-132872Y637891D02*
X-139643D01*
X-132872Y644662D01*
Y646355D01*
X-134564Y648048D01*
X-137950D01*
X-139643Y646355D01*
X-129486D02*
X-127793Y648048D01*
X-124408D01*
X-122715Y646355D01*
Y644662D01*
X-124408Y642970D01*
X-122715Y641277D01*
Y639584D01*
X-124408Y637891D01*
X-127793D01*
X-129486Y639584D01*
Y641277D01*
X-127793Y642970D01*
X-129486Y644662D01*
Y646355D01*
X-127793Y642970D02*
X-124408D01*
X-303209Y607154D02*
Y596997D01*
X-296438D01*
X-286281Y607154D02*
X-293052D01*
Y596997D01*
X-286281D01*
X-293052Y602076D02*
X-289667D01*
X-282895Y607154D02*
Y596997D01*
X-277817D01*
X-276124Y598690D01*
Y605461D01*
X-277817Y607154D01*
X-282895D01*
X-265968Y596997D02*
X-272739D01*
X-265968Y603769D01*
Y605461D01*
X-267660Y607154D01*
X-271046D01*
X-272739Y605461D01*
X-262582Y607154D02*
X-255811D01*
Y605461D01*
X-262582Y598690D01*
Y596997D01*
X-420787Y536771D02*
Y526614D01*
X-414016D01*
X-403859Y536771D02*
X-410630D01*
Y526614D01*
X-403859D01*
X-410630Y531693D02*
X-407245D01*
X-400474Y536771D02*
Y526614D01*
X-395395D01*
X-393702Y528307D01*
Y535078D01*
X-395395Y536771D01*
X-400474D01*
X-383546Y526614D02*
X-390317D01*
X-383546Y533385D01*
Y535078D01*
X-385238Y536771D01*
X-388624D01*
X-390317Y535078D01*
X-373389Y536771D02*
X-376775Y535078D01*
X-380160Y531693D01*
Y528307D01*
X-378467Y526614D01*
X-375082D01*
X-373389Y528307D01*
Y530000D01*
X-375082Y531693D01*
X-380160D01*
X-517331Y440276D02*
Y430119D01*
X-510560D01*
X-500403Y440276D02*
X-507174D01*
Y430119D01*
X-500403D01*
X-507174Y435198D02*
X-503788D01*
X-497017Y440276D02*
Y430119D01*
X-491939D01*
X-490246Y431812D01*
Y438583D01*
X-491939Y440276D01*
X-497017D01*
X-480089Y430119D02*
X-486861D01*
X-480089Y436890D01*
Y438583D01*
X-481782Y440276D01*
X-485168D01*
X-486861Y438583D01*
X-469933Y440276D02*
X-476704D01*
Y435198D01*
X-473318Y436890D01*
X-471626D01*
X-469933Y435198D01*
Y431812D01*
X-471626Y430119D01*
X-475011D01*
X-476704Y431812D01*
X-587943Y322420D02*
Y312263D01*
X-581172D01*
X-571015Y322420D02*
X-577786D01*
Y312263D01*
X-571015D01*
X-577786Y317342D02*
X-574400D01*
X-567629Y322420D02*
Y312263D01*
X-562551D01*
X-560858Y313956D01*
Y320727D01*
X-562551Y322420D01*
X-567629D01*
X-550701Y312263D02*
X-557473D01*
X-550701Y319035D01*
Y320727D01*
X-552394Y322420D01*
X-555780D01*
X-557473Y320727D01*
X-542238Y312263D02*
Y322420D01*
X-547316Y317342D01*
X-540545D01*
X-628837Y189324D02*
Y179167D01*
X-622066D01*
X-611909Y189324D02*
X-618680D01*
Y179167D01*
X-611909D01*
X-618680Y184246D02*
X-615294D01*
X-608523Y189324D02*
Y179167D01*
X-603445D01*
X-601752Y180860D01*
Y187631D01*
X-603445Y189324D01*
X-608523D01*
X-591595Y179167D02*
X-598367D01*
X-591595Y185938D01*
Y187631D01*
X-593288Y189324D01*
X-596674D01*
X-598367Y187631D01*
X-588210D02*
X-586517Y189324D01*
X-583131D01*
X-581439Y187631D01*
Y185938D01*
X-583131Y184246D01*
X-584824D01*
X-583131D01*
X-581439Y182553D01*
Y180860D01*
X-583131Y179167D01*
X-586517D01*
X-588210Y180860D01*
X-638997Y48862D02*
Y38705D01*
X-632226D01*
X-622069Y48862D02*
X-628840D01*
Y38705D01*
X-622069D01*
X-628840Y43784D02*
X-625454D01*
X-618683Y48862D02*
Y38705D01*
X-613605D01*
X-611912Y40398D01*
Y47169D01*
X-613605Y48862D01*
X-618683D01*
X-601755Y38705D02*
X-608527D01*
X-601755Y45476D01*
Y47169D01*
X-603448Y48862D01*
X-606834D01*
X-608527Y47169D01*
X-591599Y38705D02*
X-598370D01*
X-591599Y45476D01*
Y47169D01*
X-593292Y48862D01*
X-596677D01*
X-598370Y47169D01*
X-628837Y-82964D02*
Y-93121D01*
X-622066D01*
X-611909Y-82964D02*
X-618680D01*
Y-93121D01*
X-611909D01*
X-618680Y-88042D02*
X-615294D01*
X-608523Y-82964D02*
Y-93121D01*
X-603445D01*
X-601752Y-91428D01*
Y-84657D01*
X-603445Y-82964D01*
X-608523D01*
X-591595Y-93121D02*
X-598367D01*
X-591595Y-86349D01*
Y-84657D01*
X-593288Y-82964D01*
X-596674D01*
X-598367Y-84657D01*
X-588210Y-93121D02*
X-584824D01*
X-586517D01*
Y-82964D01*
X-588210Y-84657D01*
X-587943Y-208694D02*
Y-218851D01*
X-581172D01*
X-571015Y-208694D02*
X-577786D01*
Y-218851D01*
X-571015D01*
X-577786Y-213772D02*
X-574400D01*
X-567629Y-208694D02*
Y-218851D01*
X-562551D01*
X-560858Y-217158D01*
Y-210387D01*
X-562551Y-208694D01*
X-567629D01*
X-550701Y-218851D02*
X-557473D01*
X-550701Y-212080D01*
Y-210387D01*
X-552394Y-208694D01*
X-555780D01*
X-557473Y-210387D01*
X-547316D02*
X-545623Y-208694D01*
X-542238D01*
X-540545Y-210387D01*
Y-217158D01*
X-542238Y-218851D01*
X-545623D01*
X-547316Y-217158D01*
Y-210387D01*
X-517331Y-323248D02*
Y-333405D01*
X-510560D01*
X-500403Y-323248D02*
X-507174D01*
Y-333405D01*
X-500403D01*
X-507174Y-328326D02*
X-503788D01*
X-497017Y-323248D02*
Y-333405D01*
X-491939D01*
X-490246Y-331712D01*
Y-324941D01*
X-491939Y-323248D01*
X-497017D01*
X-486861Y-333405D02*
X-483475D01*
X-485168D01*
Y-323248D01*
X-486861Y-324941D01*
X-478397Y-331712D02*
X-476704Y-333405D01*
X-473318D01*
X-471626Y-331712D01*
Y-324941D01*
X-473318Y-323248D01*
X-476704D01*
X-478397Y-324941D01*
Y-326633D01*
X-476704Y-328326D01*
X-471626D01*
X-420811Y-420530D02*
Y-430687D01*
X-414040D01*
X-403883Y-420530D02*
X-410654D01*
Y-430687D01*
X-403883D01*
X-410654Y-425608D02*
X-407268D01*
X-400497Y-420530D02*
Y-430687D01*
X-395419D01*
X-393726Y-428994D01*
Y-422223D01*
X-395419Y-420530D01*
X-400497D01*
X-390341Y-430687D02*
X-386955D01*
X-388648D01*
Y-420530D01*
X-390341Y-422223D01*
X-381877D02*
X-380184Y-420530D01*
X-376798D01*
X-375106Y-422223D01*
Y-423915D01*
X-376798Y-425608D01*
X-375106Y-427301D01*
Y-428994D01*
X-376798Y-430687D01*
X-380184D01*
X-381877Y-428994D01*
Y-427301D01*
X-380184Y-425608D01*
X-381877Y-423915D01*
Y-422223D01*
X-380184Y-425608D02*
X-376798D01*
X-303060Y-495855D02*
Y-506012D01*
X-296289D01*
X-286132Y-495855D02*
X-292903D01*
Y-506012D01*
X-286132D01*
X-292903Y-500933D02*
X-289517D01*
X-282746Y-495855D02*
Y-506012D01*
X-277668D01*
X-275975Y-504319D01*
Y-497547D01*
X-277668Y-495855D01*
X-282746D01*
X-272589Y-506012D02*
X-269204D01*
X-270897D01*
Y-495855D01*
X-272589Y-497547D01*
X-264126Y-495855D02*
X-257355D01*
Y-497547D01*
X-264126Y-504319D01*
Y-506012D01*
X-170236Y-545509D02*
Y-555666D01*
X-163465D01*
X-153309Y-545509D02*
X-160080D01*
Y-555666D01*
X-153309D01*
X-160080Y-550587D02*
X-156694D01*
X-149923Y-545509D02*
Y-555666D01*
X-144845D01*
X-143152Y-553973D01*
Y-547202D01*
X-144845Y-545509D01*
X-149923D01*
X-139766Y-555666D02*
X-136381D01*
X-138074D01*
Y-545509D01*
X-139766Y-547202D01*
X-124531Y-545509D02*
X-127917Y-547202D01*
X-131302Y-550587D01*
Y-553973D01*
X-129610Y-555666D01*
X-126224D01*
X-124531Y-553973D01*
Y-552280D01*
X-126224Y-550587D01*
X-131302D01*
X-29397Y-565818D02*
Y-575975D01*
X-22626D01*
X-12469Y-565818D02*
X-19240D01*
Y-575975D01*
X-12469D01*
X-19240Y-570896D02*
X-15854D01*
X-9083Y-565818D02*
Y-575975D01*
X-4005D01*
X-2312Y-574282D01*
Y-567511D01*
X-4005Y-565818D01*
X-9083D01*
X1073Y-575975D02*
X4459D01*
X2766D01*
Y-565818D01*
X1073Y-567511D01*
X16309Y-565818D02*
X9537D01*
Y-570896D01*
X12923Y-569203D01*
X14616D01*
X16309Y-570896D01*
Y-574282D01*
X14616Y-575975D01*
X11230D01*
X9537Y-574282D01*
X102299Y-545509D02*
Y-555666D01*
X109070D01*
X119227Y-545509D02*
X112456D01*
Y-555666D01*
X119227D01*
X112456Y-550587D02*
X115842D01*
X122613Y-545509D02*
Y-555666D01*
X127691D01*
X129384Y-553973D01*
Y-547202D01*
X127691Y-545509D01*
X122613D01*
X132769Y-555666D02*
X136155D01*
X134462D01*
Y-545509D01*
X132769Y-547202D01*
X146312Y-555666D02*
Y-545509D01*
X141233Y-550587D01*
X148004D01*
X228076Y-495820D02*
Y-505977D01*
X234847D01*
X245003Y-495820D02*
X238232D01*
Y-505977D01*
X245003D01*
X238232Y-500899D02*
X241618D01*
X248389Y-495820D02*
Y-505977D01*
X253467D01*
X255160Y-504284D01*
Y-497513D01*
X253467Y-495820D01*
X248389D01*
X258546Y-505977D02*
X261931D01*
X260238D01*
Y-495820D01*
X258546Y-497513D01*
X267010D02*
X268702Y-495820D01*
X272088D01*
X273781Y-497513D01*
Y-499206D01*
X272088Y-500899D01*
X270395D01*
X272088D01*
X273781Y-502591D01*
Y-504284D01*
X272088Y-505977D01*
X268702D01*
X267010Y-504284D01*
X342459Y-420530D02*
Y-430687D01*
X349230D01*
X359387Y-420530D02*
X352616D01*
Y-430687D01*
X359387D01*
X352616Y-425608D02*
X356002D01*
X362773Y-420530D02*
Y-430687D01*
X367851D01*
X369544Y-428994D01*
Y-422223D01*
X367851Y-420530D01*
X362773D01*
X372929Y-430687D02*
X376315D01*
X374622D01*
Y-420530D01*
X372929Y-422223D01*
X388164Y-430687D02*
X381393D01*
X388164Y-423915D01*
Y-422223D01*
X386472Y-420530D01*
X383086D01*
X381393Y-422223D01*
X439741Y-323248D02*
Y-333405D01*
X446512D01*
X456669Y-323248D02*
X449898D01*
Y-333405D01*
X456669D01*
X449898Y-328326D02*
X453284D01*
X460055Y-323248D02*
Y-333405D01*
X465133D01*
X466826Y-331712D01*
Y-324941D01*
X465133Y-323248D01*
X460055D01*
X470211Y-333405D02*
X473597D01*
X471904D01*
Y-323248D01*
X470211Y-324941D01*
X478675Y-333405D02*
X482061D01*
X480368D01*
Y-323248D01*
X478675Y-324941D01*
X515066Y-208799D02*
Y-218955D01*
X521837D01*
X531994Y-208799D02*
X525223D01*
Y-218955D01*
X531994D01*
X525223Y-213877D02*
X528608D01*
X535379Y-208799D02*
Y-218955D01*
X540458D01*
X542151Y-217263D01*
Y-210492D01*
X540458Y-208799D01*
X535379D01*
X545536Y-218955D02*
X548922D01*
X547229D01*
Y-208799D01*
X545536Y-210492D01*
X554000D02*
X555693Y-208799D01*
X559078D01*
X560771Y-210492D01*
Y-217263D01*
X559078Y-218955D01*
X555693D01*
X554000Y-217263D01*
Y-210492D01*
X564709Y-82964D02*
Y-93121D01*
X571480D01*
X581637Y-82964D02*
X574866D01*
Y-93121D01*
X581637D01*
X574866Y-88042D02*
X578251D01*
X585023Y-82964D02*
Y-93121D01*
X590101D01*
X591794Y-91428D01*
Y-84657D01*
X590101Y-82964D01*
X585023D01*
X595179Y-91428D02*
X596872Y-93121D01*
X600258D01*
X601950Y-91428D01*
Y-84657D01*
X600258Y-82964D01*
X596872D01*
X595179Y-84657D01*
Y-86349D01*
X596872Y-88042D01*
X601950D01*
X585029Y48862D02*
Y38705D01*
X591800D01*
X601957Y48862D02*
X595186D01*
Y38705D01*
X601957D01*
X595186Y43784D02*
X598572D01*
X605343Y48862D02*
Y38705D01*
X610421D01*
X612114Y40398D01*
Y47169D01*
X610421Y48862D01*
X605343D01*
X615499Y47169D02*
X617192Y48862D01*
X620578D01*
X622271Y47169D01*
Y45476D01*
X620578Y43784D01*
X622271Y42091D01*
Y40398D01*
X620578Y38705D01*
X617192D01*
X615499Y40398D01*
Y42091D01*
X617192Y43784D01*
X615499Y45476D01*
Y47169D01*
X617192Y43784D02*
X620578D01*
X564709Y189324D02*
Y179167D01*
X571480D01*
X581637Y189324D02*
X574866D01*
Y179167D01*
X581637D01*
X574866Y184246D02*
X578251D01*
X585023Y189324D02*
Y179167D01*
X590101D01*
X591794Y180860D01*
Y187631D01*
X590101Y189324D01*
X585023D01*
X595179D02*
X601950D01*
Y187631D01*
X595179Y180860D01*
Y179167D01*
X515179Y322420D02*
Y312263D01*
X521950D01*
X532107Y322420D02*
X525336D01*
Y312263D01*
X532107D01*
X525336Y317342D02*
X528722D01*
X535493Y322420D02*
Y312263D01*
X540571D01*
X542264Y313956D01*
Y320727D01*
X540571Y322420D01*
X535493D01*
X552421D02*
X549035Y320727D01*
X545649Y317342D01*
Y313956D01*
X547342Y312263D01*
X550728D01*
X552421Y313956D01*
Y315649D01*
X550728Y317342D01*
X545649D01*
X439716Y440252D02*
Y430095D01*
X446487D01*
X456644Y440252D02*
X449873D01*
Y430095D01*
X456644D01*
X449873Y435174D02*
X453258D01*
X460029Y440252D02*
Y430095D01*
X465108D01*
X466801Y431788D01*
Y438559D01*
X465108Y440252D01*
X460029D01*
X476957D02*
X470186D01*
Y435174D01*
X473572Y436867D01*
X475265D01*
X476957Y435174D01*
Y431788D01*
X475265Y430095D01*
X471879D01*
X470186Y431788D01*
X342459Y536796D02*
Y526639D01*
X349230D01*
X359387Y536796D02*
X352616D01*
Y526639D01*
X359387D01*
X352616Y531718D02*
X356002D01*
X362773Y536796D02*
Y526639D01*
X367851D01*
X369544Y528332D01*
Y535103D01*
X367851Y536796D01*
X362773D01*
X378008Y526639D02*
Y536796D01*
X372929Y531718D01*
X379701D01*
X228159Y607154D02*
Y596997D01*
X234930D01*
X245087Y607154D02*
X238316D01*
Y596997D01*
X245087D01*
X238316Y602076D02*
X241702D01*
X248473Y607154D02*
Y596997D01*
X253551D01*
X255244Y598690D01*
Y605461D01*
X253551Y607154D01*
X248473D01*
X258629Y605461D02*
X260322Y607154D01*
X263708D01*
X265401Y605461D01*
Y603769D01*
X263708Y602076D01*
X262015D01*
X263708D01*
X265401Y600383D01*
Y598690D01*
X263708Y596997D01*
X260322D01*
X258629Y598690D01*
X102429Y648048D02*
Y637891D01*
X109200D01*
X119357Y648048D02*
X112586D01*
Y637891D01*
X119357D01*
X112586Y642970D02*
X115971D01*
X122743Y648048D02*
Y637891D01*
X127821D01*
X129514Y639584D01*
Y646355D01*
X127821Y648048D01*
X122743D01*
X139670Y637891D02*
X132899D01*
X139670Y644662D01*
Y646355D01*
X137978Y648048D01*
X134592D01*
X132899Y646355D01*
X-20000Y660157D02*
Y650000D01*
X-13229D01*
X-3072Y660157D02*
X-9843D01*
Y650000D01*
X-3072D01*
X-9843Y655078D02*
X-6458D01*
X313Y660157D02*
Y650000D01*
X5392D01*
X7085Y651693D01*
Y658464D01*
X5392Y660157D01*
X313D01*
X10470Y650000D02*
X13856D01*
X12163D01*
Y660157D01*
X10470Y658464D01*
M02*
