G04*
G04 #@! TF.GenerationSoftware,Altium Limited,Altium Designer,18.1.7 (191)*
G04*
G04 Layer_Color=32768*
%FSLAX44Y44*%
%MOMM*%
G71*
G01*
G75*
%ADD81C,0.0500*%
D81*
X492300Y-254000D02*
X498300D01*
X495300Y-257000D02*
Y-251000D01*
X472300Y-265500D02*
X518300D01*
X472300Y-242500D02*
X518300D01*
X472300Y-265500D02*
Y-242500D01*
X518300Y-265500D02*
Y-242500D01*
X0Y-561800D02*
Y-555800D01*
X-3000Y-558800D02*
X3000D01*
X-11500Y-581800D02*
Y-535800D01*
X11500Y-581800D02*
Y-535800D01*
X-11500D02*
X11500D01*
X-11500Y-581800D02*
X11500D01*
X-498300Y-254000D02*
X-492300D01*
X-495300Y-257000D02*
Y-251000D01*
X-518300Y-242500D02*
X-472300D01*
X-518300Y-265500D02*
X-472300D01*
Y-242500D01*
X-518300Y-265500D02*
Y-242500D01*
X-450114Y339900D02*
Y345900D01*
X-453114Y342900D02*
X-447114D01*
X-438614Y319900D02*
Y365900D01*
X-461614Y319900D02*
Y365900D01*
Y319900D02*
X-438614D01*
X-461614Y365900D02*
X-438614D01*
X-127000Y454200D02*
Y460200D01*
X-130000Y457200D02*
X-124000D01*
X-115500Y434200D02*
Y480200D01*
X-138500Y434200D02*
Y480200D01*
Y434200D02*
X-115500D01*
X-138500Y480200D02*
X-115500D01*
X314500Y114300D02*
X320500D01*
X317500Y111300D02*
Y117300D01*
X294500Y102800D02*
X340500D01*
X294500Y125800D02*
X340500D01*
X294500Y102800D02*
Y125800D01*
X340500Y102800D02*
Y125800D01*
X73200Y-355600D02*
X79200D01*
X76200Y-358600D02*
Y-352600D01*
X53200Y-367100D02*
X99200D01*
X53200Y-344100D02*
X99200D01*
X53200Y-367100D02*
Y-344100D01*
X99200Y-367100D02*
Y-344100D01*
X-320500Y-114300D02*
X-314500D01*
X-317500Y-117300D02*
Y-111300D01*
X-340500Y-102800D02*
X-294500D01*
X-340500Y-125800D02*
X-294500D01*
Y-102800D01*
X-340500Y-125800D02*
Y-102800D01*
X-114300Y289100D02*
Y295100D01*
X-117300Y292100D02*
X-111300D01*
X-102800Y269100D02*
Y315100D01*
X-125800Y269100D02*
Y315100D01*
Y269100D02*
X-102800D01*
X-125800Y315100D02*
X-102800D01*
X-66500Y-165100D02*
X-60500D01*
X-63500Y-168100D02*
Y-162100D01*
X-86500Y-176600D02*
X-40500D01*
X-86500Y-153600D02*
X-40500D01*
X-86500Y-176600D02*
Y-153600D01*
X-40500Y-176600D02*
Y-153600D01*
X-127000Y505000D02*
Y511000D01*
X-130000Y508000D02*
X-124000D01*
X-115500Y485000D02*
Y531000D01*
X-138500Y485000D02*
Y531000D01*
Y485000D02*
X-115500D01*
X-138500Y531000D02*
X-115500D01*
X-28400Y-50800D02*
X-22400D01*
X-25400Y-53800D02*
Y-47800D01*
X-48400Y-62300D02*
X-2400D01*
X-48400Y-39300D02*
X-2400D01*
X-48400Y-62300D02*
Y-39300D01*
X-2400Y-62300D02*
Y-39300D01*
X-81000Y-50800D02*
X-75000D01*
X-78000Y-53800D02*
Y-47800D01*
X-101000Y-62300D02*
X-55000D01*
X-101000Y-39300D02*
X-55000D01*
X-101000Y-62300D02*
Y-39300D01*
X-55000Y-62300D02*
Y-39300D01*
X444500Y339900D02*
Y345900D01*
X441500Y342900D02*
X447500D01*
X456000Y319900D02*
Y365900D01*
X433000Y319900D02*
Y365900D01*
Y319900D02*
X456000D01*
X433000Y365900D02*
X456000D01*
M02*
