G04*
G04 #@! TF.GenerationSoftware,Altium Limited,Altium Designer,18.1.7 (191)*
G04*
G04 Layer_Color=32896*
%FSLAX44Y44*%
%MOMM*%
G71*
G01*
G75*
%ADD10C,0.2000*%
%ADD14C,0.2032*%
%ADD46C,0.5080*%
G36*
X-332470Y264573D02*
X-346543D01*
X-346543Y277589D01*
X-332470D01*
X-332470Y264573D01*
D02*
G37*
G36*
X237881Y258542D02*
X239574Y258330D01*
X241161Y257907D01*
X242748Y257378D01*
X245499Y256002D01*
X246769Y255156D01*
X247933Y254415D01*
X248991Y253674D01*
X249944Y252828D01*
X250684Y252193D01*
X251319Y251558D01*
X251848Y250923D01*
X252272Y250500D01*
X252483Y250288D01*
X252589Y250182D01*
Y257484D01*
X265499D01*
Y204364D01*
X251425D01*
Y230077D01*
Y232723D01*
X251213Y235051D01*
X251108Y236850D01*
X250896Y238437D01*
X250684Y239495D01*
X250579Y240341D01*
X250367Y240871D01*
Y240976D01*
X249838Y242140D01*
X249309Y243199D01*
X248674Y244045D01*
X248039Y244786D01*
X247510Y245315D01*
X247087Y245738D01*
X246769Y245950D01*
X246663Y246056D01*
X245605Y246691D01*
X244653Y247114D01*
X243701Y247431D01*
X242748Y247643D01*
X242008Y247749D01*
X241373Y247854D01*
X239891D01*
X239045Y247643D01*
X238304Y247537D01*
X237669Y247325D01*
X237246Y247114D01*
X236928Y246902D01*
X236717Y246796D01*
X236611Y246691D01*
X236082Y246267D01*
X235553Y245738D01*
X234812Y244574D01*
X234600Y244151D01*
X234389Y243728D01*
X234283Y243410D01*
Y243304D01*
X234177Y242881D01*
X233965Y242246D01*
X233754Y240765D01*
X233648Y239178D01*
X233542Y237484D01*
X233436Y235897D01*
Y234627D01*
Y234098D01*
Y233675D01*
Y233463D01*
Y233358D01*
Y204364D01*
X219363D01*
Y229760D01*
Y232405D01*
X219151Y234627D01*
X219045Y236532D01*
X218834Y238119D01*
X218622Y239283D01*
X218516Y240130D01*
X218305Y240553D01*
Y240765D01*
X217775Y242035D01*
X217246Y243093D01*
X216612Y243939D01*
X215977Y244680D01*
X215448Y245315D01*
X215024Y245738D01*
X214707Y245950D01*
X214601Y246056D01*
X213649Y246691D01*
X212591Y247114D01*
X211638Y247431D01*
X210792Y247643D01*
X210051Y247749D01*
X209522Y247854D01*
X208993D01*
X207617Y247749D01*
X206347Y247431D01*
X205289Y246902D01*
X204443Y246373D01*
X203808Y245738D01*
X203384Y245315D01*
X203067Y244892D01*
X202961Y244786D01*
X202750Y244257D01*
X202432Y243728D01*
X202115Y242246D01*
X201797Y240553D01*
X201691Y238860D01*
X201586Y237273D01*
X201480Y235897D01*
Y235368D01*
Y234945D01*
Y234733D01*
Y234627D01*
Y204364D01*
X187406D01*
Y238225D01*
X187512Y240871D01*
X187618Y243199D01*
X187829Y245103D01*
X188147Y246585D01*
X188464Y247749D01*
X188676Y248595D01*
X188782Y249124D01*
X188888Y249230D01*
X189734Y250923D01*
X190686Y252299D01*
X191745Y253463D01*
X192697Y254521D01*
X193649Y255262D01*
X194390Y255791D01*
X194813Y256108D01*
X195025Y256214D01*
X196612Y257061D01*
X198305Y257590D01*
X199893Y258013D01*
X201480Y258330D01*
X202855Y258542D01*
X203914Y258648D01*
X204866D01*
X206559Y258542D01*
X208146Y258330D01*
X209628Y258013D01*
X210898Y257590D01*
X211956Y257166D01*
X212802Y256849D01*
X213331Y256637D01*
X213543Y256531D01*
X215024Y255685D01*
X216400Y254627D01*
X217670Y253569D01*
X218834Y252510D01*
X219786Y251558D01*
X220421Y250817D01*
X220844Y250288D01*
X221056Y250077D01*
X222008Y251558D01*
X223066Y252934D01*
X224125Y253992D01*
X225077Y254944D01*
X225923Y255685D01*
X226664Y256108D01*
X227087Y256426D01*
X227299Y256531D01*
X228780Y257272D01*
X230262Y257801D01*
X231743Y258119D01*
X233119Y258436D01*
X234283Y258542D01*
X235235Y258648D01*
X236082D01*
X237881Y258542D01*
D02*
G37*
G36*
X-171523Y258542D02*
X-169830Y258330D01*
X-168243Y257907D01*
X-166655Y257378D01*
X-163904Y256002D01*
X-162634Y255156D01*
X-161470Y254415D01*
X-160412Y253674D01*
X-159460Y252828D01*
X-158719Y252193D01*
X-158084Y251558D01*
X-157555Y250923D01*
X-157132Y250500D01*
X-156920Y250288D01*
X-156814Y250182D01*
Y257484D01*
X-143905D01*
Y204364D01*
X-157978D01*
Y230077D01*
Y232723D01*
X-158190Y235051D01*
X-158296Y236849D01*
X-158508Y238437D01*
X-158719Y239495D01*
X-158825Y240341D01*
X-159037Y240870D01*
Y240976D01*
X-159566Y242140D01*
X-160095Y243199D01*
X-160730Y244045D01*
X-161365Y244786D01*
X-161894Y245315D01*
X-162317Y245738D01*
X-162634Y245950D01*
X-162740Y246056D01*
X-163798Y246690D01*
X-164751Y247114D01*
X-165703Y247431D01*
X-166655Y247643D01*
X-167396Y247749D01*
X-168031Y247854D01*
X-169513D01*
X-170359Y247643D01*
X-171100Y247537D01*
X-171735Y247325D01*
X-172158Y247114D01*
X-172475Y246902D01*
X-172687Y246796D01*
X-172793Y246690D01*
X-173322Y246267D01*
X-173851Y245738D01*
X-174592Y244574D01*
X-174803Y244151D01*
X-175015Y243728D01*
X-175121Y243410D01*
Y243304D01*
X-175227Y242881D01*
X-175438Y242246D01*
X-175650Y240765D01*
X-175756Y239177D01*
X-175861Y237484D01*
X-175967Y235897D01*
Y234627D01*
Y234098D01*
Y233675D01*
Y233463D01*
Y233358D01*
Y204364D01*
X-190041D01*
Y229760D01*
Y232405D01*
X-190252Y234627D01*
X-190358Y236532D01*
X-190570Y238119D01*
X-190782Y239283D01*
X-190887Y240130D01*
X-191099Y240553D01*
Y240765D01*
X-191628Y242034D01*
X-192157Y243093D01*
X-192792Y243939D01*
X-193427Y244680D01*
X-193956Y245315D01*
X-194379Y245738D01*
X-194697Y245950D01*
X-194803Y246056D01*
X-195755Y246690D01*
X-196813Y247114D01*
X-197766Y247431D01*
X-198612Y247643D01*
X-199353Y247749D01*
X-199882Y247854D01*
X-200411D01*
X-201786Y247749D01*
X-203056Y247431D01*
X-204114Y246902D01*
X-204961Y246373D01*
X-205596Y245738D01*
X-206019Y245315D01*
X-206337Y244892D01*
X-206442Y244786D01*
X-206654Y244257D01*
X-206971Y243728D01*
X-207289Y242246D01*
X-207606Y240553D01*
X-207712Y238860D01*
X-207818Y237273D01*
X-207924Y235897D01*
Y235368D01*
Y234945D01*
Y234733D01*
Y234627D01*
Y204364D01*
X-221997D01*
Y238225D01*
X-221892Y240870D01*
X-221786Y243199D01*
X-221574Y245103D01*
X-221257Y246585D01*
X-220939Y247749D01*
X-220728Y248595D01*
X-220622Y249124D01*
X-220516Y249230D01*
X-219669Y250923D01*
X-218717Y252299D01*
X-217659Y253463D01*
X-216707Y254521D01*
X-215754Y255262D01*
X-215014Y255791D01*
X-214590Y256108D01*
X-214379Y256214D01*
X-212791Y257060D01*
X-211098Y257589D01*
X-209511Y258013D01*
X-207924Y258330D01*
X-206548Y258542D01*
X-205490Y258648D01*
X-204538D01*
X-202845Y258542D01*
X-201257Y258330D01*
X-199776Y258013D01*
X-198506Y257589D01*
X-197448Y257166D01*
X-196602Y256849D01*
X-196072Y256637D01*
X-195861Y256531D01*
X-194379Y255685D01*
X-193004Y254627D01*
X-191734Y253568D01*
X-190570Y252510D01*
X-189618Y251558D01*
X-188983Y250817D01*
X-188559Y250288D01*
X-188348Y250077D01*
X-187395Y251558D01*
X-186337Y252934D01*
X-185279Y253992D01*
X-184327Y254944D01*
X-183480Y255685D01*
X-182740Y256108D01*
X-182316Y256425D01*
X-182105Y256531D01*
X-180623Y257272D01*
X-179142Y257801D01*
X-177660Y258119D01*
X-176285Y258436D01*
X-175121Y258542D01*
X-174168Y258648D01*
X-173322D01*
X-171523Y258542D01*
D02*
G37*
G36*
X156402Y258436D02*
X158095Y258330D01*
X159577Y258013D01*
X161058Y257801D01*
X162328Y257484D01*
X163492Y257061D01*
X164550Y256743D01*
X165396Y256426D01*
X166243Y256002D01*
X166878Y255685D01*
X167513Y255473D01*
X167936Y255156D01*
X168253Y255050D01*
X168359Y254838D01*
X168465D01*
X170264Y253251D01*
X171745Y251452D01*
X173015Y249548D01*
X174073Y247749D01*
X174814Y246056D01*
X175131Y245315D01*
X175343Y244680D01*
X175555Y244151D01*
X175661Y243728D01*
X175766Y243516D01*
Y243410D01*
X163174Y241082D01*
X162645Y242352D01*
X162116Y243410D01*
X161587Y244363D01*
X160952Y245103D01*
X160529Y245632D01*
X160106Y245950D01*
X159894Y246161D01*
X159788Y246267D01*
X158942Y246796D01*
X157989Y247220D01*
X156931Y247431D01*
X155979Y247643D01*
X155132Y247749D01*
X154497Y247854D01*
X153862D01*
X151958Y247749D01*
X150371Y247537D01*
X149101Y247325D01*
X148042Y247008D01*
X147302Y246585D01*
X146773Y246373D01*
X146455Y246161D01*
X146349Y246056D01*
X145609Y245315D01*
X145080Y244468D01*
X144762Y243516D01*
X144445Y242564D01*
X144339Y241611D01*
X144233Y240871D01*
Y240447D01*
Y240236D01*
Y238860D01*
X144974Y238543D01*
X145926Y238225D01*
X147937Y237590D01*
X150265Y237061D01*
X152487Y236532D01*
X154603Y236003D01*
X155555Y235791D01*
X156402Y235686D01*
X157037Y235580D01*
X157566Y235474D01*
X157884Y235368D01*
X157989D01*
X160529Y234839D01*
X162857Y234310D01*
X164762Y233781D01*
X166349Y233252D01*
X167619Y232723D01*
X168465Y232405D01*
X168994Y232194D01*
X169206Y232088D01*
X170581Y231347D01*
X171745Y230501D01*
X172804Y229548D01*
X173544Y228702D01*
X174285Y227961D01*
X174708Y227326D01*
X175026Y226903D01*
X175131Y226691D01*
X175872Y225316D01*
X176401Y223940D01*
X176719Y222670D01*
X176930Y221400D01*
X177142Y220342D01*
X177248Y219496D01*
Y218967D01*
Y218755D01*
X177142Y217485D01*
X177036Y216321D01*
X176507Y214099D01*
X175766Y212194D01*
X174920Y210607D01*
X174073Y209337D01*
X173333Y208385D01*
X172804Y207750D01*
X172592Y207644D01*
Y207538D01*
X170687Y206057D01*
X168571Y204999D01*
X166455Y204258D01*
X164338Y203729D01*
X162539Y203412D01*
X161693Y203306D01*
X161058D01*
X160423Y203200D01*
X159682D01*
X157989Y203306D01*
X156296Y203517D01*
X154815Y203729D01*
X153545Y204046D01*
X152487Y204364D01*
X151640Y204681D01*
X151111Y204787D01*
X150900Y204893D01*
X149418Y205634D01*
X147937Y206374D01*
X146667Y207327D01*
X145503Y208173D01*
X144551Y208914D01*
X143810Y209549D01*
X143387Y209972D01*
X143175Y210078D01*
X143069Y209655D01*
X142858Y209126D01*
X142752Y208702D01*
X142646Y208597D01*
Y208491D01*
X142328Y207538D01*
X142117Y206692D01*
X141905Y205951D01*
X141693Y205422D01*
X141482Y204999D01*
X141376Y204576D01*
X141270Y204470D01*
Y204364D01*
X127408D01*
X128043Y205739D01*
X128572Y207009D01*
X128996Y208173D01*
X129419Y209231D01*
X129630Y210078D01*
X129842Y210819D01*
X129948Y211242D01*
Y211348D01*
X130160Y212723D01*
X130265Y214417D01*
X130477Y216110D01*
Y217803D01*
X130583Y219284D01*
Y220554D01*
Y221083D01*
Y221400D01*
Y221612D01*
Y221718D01*
X130371Y238119D01*
Y239812D01*
X130477Y241294D01*
X130583Y242670D01*
X130689Y243939D01*
X130794Y245103D01*
X131006Y246161D01*
X131112Y247114D01*
X131323Y247854D01*
X131535Y248595D01*
X131641Y249124D01*
X131958Y250077D01*
X132170Y250500D01*
X132276Y250711D01*
X133122Y251875D01*
X134075Y253039D01*
X135133Y253992D01*
X136297Y254838D01*
X137249Y255473D01*
X138096Y255896D01*
X138625Y256214D01*
X138731Y256320D01*
X138836D01*
X139789Y256743D01*
X140741Y257061D01*
X142963Y257695D01*
X145291Y258119D01*
X147513Y258330D01*
X149630Y258542D01*
X150476D01*
X151217Y258648D01*
X154709D01*
X156402Y258436D01*
D02*
G37*
G36*
X-375431Y204364D02*
X-388129D01*
X-409187Y257484D01*
X-394796D01*
X-384637Y230289D01*
X-384002Y228702D01*
X-383579Y227220D01*
X-383367Y226691D01*
X-383262Y226268D01*
X-383156Y225950D01*
Y225845D01*
X-383050Y225315D01*
X-382838Y224681D01*
X-382309Y223093D01*
X-382098Y222458D01*
X-381886Y221824D01*
X-381780Y221400D01*
X-381674Y221294D01*
X-378817Y230289D01*
X-368765Y257484D01*
X-354056D01*
X-375431Y204364D01*
D02*
G37*
G36*
X-48988Y268065D02*
Y257484D01*
X-42533D01*
Y246267D01*
X-48988D01*
Y223093D01*
Y221718D01*
Y220554D01*
Y219390D01*
X-49093Y218438D01*
Y216744D01*
X-49199Y215369D01*
X-49305Y214311D01*
Y213676D01*
X-49411Y213253D01*
Y213147D01*
X-49623Y211983D01*
X-49940Y210924D01*
X-50257Y209972D01*
X-50575Y209231D01*
X-50892Y208597D01*
X-51104Y208173D01*
X-51210Y207856D01*
X-51316Y207750D01*
X-51950Y207009D01*
X-52691Y206374D01*
X-54173Y205316D01*
X-54808Y204999D01*
X-55337Y204681D01*
X-55760Y204576D01*
X-55866Y204470D01*
X-57030Y204046D01*
X-58194Y203729D01*
X-59358Y203517D01*
X-60416Y203412D01*
X-61368Y203306D01*
X-62109Y203200D01*
X-62744D01*
X-64966Y203306D01*
X-67082Y203517D01*
X-68987Y203835D01*
X-70574Y204258D01*
X-71950Y204576D01*
X-73008Y204893D01*
X-73643Y205105D01*
X-73749Y205210D01*
X-73854D01*
X-72585Y216110D01*
X-71315Y215686D01*
X-70151Y215369D01*
X-69198Y215157D01*
X-68352Y215051D01*
X-67717Y214946D01*
X-67294Y214840D01*
X-66871D01*
X-65918Y214946D01*
X-65177Y215157D01*
X-64754Y215369D01*
X-64543Y215475D01*
X-63908Y216110D01*
X-63590Y216639D01*
X-63379Y217062D01*
X-63273Y217274D01*
Y217485D01*
X-63167Y217908D01*
Y218861D01*
Y220131D01*
X-63061Y221400D01*
Y222670D01*
Y223728D01*
Y224152D01*
Y224469D01*
Y224681D01*
Y224786D01*
Y246267D01*
X-72691D01*
Y257484D01*
X-63061D01*
Y276319D01*
X-48988Y268065D01*
D02*
G37*
G36*
X-299138Y268065D02*
Y257484D01*
X-292683D01*
Y246267D01*
X-299138D01*
Y223093D01*
Y221718D01*
Y220554D01*
Y219390D01*
X-299243Y218437D01*
Y216744D01*
X-299349Y215369D01*
X-299455Y214311D01*
Y213676D01*
X-299561Y213252D01*
Y213147D01*
X-299772Y211983D01*
X-300090Y210924D01*
X-300407Y209972D01*
X-300725Y209231D01*
X-301042Y208596D01*
X-301254Y208173D01*
X-301360Y207856D01*
X-301465Y207750D01*
X-302100Y207009D01*
X-302841Y206374D01*
X-304323Y205316D01*
X-304958Y204999D01*
X-305487Y204681D01*
X-305910Y204576D01*
X-306016Y204470D01*
X-307180Y204046D01*
X-308344Y203729D01*
X-309508Y203517D01*
X-310566Y203412D01*
X-311518Y203306D01*
X-312259Y203200D01*
X-312894D01*
X-315116Y203306D01*
X-317232Y203517D01*
X-319137Y203835D01*
X-320724Y204258D01*
X-322100Y204576D01*
X-323158Y204893D01*
X-323793Y205105D01*
X-323899Y205210D01*
X-324004D01*
X-322735Y216110D01*
X-321465Y215686D01*
X-320301Y215369D01*
X-319349Y215157D01*
X-318502Y215051D01*
X-317867Y214946D01*
X-317444Y214840D01*
X-317020D01*
X-316068Y214946D01*
X-315327Y215157D01*
X-314904Y215369D01*
X-314693Y215475D01*
X-314058Y216110D01*
X-313740Y216639D01*
X-313529Y217062D01*
X-313423Y217274D01*
Y217485D01*
X-313317Y217908D01*
Y218861D01*
Y220131D01*
X-313211Y221400D01*
Y222670D01*
Y223728D01*
Y224151D01*
Y224469D01*
Y224681D01*
Y224786D01*
Y246267D01*
X-322840D01*
Y257484D01*
X-313211D01*
Y276319D01*
X-299138Y268065D01*
D02*
G37*
G36*
X14502Y223834D02*
X14396Y221189D01*
X14185Y218861D01*
X13867Y216850D01*
X13550Y215157D01*
X13232Y213782D01*
X12915Y212829D01*
X12703Y212300D01*
X12598Y212089D01*
X11751Y210607D01*
X10799Y209231D01*
X9846Y208173D01*
X8788Y207221D01*
X7942Y206480D01*
X7095Y205951D01*
X6672Y205634D01*
X6460Y205528D01*
X4873Y204787D01*
X3180Y204152D01*
X1593Y203729D01*
X5Y203517D01*
X-1264Y203306D01*
X-2217Y203200D01*
X-3169D01*
X-5074Y203306D01*
X-6873Y203517D01*
X-8566Y203941D01*
X-10047Y204364D01*
X-11317Y204787D01*
X-12269Y205210D01*
X-12904Y205422D01*
X-13116Y205528D01*
X-14809Y206480D01*
X-16290Y207644D01*
X-17666Y208702D01*
X-18724Y209866D01*
X-19677Y210819D01*
X-20311Y211559D01*
X-20735Y212089D01*
X-20840Y212300D01*
Y204364D01*
X-33856D01*
Y257484D01*
X-19782D01*
Y235051D01*
Y233040D01*
Y231241D01*
X-19677Y229548D01*
X-19571Y228067D01*
Y226691D01*
X-19465Y225527D01*
X-19359Y224575D01*
X-19253Y223622D01*
X-19147Y222882D01*
X-19042Y222353D01*
X-18936Y221824D01*
Y221400D01*
X-18724Y220871D01*
Y220765D01*
X-18301Y219707D01*
X-17666Y218755D01*
X-17031Y218014D01*
X-16396Y217274D01*
X-15761Y216639D01*
X-15232Y216215D01*
X-14915Y216004D01*
X-14809Y215898D01*
X-13751Y215263D01*
X-12587Y214840D01*
X-11529Y214417D01*
X-10470Y214205D01*
X-9624Y214099D01*
X-8989Y213993D01*
X-8354D01*
X-7190Y214099D01*
X-6238Y214205D01*
X-5285Y214417D01*
X-4545Y214734D01*
X-3910Y214946D01*
X-3487Y215157D01*
X-3169Y215263D01*
X-3063Y215369D01*
X-2323Y216004D01*
X-1794Y216639D01*
X-1264Y217274D01*
X-947Y217908D01*
X-630Y218543D01*
X-418Y218967D01*
X-312Y219284D01*
Y219390D01*
X-206Y219919D01*
X-100Y220660D01*
X5Y221612D01*
X111Y222564D01*
X217Y224786D01*
X323Y227220D01*
X429Y229442D01*
Y230395D01*
Y231241D01*
Y231982D01*
Y232511D01*
Y232934D01*
Y233040D01*
Y257484D01*
X14502D01*
Y223834D01*
D02*
G37*
G36*
X-436170Y258542D02*
X-434371Y258330D01*
X-432572Y257907D01*
X-430985Y257484D01*
X-429398Y256955D01*
X-428022Y256320D01*
X-426646Y255579D01*
X-425482Y254944D01*
X-424424Y254203D01*
X-423472Y253463D01*
X-422625Y252828D01*
X-421990Y252299D01*
X-421461Y251875D01*
X-421038Y251452D01*
X-420826Y251241D01*
X-420721Y251135D01*
X-419557Y249653D01*
X-418498Y248066D01*
X-417546Y246479D01*
X-416700Y244786D01*
X-416065Y242987D01*
X-415536Y241294D01*
X-414689Y238013D01*
X-414372Y236426D01*
X-414160Y235051D01*
X-414054Y233781D01*
X-413948Y232723D01*
X-413843Y231770D01*
Y231030D01*
Y230606D01*
Y230501D01*
X-413948Y228490D01*
X-414054Y226479D01*
X-414372Y224681D01*
X-414689Y222987D01*
X-415006Y221294D01*
X-415536Y219813D01*
X-415959Y218437D01*
X-416488Y217168D01*
X-416911Y216004D01*
X-417440Y215051D01*
X-417864Y214205D01*
X-418181Y213464D01*
X-418604Y212935D01*
X-418816Y212512D01*
X-418922Y212300D01*
X-419028Y212194D01*
X-420403Y210607D01*
X-421779Y209231D01*
X-423366Y208067D01*
X-425059Y207009D01*
X-426752Y206163D01*
X-428445Y205422D01*
X-430138Y204787D01*
X-431831Y204364D01*
X-433313Y203941D01*
X-434794Y203729D01*
X-436170Y203517D01*
X-437334Y203306D01*
X-438286D01*
X-438921Y203200D01*
X-439556D01*
X-442625Y203412D01*
X-445482Y203835D01*
X-447915Y204470D01*
X-450032Y205210D01*
X-450984Y205634D01*
X-451725Y205951D01*
X-452466Y206269D01*
X-452995Y206586D01*
X-453418Y206903D01*
X-453841Y207009D01*
X-453947Y207221D01*
X-454053D01*
X-456063Y208914D01*
X-457862Y210713D01*
X-459344Y212723D01*
X-460508Y214628D01*
X-461460Y216321D01*
X-461777Y217062D01*
X-462095Y217697D01*
X-462307Y218226D01*
X-462518Y218649D01*
X-462624Y218861D01*
Y218967D01*
X-448656Y221294D01*
X-448127Y219919D01*
X-447598Y218649D01*
X-447069Y217697D01*
X-446434Y216850D01*
X-446011Y216215D01*
X-445588Y215792D01*
X-445270Y215580D01*
X-445164Y215474D01*
X-444318Y214840D01*
X-443365Y214416D01*
X-442413Y214099D01*
X-441567Y213887D01*
X-440826Y213782D01*
X-440191Y213676D01*
X-439662D01*
X-437969Y213782D01*
X-436381Y214205D01*
X-434900Y214734D01*
X-433736Y215369D01*
X-432784Y216004D01*
X-432149Y216533D01*
X-431620Y216956D01*
X-431514Y217062D01*
X-430456Y218437D01*
X-429715Y220025D01*
X-429080Y221718D01*
X-428657Y223199D01*
X-428445Y224681D01*
X-428339Y225739D01*
X-428234Y226162D01*
Y226479D01*
Y226691D01*
Y226797D01*
X-463365D01*
Y229760D01*
X-463153Y232405D01*
X-462836Y234945D01*
X-462412Y237273D01*
X-461883Y239495D01*
X-461354Y241400D01*
X-460719Y243198D01*
X-460084Y244786D01*
X-459449Y246161D01*
X-458815Y247431D01*
X-458285Y248384D01*
X-457756Y249230D01*
X-457333Y249865D01*
X-457016Y250394D01*
X-456804Y250606D01*
X-456698Y250711D01*
X-455428Y252087D01*
X-453947Y253357D01*
X-452466Y254415D01*
X-450984Y255261D01*
X-449397Y256108D01*
X-447810Y256743D01*
X-446328Y257272D01*
X-444847Y257695D01*
X-443471Y258013D01*
X-442201Y258224D01*
X-441037Y258436D01*
X-440085Y258542D01*
X-439239Y258648D01*
X-438074D01*
X-436170Y258542D01*
D02*
G37*
G36*
X385494Y204364D02*
X369834D01*
X363802Y220977D01*
X334385D01*
X328036Y204364D01*
X312058Y204364D01*
X341475Y277589D01*
X357136D01*
X385494Y204364D01*
D02*
G37*
G36*
X281160Y258542D02*
X282218Y258436D01*
X283276Y258119D01*
X284122Y257801D01*
X284863Y257484D01*
X285498Y257272D01*
X285816Y257061D01*
X285921Y256955D01*
X286980Y256214D01*
X287932Y255156D01*
X288990Y253992D01*
X289837Y252828D01*
X290683Y251664D01*
X291318Y250711D01*
X291741Y250077D01*
X291847Y249971D01*
Y257484D01*
X304862D01*
Y204364D01*
X290789D01*
Y220660D01*
Y223093D01*
Y225316D01*
X290683Y227326D01*
X290577Y229125D01*
Y230818D01*
X290471Y232194D01*
X290366Y233569D01*
X290260Y234627D01*
X290154Y235580D01*
X290048Y236426D01*
X289942Y237061D01*
Y237590D01*
X289837Y237908D01*
X289731Y238225D01*
Y238437D01*
X289307Y239918D01*
X288778Y241188D01*
X288249Y242246D01*
X287720Y242987D01*
X287297Y243622D01*
X286874Y244045D01*
X286662Y244257D01*
X286556Y244363D01*
X285710Y244892D01*
X284863Y245315D01*
X284017Y245632D01*
X283276Y245844D01*
X282641Y245950D01*
X282006Y246056D01*
X281583D01*
X280419Y245950D01*
X279255Y245738D01*
X278197Y245315D01*
X277139Y244892D01*
X276292Y244468D01*
X275657Y244045D01*
X275128Y243834D01*
X275022Y243728D01*
X270578Y255896D01*
X272271Y256849D01*
X273858Y257484D01*
X275445Y258013D01*
X276927Y258330D01*
X278091Y258542D01*
X279043Y258648D01*
X279890D01*
X281160Y258542D01*
D02*
G37*
G36*
X95452Y204364D02*
X79791D01*
X73759Y220977D01*
X44342D01*
X37994Y204364D01*
X22015Y204364D01*
X51432Y277589D01*
X67093D01*
X95452Y204364D01*
D02*
G37*
G36*
X-332470Y204364D02*
X-346543D01*
Y257484D01*
X-332470D01*
Y204364D01*
D02*
G37*
G36*
X-103589Y258542D02*
X-100943Y258119D01*
X-98510Y257590D01*
X-96393Y256955D01*
X-95547Y256531D01*
X-94700Y256214D01*
X-93960Y256002D01*
X-93431Y255685D01*
X-92901Y255473D01*
X-92584Y255262D01*
X-92372Y255156D01*
X-92267D01*
X-90044Y253674D01*
X-88140Y252087D01*
X-86447Y250394D01*
X-85071Y248807D01*
X-84013Y247325D01*
X-83166Y246161D01*
X-82849Y245738D01*
X-82743Y245421D01*
X-82531Y245209D01*
Y245103D01*
X-81367Y242669D01*
X-80627Y240236D01*
X-79992Y238013D01*
X-79569Y236003D01*
X-79357Y234204D01*
X-79251Y233463D01*
Y232829D01*
X-79145Y232405D01*
Y231982D01*
Y231770D01*
Y231665D01*
X-79251Y228384D01*
X-79674Y225316D01*
X-80203Y222670D01*
X-80521Y221506D01*
X-80838Y220448D01*
X-81156Y219496D01*
X-81473Y218649D01*
X-81791Y217908D01*
X-82002Y217274D01*
X-82214Y216744D01*
X-82426Y216427D01*
X-82531Y216215D01*
Y216110D01*
X-84013Y213887D01*
X-85600Y211983D01*
X-87293Y210290D01*
X-88880Y208914D01*
X-90362Y207856D01*
X-91526Y207115D01*
X-91949Y206798D01*
X-92267Y206586D01*
X-92478Y206480D01*
X-92584D01*
X-95124Y205422D01*
X-97557Y204576D01*
X-99885Y204046D01*
X-102107Y203623D01*
X-103906Y203412D01*
X-104647Y203306D01*
X-105282D01*
X-105811Y203200D01*
X-106552D01*
X-108774Y203306D01*
X-110784Y203517D01*
X-112795Y203941D01*
X-114594Y204470D01*
X-116393Y204999D01*
X-117980Y205634D01*
X-119461Y206374D01*
X-120837Y207115D01*
X-122001Y207856D01*
X-123059Y208596D01*
X-124011Y209231D01*
X-124752Y209760D01*
X-125387Y210290D01*
X-125810Y210713D01*
X-126022Y210924D01*
X-126128Y211030D01*
X-127503Y212618D01*
X-128667Y214205D01*
X-129726Y215792D01*
X-130678Y217485D01*
X-131419Y219178D01*
X-132053Y220871D01*
X-132583Y222458D01*
X-133006Y224046D01*
X-133323Y225421D01*
X-133535Y226797D01*
X-133747Y227961D01*
X-133852Y229019D01*
X-133958Y229866D01*
Y230501D01*
Y230924D01*
Y231030D01*
X-133852Y233252D01*
X-133641Y235368D01*
X-133217Y237273D01*
X-132794Y239177D01*
X-132159Y240870D01*
X-131524Y242564D01*
X-130784Y244045D01*
X-130149Y245421D01*
X-129408Y246585D01*
X-128667Y247749D01*
X-128033Y248595D01*
X-127398Y249442D01*
X-126974Y249971D01*
X-126551Y250500D01*
X-126339Y250711D01*
X-126234Y250817D01*
X-124752Y252193D01*
X-123165Y253357D01*
X-121578Y254415D01*
X-119885Y255367D01*
X-118191Y256108D01*
X-116604Y256743D01*
X-115017Y257272D01*
X-113430Y257695D01*
X-112054Y258013D01*
X-110679Y258225D01*
X-109515Y258436D01*
X-108456Y258542D01*
X-107610Y258648D01*
X-106446D01*
X-103589Y258542D01*
D02*
G37*
G36*
X-257129Y258542D02*
X-254483Y258119D01*
X-252049Y257589D01*
X-249933Y256955D01*
X-249086Y256531D01*
X-248240Y256214D01*
X-247499Y256002D01*
X-246970Y255685D01*
X-246441Y255473D01*
X-246124Y255262D01*
X-245912Y255156D01*
X-245806D01*
X-243584Y253674D01*
X-241679Y252087D01*
X-239986Y250394D01*
X-238611Y248807D01*
X-237552Y247325D01*
X-236706Y246161D01*
X-236388Y245738D01*
X-236283Y245421D01*
X-236071Y245209D01*
Y245103D01*
X-234907Y242669D01*
X-234166Y240236D01*
X-233531Y238013D01*
X-233108Y236003D01*
X-232896Y234204D01*
X-232791Y233463D01*
Y232829D01*
X-232685Y232405D01*
Y231982D01*
Y231770D01*
Y231665D01*
X-232791Y228384D01*
X-233214Y225315D01*
X-233743Y222670D01*
X-234060Y221506D01*
X-234378Y220448D01*
X-234695Y219496D01*
X-235013Y218649D01*
X-235330Y217908D01*
X-235542Y217274D01*
X-235754Y216744D01*
X-235965Y216427D01*
X-236071Y216215D01*
Y216110D01*
X-237552Y213887D01*
X-239140Y211983D01*
X-240833Y210290D01*
X-242420Y208914D01*
X-243901Y207856D01*
X-245065Y207115D01*
X-245489Y206798D01*
X-245806Y206586D01*
X-246018Y206480D01*
X-246124D01*
X-248663Y205422D01*
X-251097Y204576D01*
X-253425Y204046D01*
X-255647Y203623D01*
X-257446Y203412D01*
X-258187Y203306D01*
X-258822D01*
X-259351Y203200D01*
X-260091D01*
X-262313Y203306D01*
X-264324Y203517D01*
X-266334Y203941D01*
X-268133Y204470D01*
X-269932Y204999D01*
X-271520Y205634D01*
X-273001Y206374D01*
X-274377Y207115D01*
X-275541Y207856D01*
X-276599Y208596D01*
X-277551Y209231D01*
X-278292Y209760D01*
X-278927Y210290D01*
X-279350Y210713D01*
X-279562Y210924D01*
X-279667Y211030D01*
X-281043Y212617D01*
X-282207Y214205D01*
X-283265Y215792D01*
X-284217Y217485D01*
X-284958Y219178D01*
X-285593Y220871D01*
X-286122Y222458D01*
X-286545Y224046D01*
X-286863Y225421D01*
X-287075Y226797D01*
X-287286Y227961D01*
X-287392Y229019D01*
X-287498Y229866D01*
Y230501D01*
Y230924D01*
Y231030D01*
X-287392Y233252D01*
X-287180Y235368D01*
X-286757Y237273D01*
X-286334Y239177D01*
X-285699Y240870D01*
X-285064Y242564D01*
X-284323Y244045D01*
X-283688Y245421D01*
X-282948Y246585D01*
X-282207Y247749D01*
X-281572Y248595D01*
X-280937Y249442D01*
X-280514Y249971D01*
X-280091Y250500D01*
X-279879Y250711D01*
X-279773Y250817D01*
X-278292Y252193D01*
X-276705Y253357D01*
X-275117Y254415D01*
X-273424Y255367D01*
X-271731Y256108D01*
X-270144Y256743D01*
X-268557Y257272D01*
X-266969Y257695D01*
X-265594Y258013D01*
X-264218Y258224D01*
X-263054Y258436D01*
X-261996Y258542D01*
X-261150Y258648D01*
X-259986D01*
X-257129Y258542D01*
D02*
G37*
G36*
X-313655Y188933D02*
X-312714Y188874D01*
X-310892Y188580D01*
X-309364Y188110D01*
X-308659Y187875D01*
X-308012Y187581D01*
X-307424Y187346D01*
X-306954Y187052D01*
X-306484Y186817D01*
X-306131Y186641D01*
X-305837Y186406D01*
X-305661Y186288D01*
X-305544Y186229D01*
X-305485Y186171D01*
X-304838Y185583D01*
X-304251Y184995D01*
X-303722Y184290D01*
X-303251Y183526D01*
X-302546Y181998D01*
X-301958Y180528D01*
X-301782Y179764D01*
X-301606Y179118D01*
X-301429Y178530D01*
X-301371Y178001D01*
X-301253Y177531D01*
Y177237D01*
X-301194Y177002D01*
Y176943D01*
X-308953Y176179D01*
X-309070Y177354D01*
X-309305Y178354D01*
X-309540Y179235D01*
X-309834Y179882D01*
X-310069Y180411D01*
X-310304Y180763D01*
X-310481Y180998D01*
X-310539Y181057D01*
X-311127Y181527D01*
X-311774Y181880D01*
X-312420Y182174D01*
X-313067Y182350D01*
X-313596Y182468D01*
X-314066Y182527D01*
X-314478D01*
X-315359Y182468D01*
X-316123Y182292D01*
X-316770Y182056D01*
X-317358Y181821D01*
X-317769Y181586D01*
X-318121Y181351D01*
X-318298Y181175D01*
X-318357Y181116D01*
X-318827Y180528D01*
X-319179Y179882D01*
X-319415Y179235D01*
X-319591Y178589D01*
X-319708Y178001D01*
X-319767Y177472D01*
Y177178D01*
Y177119D01*
Y177061D01*
X-319708Y176179D01*
X-319532Y175356D01*
X-319238Y174533D01*
X-318944Y173828D01*
X-318650Y173181D01*
X-318357Y172711D01*
X-318180Y172417D01*
X-318121Y172300D01*
X-317886Y171947D01*
X-317534Y171535D01*
X-317064Y171007D01*
X-316593Y170536D01*
X-315535Y169420D01*
X-314478Y168303D01*
X-313419Y167245D01*
X-312949Y166775D01*
X-312479Y166422D01*
X-312126Y166069D01*
X-311891Y165834D01*
X-311715Y165658D01*
X-311656Y165599D01*
X-310481Y164482D01*
X-309423Y163424D01*
X-308424Y162425D01*
X-307542Y161544D01*
X-306719Y160662D01*
X-306014Y159839D01*
X-305367Y159134D01*
X-304838Y158429D01*
X-304368Y157841D01*
X-303957Y157312D01*
X-303604Y156900D01*
X-303369Y156489D01*
X-303134Y156254D01*
X-303016Y156019D01*
X-302899Y155901D01*
Y155843D01*
X-302135Y154491D01*
X-301547Y153080D01*
X-301077Y151787D01*
X-300724Y150611D01*
X-300489Y149553D01*
X-300430Y149142D01*
X-300371Y148789D01*
X-300312Y148496D01*
X-300254Y148260D01*
Y148143D01*
Y148084D01*
X-327584D01*
Y155314D01*
X-312068D01*
X-312538Y156078D01*
X-313067Y156724D01*
X-313302Y157018D01*
X-313478Y157253D01*
X-313596Y157371D01*
X-313655Y157429D01*
X-313890Y157664D01*
X-314125Y157958D01*
X-314830Y158605D01*
X-315594Y159369D01*
X-316358Y160133D01*
X-317122Y160838D01*
X-317769Y161426D01*
X-318004Y161661D01*
X-318180Y161838D01*
X-318298Y161896D01*
X-318357Y161955D01*
X-319650Y163189D01*
X-320708Y164189D01*
X-321589Y165129D01*
X-322295Y165834D01*
X-322824Y166422D01*
X-323176Y166833D01*
X-323411Y167127D01*
X-323470Y167186D01*
X-324234Y168185D01*
X-324881Y169126D01*
X-325410Y170007D01*
X-325821Y170772D01*
X-326174Y171418D01*
X-326409Y171947D01*
X-326526Y172241D01*
X-326585Y172358D01*
X-326938Y173299D01*
X-327173Y174239D01*
X-327349Y175121D01*
X-327467Y175944D01*
X-327526Y176590D01*
X-327584Y177119D01*
Y177472D01*
Y177589D01*
X-327526Y178471D01*
X-327408Y179353D01*
X-327290Y180176D01*
X-327055Y180940D01*
X-326468Y182292D01*
X-325880Y183467D01*
X-325527Y183996D01*
X-325233Y184407D01*
X-324939Y184819D01*
X-324646Y185113D01*
X-324411Y185348D01*
X-324293Y185583D01*
X-324175Y185642D01*
X-324117Y185700D01*
X-323470Y186288D01*
X-322706Y186817D01*
X-322001Y187229D01*
X-321178Y187581D01*
X-319650Y188169D01*
X-318121Y188580D01*
X-317416Y188698D01*
X-316770Y188816D01*
X-316182Y188874D01*
X-315653Y188933D01*
X-315242Y188992D01*
X-314654D01*
X-313655Y188933D01*
D02*
G37*
G36*
X-377485Y187640D02*
X-376721Y186406D01*
X-375898Y185230D01*
X-375075Y184290D01*
X-374370Y183526D01*
X-373723Y182938D01*
X-373488Y182703D01*
X-373312Y182527D01*
X-373194Y182468D01*
X-373135Y182409D01*
X-371842Y181469D01*
X-370608Y180646D01*
X-369491Y179999D01*
X-368492Y179529D01*
X-367669Y179176D01*
X-367082Y178883D01*
X-366847Y178824D01*
X-366670Y178765D01*
X-366611Y178706D01*
X-366553D01*
Y171653D01*
X-368669Y172476D01*
X-370549Y173358D01*
X-371431Y173828D01*
X-372254Y174357D01*
X-373018Y174827D01*
X-373723Y175297D01*
X-374370Y175767D01*
X-374958Y176179D01*
X-375428Y176531D01*
X-375839Y176884D01*
X-376192Y177178D01*
X-376427Y177354D01*
X-376544Y177472D01*
X-376603Y177531D01*
Y148084D01*
X-384420D01*
Y188992D01*
X-378073D01*
X-377485Y187640D01*
D02*
G37*
G36*
X-407461Y188933D02*
X-406520Y188815D01*
X-405580Y188639D01*
X-404698Y188404D01*
X-403875Y188110D01*
X-403111Y187758D01*
X-402347Y187464D01*
X-401759Y187111D01*
X-401171Y186700D01*
X-400643Y186406D01*
X-400231Y186053D01*
X-399820Y185759D01*
X-399526Y185524D01*
X-399349Y185348D01*
X-399232Y185230D01*
X-399173Y185172D01*
X-398527Y184407D01*
X-397998Y183643D01*
X-397469Y182820D01*
X-397057Y181998D01*
X-396704Y181175D01*
X-396411Y180293D01*
X-395999Y178706D01*
X-395823Y178001D01*
X-395705Y177295D01*
X-395647Y176708D01*
X-395588Y176179D01*
X-395529Y175709D01*
Y175415D01*
Y175180D01*
Y175121D01*
X-395588Y174063D01*
X-395705Y173005D01*
X-395823Y172006D01*
X-396058Y171124D01*
X-396352Y170243D01*
X-396646Y169478D01*
X-396940Y168714D01*
X-397292Y168068D01*
X-397586Y167480D01*
X-397880Y166951D01*
X-398174Y166540D01*
X-398468Y166128D01*
X-398703Y165893D01*
X-398820Y165658D01*
X-398938Y165540D01*
X-398997Y165482D01*
X-399643Y164835D01*
X-400349Y164247D01*
X-401054Y163777D01*
X-401759Y163366D01*
X-402464Y163013D01*
X-403111Y162660D01*
X-404404Y162249D01*
X-405521Y161955D01*
X-405991Y161896D01*
X-406403Y161838D01*
X-406755Y161779D01*
X-407225D01*
X-408048Y161838D01*
X-408812Y161955D01*
X-409518Y162073D01*
X-410223Y162308D01*
X-411516Y162837D01*
X-412574Y163483D01*
X-413397Y164130D01*
X-413749Y164424D01*
X-414043Y164659D01*
X-414278Y164894D01*
X-414455Y165070D01*
X-414514Y165129D01*
X-414572Y165188D01*
X-414455Y163953D01*
X-414337Y162778D01*
X-414220Y161720D01*
X-414043Y160780D01*
X-413867Y159957D01*
X-413691Y159193D01*
X-413514Y158546D01*
X-413338Y157958D01*
X-413103Y157429D01*
X-412985Y157018D01*
X-412809Y156665D01*
X-412691Y156430D01*
X-412574Y156195D01*
X-412456Y156077D01*
X-412398Y155960D01*
X-411751Y155255D01*
X-411046Y154726D01*
X-410399Y154314D01*
X-409753Y154079D01*
X-409165Y153903D01*
X-408754Y153844D01*
X-408460Y153785D01*
X-408342D01*
X-407696Y153844D01*
X-407049Y153962D01*
X-406579Y154138D01*
X-406109Y154314D01*
X-405756Y154491D01*
X-405521Y154667D01*
X-405345Y154784D01*
X-405286Y154843D01*
X-404874Y155314D01*
X-404580Y155842D01*
X-404345Y156430D01*
X-404169Y157018D01*
X-403993Y157488D01*
X-403934Y157900D01*
X-403875Y158194D01*
Y158311D01*
X-396352Y157429D01*
X-396528Y156489D01*
X-396763Y155666D01*
X-396998Y154843D01*
X-397292Y154138D01*
X-397586Y153433D01*
X-397880Y152786D01*
X-398233Y152257D01*
X-398527Y151728D01*
X-398879Y151317D01*
X-399114Y150905D01*
X-399408Y150611D01*
X-399643Y150317D01*
X-399820Y150141D01*
X-399996Y149965D01*
X-400055Y149906D01*
X-400113Y149847D01*
X-400701Y149377D01*
X-401289Y149024D01*
X-402582Y148378D01*
X-403816Y147966D01*
X-405051Y147614D01*
X-406167Y147437D01*
X-406638Y147379D01*
X-407049D01*
X-407343Y147320D01*
X-407813D01*
X-409047Y147379D01*
X-410164Y147555D01*
X-411222Y147790D01*
X-412280Y148084D01*
X-413220Y148496D01*
X-414102Y148907D01*
X-414925Y149318D01*
X-415630Y149789D01*
X-416277Y150259D01*
X-416865Y150670D01*
X-417335Y151140D01*
X-417746Y151493D01*
X-418099Y151787D01*
X-418334Y152022D01*
X-418451Y152198D01*
X-418510Y152257D01*
X-419274Y153256D01*
X-419862Y154373D01*
X-420450Y155607D01*
X-420920Y156842D01*
X-421331Y158194D01*
X-421684Y159545D01*
X-421919Y160838D01*
X-422154Y162190D01*
X-422331Y163424D01*
X-422448Y164541D01*
X-422566Y165599D01*
X-422625Y166540D01*
X-422683Y167304D01*
Y167891D01*
Y168068D01*
Y168244D01*
Y168303D01*
Y168362D01*
X-422625Y170360D01*
X-422507Y172182D01*
X-422331Y173887D01*
X-422037Y175473D01*
X-421743Y176884D01*
X-421449Y178177D01*
X-421038Y179353D01*
X-420685Y180411D01*
X-420332Y181292D01*
X-419980Y182056D01*
X-419627Y182703D01*
X-419333Y183232D01*
X-419039Y183643D01*
X-418863Y183937D01*
X-418745Y184114D01*
X-418687Y184172D01*
X-417923Y184995D01*
X-417100Y185759D01*
X-416277Y186406D01*
X-415454Y186935D01*
X-414572Y187405D01*
X-413749Y187816D01*
X-412927Y188110D01*
X-412104Y188404D01*
X-411398Y188580D01*
X-410693Y188757D01*
X-410105Y188874D01*
X-409576Y188933D01*
X-409106D01*
X-408812Y188992D01*
X-408518D01*
X-407461Y188933D01*
D02*
G37*
G36*
X-344982Y188933D02*
X-343983Y188816D01*
X-342984Y188580D01*
X-342102Y188345D01*
X-341279Y187993D01*
X-340515Y187640D01*
X-339869Y187287D01*
X-339222Y186876D01*
X-338693Y186465D01*
X-338164Y186112D01*
X-337753Y185759D01*
X-337459Y185407D01*
X-337165Y185172D01*
X-336988Y184936D01*
X-336871Y184819D01*
X-336812Y184760D01*
X-336107Y183761D01*
X-335519Y182585D01*
X-334990Y181351D01*
X-334520Y180058D01*
X-334167Y178706D01*
X-333815Y177296D01*
X-333579Y175944D01*
X-333344Y174592D01*
X-333227Y173299D01*
X-333109Y172123D01*
X-332992Y171007D01*
X-332933Y170066D01*
X-332874Y169302D01*
Y168714D01*
Y168479D01*
Y168303D01*
Y168244D01*
Y168185D01*
X-332933Y166069D01*
X-333050Y164130D01*
X-333227Y162308D01*
X-333462Y160662D01*
X-333697Y159193D01*
X-333991Y157841D01*
X-334344Y156665D01*
X-334696Y155607D01*
X-334990Y154726D01*
X-335343Y153903D01*
X-335637Y153256D01*
X-335930Y152727D01*
X-336107Y152375D01*
X-336283Y152081D01*
X-336401Y151904D01*
X-336460Y151846D01*
X-337165Y151023D01*
X-337929Y150376D01*
X-338693Y149730D01*
X-339516Y149260D01*
X-340280Y148789D01*
X-341103Y148437D01*
X-341867Y148143D01*
X-342631Y147908D01*
X-343336Y147673D01*
X-343983Y147555D01*
X-344571Y147438D01*
X-345041Y147379D01*
X-345452D01*
X-345805Y147320D01*
X-346040D01*
X-347098Y147379D01*
X-348097Y147496D01*
X-349096Y147731D01*
X-349978Y147966D01*
X-350801Y148260D01*
X-351565Y148613D01*
X-352211Y149024D01*
X-352858Y149436D01*
X-353387Y149789D01*
X-353916Y150200D01*
X-354327Y150553D01*
X-354680Y150847D01*
X-354915Y151082D01*
X-355091Y151317D01*
X-355209Y151434D01*
X-355268Y151493D01*
X-355973Y152492D01*
X-356561Y153668D01*
X-357149Y154902D01*
X-357560Y156254D01*
X-357971Y157606D01*
X-358265Y158958D01*
X-358559Y160368D01*
X-358794Y161720D01*
X-358912Y163013D01*
X-359029Y164189D01*
X-359147Y165305D01*
X-359206Y166246D01*
X-359264Y167010D01*
Y167598D01*
Y167833D01*
Y168009D01*
Y168068D01*
Y168127D01*
X-359206Y170243D01*
X-359088Y172182D01*
X-358912Y173945D01*
X-358618Y175591D01*
X-358324Y177119D01*
X-358030Y178471D01*
X-357619Y179705D01*
X-357266Y180763D01*
X-356913Y181763D01*
X-356561Y182527D01*
X-356208Y183232D01*
X-355914Y183820D01*
X-355620Y184231D01*
X-355444Y184525D01*
X-355326Y184701D01*
X-355268Y184760D01*
X-354621Y185524D01*
X-353916Y186171D01*
X-353152Y186700D01*
X-352388Y187229D01*
X-351624Y187640D01*
X-350859Y187934D01*
X-350154Y188228D01*
X-349390Y188463D01*
X-348685Y188639D01*
X-348097Y188757D01*
X-347509Y188874D01*
X-347039Y188933D01*
X-346628Y188992D01*
X-346040D01*
X-344982Y188933D01*
D02*
G37*
%LPC*%
G36*
X144339Y229760D02*
X144233D01*
Y226903D01*
Y225210D01*
X144339Y223728D01*
X144445Y222564D01*
X144551Y221612D01*
X144656Y220977D01*
X144762Y220448D01*
X144868Y220236D01*
Y220131D01*
X145185Y219178D01*
X145715Y218226D01*
X146244Y217485D01*
X146773Y216744D01*
X147302Y216215D01*
X147725Y215792D01*
X148042Y215581D01*
X148148Y215475D01*
X149418Y214628D01*
X150794Y214099D01*
X151958Y213676D01*
X153122Y213358D01*
X154074Y213147D01*
X154815Y213041D01*
X155450D01*
X156614Y213147D01*
X157778Y213358D01*
X158730Y213676D01*
X159471Y214099D01*
X160211Y214522D01*
X160635Y214840D01*
X160952Y215051D01*
X161058Y215157D01*
X161799Y216004D01*
X162328Y216850D01*
X162645Y217697D01*
X162857Y218543D01*
X163069Y219178D01*
X163174Y219707D01*
Y220131D01*
Y220236D01*
X163069Y221295D01*
X162751Y222247D01*
X162328Y223093D01*
X161799Y223834D01*
X161375Y224363D01*
X160952Y224786D01*
X160635Y224998D01*
X160529Y225104D01*
X159682Y225527D01*
X158624Y226056D01*
X157354Y226480D01*
X156085Y226797D01*
X154815Y227115D01*
X153862Y227326D01*
X153439Y227432D01*
X153122Y227538D01*
X152910D01*
X150794Y227961D01*
X149101Y228384D01*
X147513Y228808D01*
X146349Y229125D01*
X145397Y229442D01*
X144762Y229548D01*
X144339Y229760D01*
D02*
G37*
G36*
X-438180Y247854D02*
X-438921D01*
X-440508Y247749D01*
X-441884Y247325D01*
X-443154Y246796D01*
X-444212Y246267D01*
X-445058Y245632D01*
X-445693Y245103D01*
X-446117Y244680D01*
X-446222Y244574D01*
X-447175Y243304D01*
X-448021Y241823D01*
X-448550Y240236D01*
X-448974Y238754D01*
X-449185Y237484D01*
X-449291Y236320D01*
X-449397Y235897D01*
Y235686D01*
Y235474D01*
Y235368D01*
X-428445D01*
X-428551Y237379D01*
X-428868Y239177D01*
X-429292Y240765D01*
X-429927Y242034D01*
X-430456Y243093D01*
X-430985Y243833D01*
X-431302Y244362D01*
X-431408Y244468D01*
X-432572Y245632D01*
X-433842Y246479D01*
X-435112Y247008D01*
X-436276Y247431D01*
X-437334Y247643D01*
X-438180Y247854D01*
D02*
G37*
G36*
X349411Y260553D02*
X339147Y233358D01*
X359358D01*
X349411Y260553D01*
D02*
G37*
G36*
X59368Y260552D02*
X49104Y233358D01*
X69315D01*
X59368Y260552D01*
D02*
G37*
G36*
X-106023Y247220D02*
X-106552D01*
X-108562Y247008D01*
X-110361Y246585D01*
X-111842Y245844D01*
X-113218Y245103D01*
X-114276Y244363D01*
X-115123Y243622D01*
X-115546Y243199D01*
X-115758Y242987D01*
X-117028Y241294D01*
X-117980Y239283D01*
X-118615Y237273D01*
X-119144Y235368D01*
X-119355Y233675D01*
X-119461Y232829D01*
Y232194D01*
X-119567Y231665D01*
Y231241D01*
Y231030D01*
Y230924D01*
X-119355Y228173D01*
X-118932Y225633D01*
X-118403Y223622D01*
X-117662Y221824D01*
X-116922Y220554D01*
X-116393Y219496D01*
X-115969Y218967D01*
X-115758Y218755D01*
X-114276Y217379D01*
X-112795Y216321D01*
X-111208Y215686D01*
X-109726Y215157D01*
X-108456Y214840D01*
X-107504Y214734D01*
X-107081Y214628D01*
X-106552D01*
X-104541Y214840D01*
X-102742Y215263D01*
X-101155Y215898D01*
X-99885Y216744D01*
X-98721Y217485D01*
X-97875Y218120D01*
X-97451Y218543D01*
X-97240Y218755D01*
X-95970Y220448D01*
X-95124Y222458D01*
X-94489Y224469D01*
X-93960Y226479D01*
X-93748Y228173D01*
X-93642Y228913D01*
Y229654D01*
X-93536Y230183D01*
Y230606D01*
Y230818D01*
Y230924D01*
X-93748Y233675D01*
X-94171Y236109D01*
X-94700Y238225D01*
X-95441Y239918D01*
X-96076Y241188D01*
X-96711Y242246D01*
X-97134Y242775D01*
X-97240Y242987D01*
X-98721Y244363D01*
X-100309Y245421D01*
X-101896Y246161D01*
X-103377Y246691D01*
X-104647Y247008D01*
X-105599Y247114D01*
X-106023Y247220D01*
D02*
G37*
G36*
X-259562Y247220D02*
X-260091D01*
X-262102Y247008D01*
X-263901Y246585D01*
X-265382Y245844D01*
X-266758Y245103D01*
X-267816Y244363D01*
X-268662Y243622D01*
X-269086Y243199D01*
X-269297Y242987D01*
X-270567Y241294D01*
X-271520Y239283D01*
X-272154Y237273D01*
X-272684Y235368D01*
X-272895Y233675D01*
X-273001Y232829D01*
Y232194D01*
X-273107Y231665D01*
Y231241D01*
Y231030D01*
Y230924D01*
X-272895Y228172D01*
X-272472Y225633D01*
X-271943Y223622D01*
X-271202Y221824D01*
X-270461Y220554D01*
X-269932Y219496D01*
X-269509Y218967D01*
X-269297Y218755D01*
X-267816Y217379D01*
X-266334Y216321D01*
X-264747Y215686D01*
X-263266Y215157D01*
X-261996Y214840D01*
X-261044Y214734D01*
X-260620Y214628D01*
X-260091D01*
X-258081Y214840D01*
X-256282Y215263D01*
X-254695Y215898D01*
X-253425Y216744D01*
X-252261Y217485D01*
X-251414Y218120D01*
X-250991Y218543D01*
X-250779Y218755D01*
X-249510Y220448D01*
X-248663Y222458D01*
X-248028Y224469D01*
X-247499Y226479D01*
X-247288Y228173D01*
X-247182Y228913D01*
Y229654D01*
X-247076Y230183D01*
Y230606D01*
Y230818D01*
Y230924D01*
X-247288Y233675D01*
X-247711Y236109D01*
X-248240Y238225D01*
X-248981Y239918D01*
X-249615Y241188D01*
X-250250Y242246D01*
X-250674Y242775D01*
X-250779Y242987D01*
X-252261Y244363D01*
X-253848Y245421D01*
X-255435Y246161D01*
X-256917Y246690D01*
X-258187Y247008D01*
X-259139Y247114D01*
X-259562Y247220D01*
D02*
G37*
G36*
X-407813Y182527D02*
X-408166D01*
X-408989Y182409D01*
X-409753Y182174D01*
X-410458Y181880D01*
X-411046Y181469D01*
X-411516Y181057D01*
X-411869Y180763D01*
X-412104Y180528D01*
X-412163Y180411D01*
X-412750Y179529D01*
X-413162Y178589D01*
X-413514Y177589D01*
X-413691Y176649D01*
X-413808Y175767D01*
X-413926Y175121D01*
Y174827D01*
Y174651D01*
Y174533D01*
Y174474D01*
X-413867Y173240D01*
X-413691Y172182D01*
X-413397Y171300D01*
X-413162Y170536D01*
X-412868Y170007D01*
X-412574Y169596D01*
X-412398Y169302D01*
X-412339Y169243D01*
X-411751Y168655D01*
X-411105Y168244D01*
X-410458Y167891D01*
X-409870Y167715D01*
X-409341Y167598D01*
X-408930Y167539D01*
X-408695Y167480D01*
X-408577D01*
X-407754Y167539D01*
X-406990Y167774D01*
X-406344Y168068D01*
X-405756Y168420D01*
X-405286Y168714D01*
X-404992Y169008D01*
X-404757Y169243D01*
X-404698Y169302D01*
X-404169Y170066D01*
X-403816Y171007D01*
X-403522Y171947D01*
X-403346Y172946D01*
X-403229Y173769D01*
X-403170Y174474D01*
Y174768D01*
Y174944D01*
Y175062D01*
Y175121D01*
X-403229Y176473D01*
X-403405Y177648D01*
X-403640Y178647D01*
X-403875Y179412D01*
X-404110Y179999D01*
X-404345Y180411D01*
X-404522Y180704D01*
X-404580Y180763D01*
X-405168Y181351D01*
X-405756Y181763D01*
X-406344Y182115D01*
X-406931Y182292D01*
X-407402Y182409D01*
X-407813Y182527D01*
D02*
G37*
G36*
X-345805Y182527D02*
X-346040D01*
X-346569Y182468D01*
X-347039Y182409D01*
X-347451Y182233D01*
X-347803Y182056D01*
X-348097Y181880D01*
X-348332Y181763D01*
X-348450Y181645D01*
X-348508Y181586D01*
X-348861Y181175D01*
X-349214Y180646D01*
X-349508Y180058D01*
X-349802Y179470D01*
X-349978Y178883D01*
X-350154Y178412D01*
X-350213Y178118D01*
X-350272Y178060D01*
Y178001D01*
X-350389Y177472D01*
X-350507Y176825D01*
X-350624Y176061D01*
X-350742Y175297D01*
X-350859Y173710D01*
X-350918Y172064D01*
X-350977Y171300D01*
Y170536D01*
X-351036Y169890D01*
Y169302D01*
Y168832D01*
Y168420D01*
Y168185D01*
Y168127D01*
Y166833D01*
X-350977Y165599D01*
Y164482D01*
X-350918Y163483D01*
X-350859Y162543D01*
X-350801Y161720D01*
X-350683Y160956D01*
X-350624Y160309D01*
X-350566Y159722D01*
X-350448Y159251D01*
X-350389Y158840D01*
X-350331Y158487D01*
X-350272Y158252D01*
Y158017D01*
X-350213Y157958D01*
Y157900D01*
X-349978Y157077D01*
X-349684Y156430D01*
X-349390Y155843D01*
X-349155Y155431D01*
X-348920Y155078D01*
X-348685Y154843D01*
X-348567Y154726D01*
X-348508Y154667D01*
X-348097Y154373D01*
X-347686Y154138D01*
X-347274Y154020D01*
X-346863Y153903D01*
X-346569Y153844D01*
X-346275Y153785D01*
X-346040D01*
X-345511Y153844D01*
X-345041Y153903D01*
X-344629Y154079D01*
X-344277Y154256D01*
X-343983Y154373D01*
X-343748Y154549D01*
X-343630Y154608D01*
X-343571Y154667D01*
X-343219Y155078D01*
X-342866Y155607D01*
X-342572Y156195D01*
X-342278Y156783D01*
X-342102Y157312D01*
X-341926Y157782D01*
X-341867Y158076D01*
X-341808Y158194D01*
X-341691Y158781D01*
X-341573Y159428D01*
X-341455Y160133D01*
X-341397Y160897D01*
X-341279Y162543D01*
X-341220Y164189D01*
X-341162Y164953D01*
Y165717D01*
X-341103Y166363D01*
Y166951D01*
Y167421D01*
Y167833D01*
Y168068D01*
Y168127D01*
Y169420D01*
X-341162Y170654D01*
Y171712D01*
X-341220Y172770D01*
X-341279Y173652D01*
X-341338Y174533D01*
X-341397Y175238D01*
X-341514Y175944D01*
X-341573Y176532D01*
X-341632Y177002D01*
X-341691Y177413D01*
X-341749Y177766D01*
X-341808Y178001D01*
Y178236D01*
X-341867Y178295D01*
Y178354D01*
X-342102Y179176D01*
X-342396Y179882D01*
X-342631Y180411D01*
X-342925Y180881D01*
X-343160Y181175D01*
X-343336Y181410D01*
X-343454Y181527D01*
X-343513Y181586D01*
X-343924Y181880D01*
X-344394Y182115D01*
X-344806Y182292D01*
X-345217Y182409D01*
X-345511Y182468D01*
X-345805Y182527D01*
D02*
G37*
%LPD*%
D10*
X-15242Y12700D02*
Y21410D01*
X15240Y12700D02*
X15240Y21410D01*
X-15242Y12700D02*
X15240D01*
X52071Y21410D02*
Y122931D01*
X-52069D02*
X52071D01*
X-52069Y21410D02*
Y122931D01*
Y21410D02*
X52071D01*
X490300Y-263000D02*
X500300D01*
X490300Y-245000D02*
X500300D01*
X-9000Y-563800D02*
Y-553800D01*
X9000Y-563800D02*
Y-553800D01*
X-500300Y-245000D02*
X-490300D01*
X-500300Y-263000D02*
X-490300D01*
X-441114Y337900D02*
Y347900D01*
X-459114Y337900D02*
Y347900D01*
X-118000Y452200D02*
Y462200D01*
X-136000Y452200D02*
Y462200D01*
X312500Y105300D02*
X322500D01*
X312500Y123300D02*
X322500D01*
X71200Y-364600D02*
X81200D01*
X71200Y-346600D02*
X81200D01*
X-322500Y-105300D02*
X-312500D01*
X-322500Y-123300D02*
X-312500D01*
X-105300Y287100D02*
Y297100D01*
X-123300Y287100D02*
Y297100D01*
X-68500Y-174100D02*
X-58500D01*
X-68500Y-156100D02*
X-58500D01*
X-118000Y503000D02*
Y513000D01*
X-136000Y503000D02*
Y513000D01*
X-30400Y-59800D02*
X-20400D01*
X-30400Y-41800D02*
X-20400D01*
X-83000Y-59800D02*
X-73000D01*
X-83000Y-41800D02*
X-73000D01*
X453500Y337900D02*
Y347900D01*
X435500Y337900D02*
Y347900D01*
D14*
X-63500Y-38100D02*
Y-27943D01*
X-68578D01*
X-70271Y-29636D01*
Y-33022D01*
X-68578Y-34714D01*
X-63500D01*
X-66886D02*
X-70271Y-38100D01*
X-73657D02*
X-77042D01*
X-75349D01*
Y-27943D01*
X-73657Y-29636D01*
X-87199Y-38100D02*
Y-27943D01*
X-82121Y-33022D01*
X-88892D01*
X-12700Y-38100D02*
Y-27943D01*
X-17778D01*
X-19471Y-29636D01*
Y-33022D01*
X-17778Y-34714D01*
X-12700D01*
X-16086D02*
X-19471Y-38100D01*
X-22857D02*
X-26242D01*
X-24550D01*
Y-27943D01*
X-22857Y-29636D01*
X-31321D02*
X-33013Y-27943D01*
X-36399D01*
X-38092Y-29636D01*
Y-31329D01*
X-36399Y-33022D01*
X-34706D01*
X-36399D01*
X-38092Y-34714D01*
Y-36407D01*
X-36399Y-38100D01*
X-33013D01*
X-31321Y-36407D01*
X-50800Y-152400D02*
Y-142243D01*
X-55878D01*
X-57571Y-143936D01*
Y-147322D01*
X-55878Y-149014D01*
X-50800D01*
X-54186D02*
X-57571Y-152400D01*
X-60957D02*
X-64342D01*
X-62649D01*
Y-142243D01*
X-60957Y-143936D01*
X-76192Y-152400D02*
X-69421D01*
X-76192Y-145629D01*
Y-143936D01*
X-74499Y-142243D01*
X-71113D01*
X-69421Y-143936D01*
X-127000Y279400D02*
Y289557D01*
X-132078D01*
X-133771Y287864D01*
Y284478D01*
X-132078Y282786D01*
X-127000D01*
X-130386D02*
X-133771Y279400D01*
X-137157D02*
X-140542D01*
X-138849D01*
Y289557D01*
X-137157Y287864D01*
X-145621Y279400D02*
X-149006D01*
X-147313D01*
Y289557D01*
X-145621Y287864D01*
X-304800Y-101600D02*
Y-91443D01*
X-309878D01*
X-311571Y-93136D01*
Y-96522D01*
X-309878Y-98214D01*
X-304800D01*
X-308186D02*
X-311571Y-101600D01*
X-314957D02*
X-318342D01*
X-316649D01*
Y-91443D01*
X-314957Y-93136D01*
X-323421D02*
X-325113Y-91443D01*
X-328499D01*
X-330192Y-93136D01*
Y-99907D01*
X-328499Y-101600D01*
X-325113D01*
X-323421Y-99907D01*
Y-93136D01*
X76200Y-342900D02*
Y-332743D01*
X71122D01*
X69429Y-334436D01*
Y-337822D01*
X71122Y-339514D01*
X76200D01*
X72814D02*
X69429Y-342900D01*
X66043Y-341207D02*
X64351Y-342900D01*
X60965D01*
X59272Y-341207D01*
Y-334436D01*
X60965Y-332743D01*
X64351D01*
X66043Y-334436D01*
Y-336129D01*
X64351Y-337822D01*
X59272D01*
X317500Y127000D02*
Y137157D01*
X312422D01*
X310729Y135464D01*
Y132078D01*
X312422Y130386D01*
X317500D01*
X314114D02*
X310729Y127000D01*
X307343Y135464D02*
X305651Y137157D01*
X302265D01*
X300572Y135464D01*
Y133771D01*
X302265Y132078D01*
X300572Y130386D01*
Y128693D01*
X302265Y127000D01*
X305651D01*
X307343Y128693D01*
Y130386D01*
X305651Y132078D01*
X307343Y133771D01*
Y135464D01*
X305651Y132078D02*
X302265D01*
X-139700Y444500D02*
Y454657D01*
X-144778D01*
X-146471Y452964D01*
Y449578D01*
X-144778Y447886D01*
X-139700D01*
X-143086D02*
X-146471Y444500D01*
X-149857Y454657D02*
X-156628D01*
Y452964D01*
X-149857Y446193D01*
Y444500D01*
X-139700Y508000D02*
Y518157D01*
X-144778D01*
X-146471Y516464D01*
Y513078D01*
X-144778Y511386D01*
X-139700D01*
X-143086D02*
X-146471Y508000D01*
X-156628Y518157D02*
X-153242Y516464D01*
X-149857Y513078D01*
Y509693D01*
X-151550Y508000D01*
X-154935D01*
X-156628Y509693D01*
Y511386D01*
X-154935Y513078D01*
X-149857D01*
X-437414Y330200D02*
X-427257D01*
Y335278D01*
X-428950Y336971D01*
X-432335D01*
X-434028Y335278D01*
Y330200D01*
Y333586D02*
X-437414Y336971D01*
X-427257Y347128D02*
Y340357D01*
X-432335D01*
X-430643Y343742D01*
Y345435D01*
X-432335Y347128D01*
X-435721D01*
X-437414Y345435D01*
Y342049D01*
X-435721Y340357D01*
X-482600Y-241300D02*
Y-231143D01*
X-487678D01*
X-489371Y-232836D01*
Y-236222D01*
X-487678Y-237914D01*
X-482600D01*
X-485986D02*
X-489371Y-241300D01*
X-497835D02*
Y-231143D01*
X-492757Y-236222D01*
X-499528D01*
X-12700Y-558800D02*
Y-548643D01*
X-17778D01*
X-19471Y-550336D01*
Y-553722D01*
X-17778Y-555414D01*
X-12700D01*
X-16086D02*
X-19471Y-558800D01*
X-22857Y-550336D02*
X-24550Y-548643D01*
X-27935D01*
X-29628Y-550336D01*
Y-552029D01*
X-27935Y-553722D01*
X-26242D01*
X-27935D01*
X-29628Y-555414D01*
Y-557107D01*
X-27935Y-558800D01*
X-24550D01*
X-22857Y-557107D01*
X495300Y-241300D02*
Y-231143D01*
X490222D01*
X488529Y-232836D01*
Y-236222D01*
X490222Y-237914D01*
X495300D01*
X491914D02*
X488529Y-241300D01*
X478372D02*
X485143D01*
X478372Y-234529D01*
Y-232836D01*
X480065Y-231143D01*
X483451D01*
X485143Y-232836D01*
X449500Y377900D02*
X439343D01*
Y372822D01*
X441036Y371129D01*
X444422D01*
X446114Y372822D01*
Y377900D01*
Y374514D02*
X449500Y371129D01*
Y367743D02*
Y364358D01*
Y366050D01*
X439343D01*
X441036Y367743D01*
X-55880Y35560D02*
Y45717D01*
X-60958D01*
X-62651Y44024D01*
Y40638D01*
X-60958Y38946D01*
X-55880D01*
X-66037Y35560D02*
X-69422D01*
X-67730D01*
Y45717D01*
X-66037Y44024D01*
D46*
X65198Y146468D02*
X68583Y149853D01*
X75354D01*
X78740Y146468D01*
Y132926D01*
X75354Y129540D01*
X68583D01*
X65198Y132926D01*
Y139697D01*
X71969D01*
X58427Y129540D02*
Y149853D01*
X44884Y129540D01*
Y149853D01*
X38113D02*
Y129540D01*
X27956D01*
X24571Y132926D01*
Y146468D01*
X27956Y149853D01*
X38113D01*
M02*
