M48
;Layer_Color=9474304
;FILE_FORMAT=4:4
METRIC,LZ
;TYPE=PLATED
T1F00S00C0.3048
T2F00S00C0.8000
T3F00S00C1.4000
T4F00S00C3.5560
%
T01
X00160595Y-00595787
X00262195
X00109795
X00058995
Y-00646587
X00008195
X-00042605
X-00093405
X-00144205
X-00195005Y-00595787
X-00245805
X-00093405
X-00042605
X00109795Y-00646587
X-00296605Y-00544987
X-00347405
Y-00494187
X-00398205
Y-00443387
X-00449005
Y-00392587
X-00499805
X-00550605Y-00341787
Y-00240187
X-00601405
X-00499805Y-00290987
X-00449005
Y-00341787
X-00398205Y-00240187
X-00347405
Y-00290987
X-00296605
Y-00341787
Y-00443387
X-00347405
X-00296605Y-00494187
Y-00240187
X-00245805
Y-00290987
Y-00341787
Y-00392587
X-00195005
Y-00341787
Y-00290987
Y-00240187
X-00144205
Y-00290987
Y-00341787
Y-00392587
Y-00443387
X-00093405
Y-00392587
Y-00341787
Y-00290987
X-00042605
Y-00341787
Y-00392587
Y-00443387
Y-00494187
Y-00544987
X-00093405
X-00144205
X-00195005
X-00245805
Y-00494187
X-00195005
X00008195Y-00392587
Y-00341787
Y-00290987
Y-00240187
X00058995Y-00290987
X00109795
Y-00341787
Y-00392587
X00058995
Y-00443387
X00109795
Y-00544987
X00058995
X00109795Y-00240187
X00160595
Y-00290987
Y-00341787
Y-00392587
X00211395
Y-00341787
Y-00290987
Y-00240187
X00262195
Y-00290987
Y-00341787
X00312995
Y-00290987
Y-00240187
X00363795
Y-00290987
X00465395
Y-00341787
X00516195
Y-00392587
X00465395Y-00443387
X00414595
X00363795
X00312995
Y-00494187
X00262195
X00211395
X00160595
Y-00544987
X00211395
X00312995
X00363795
Y-00494187
X00414595
Y-00544987
X00465395Y-00240187
X00516195Y-00290987
X00566995
Y-00341787
Y-00240187
X00617795
Y-00290987
Y-00189387
X00566995
Y-00138587
Y-00087787
Y-00036987
Y00013813
Y00064613
Y00115413
Y00166213
X00617795
Y00115413
Y00064613
Y-00036987
Y-00087787
X00516195
Y-00138587
Y-00189387
X00414595
Y-00138587
Y-00087787
X00363795
X00312995
X00262195
X00211395
Y-00036987
Y00013813
X00160595
Y00115413
Y00166213
X00211395
Y00115413
Y00064613
X00262195
Y00013813
Y-00036987
X00312995
Y00013813
Y00064613
X00363795
Y00013813
Y-00036987
X00414595
Y00013813
Y00064613
Y00115413
Y00166213
X00465395
X00516195
Y00115413
Y00064613
X00465395
Y00013813
Y-00036987
X00516195
X00312995Y-00138587
X00262195
Y-00189387
X00211395
X00160595Y-00138587
X00312995Y-00189387
X00262195Y00115413
Y00166213
X00312995
X00058995Y00115413
Y00013813
Y-00036987
X00008195
X-00042605Y-00087787
X-00093405
Y-00138587
Y-00189387
X-00144205
X-00195005
X-00245805
Y-00138587
Y-00087787
Y-00036987
Y00013813
Y00064613
Y00115413
Y00166213
X-00195005
Y00115413
Y00064613
Y00013813
X-00144205
Y-00036987
X-00195005Y-00087787
Y-00138587
X00008195
X00058995
Y-00189387
X00109795
Y-00138587
Y-00087787
X00058995
X00109795Y-00036987
Y00013813
Y00064613
X-00093405
X-00144205
Y00166213
X-00042605
Y00013813
X-00093405
X-00296605
X-00347405
X-00398205
X-00449005
Y-00036987
Y-00087787
Y-00138587
X-00499805
X-00550605
Y-00189387
X-00601405
Y-00087787
Y-00036987
X-00550605
Y-00087787
Y00013813
Y00064613
Y00115413
Y00166213
X-00601405
X-00499805
X-00449005Y00115413
Y00064613
X-00398205
Y00115413
Y00166213
X-00347405
Y00115413
Y00064613
X-00296605
Y00115413
Y00166213
Y-00036987
X-00347405
X-00398205
Y-00087787
Y-00138587
Y-00189387
X-00499805
X-00347405Y-00138587
Y-00087787
X-00296605
Y-00138587
Y-00189387
X-00652205Y-00087787
Y-00036987
Y00013813
Y00064613
Y00115413
Y00217013
X-00601405
Y00267813
X-00550605Y00217013
X-00499805
Y00267813
Y00318613
X-00550605
Y00369413
X-00499805Y00420213
Y00471013
X-00449005
Y00420213
Y00369413
Y00318613
Y00267813
X-00398205Y00217013
X-00347405Y00267813
Y00318613
X-00296605
Y00471013
X-00347405
X-00398205
Y00521813
X-00347405
X-00296605
Y00572613
X-00245805
Y00521813
Y00471013
Y00369413
X-00195005
Y00318613
Y00267813
X-00245805
Y00217013
X-00195005
X-00144205
Y00267813
Y00318613
Y00369413
Y00420213
X-00195005
Y00521813
Y00572613
X-00144205
Y00521813
Y00471013
X-00093405Y00521813
Y00572613
X-00042605
Y00521813
Y00471013
Y00420213
Y00369413
Y00318613
Y00267813
Y00217013
X00008195
Y00267813
Y00318613
X00058995
Y00267813
Y00217013
X00109795
Y00267813
Y00318613
X00058995Y00369413
Y00420213
X00109795
Y00521813
X00058995
X00008195
Y00572613
X00058995
X00109795
X00160595
Y00521813
Y00471013
Y00420213
Y00369413
Y00318613
Y00267813
Y00217013
X00211395
Y00267813
Y00318613
Y00369413
Y00420213
X00262195
Y00369413
Y00318613
Y00267813
Y00217013
X00312995Y00267813
Y00318613
Y00420213
Y00471013
X00262195
Y00521813
X00211395
Y00572613
X00312995
Y00521813
X00363795
X00414595Y00471013
X00465395
Y00420213
Y00318613
X00414595
Y00267813
X00363795
Y00217013
X00414595
X00465395Y00267813
X00516195
Y00217013
Y00318613
Y00369413
X00566995Y00318613
Y00217013
X00617795
X00211395Y00623413
X00160595
X00109795
X00058995
X-00042605
X-00093405
X-00144205
X-00195005
T02
X-00138475Y-00606698
X-00000001Y-005969
Y-006223
X00138474Y-00606698
X-00270006Y-00560673
X-00258986Y-00537788
X-00387998Y-00486533
X-00372161Y-00466675
X-00466675Y-00372161
X-00486534Y-00387997
X-00537789Y-00258985
X-00560673Y-00270005
X-0032673Y-00237383
X-00306181Y-00222453
X-00222453Y-00306181
X-00237383Y-0032673
X-00116951Y-00359937
X-001248Y-00384094
X0Y-0037846
Y-0040386
X001248Y-00384094
X00116951Y-00359937
X00132822Y-00581935
X-00132823Y-00581934
X00270005Y-00560673
X00258985Y-00537789
X00387997Y-00486534
X0037216Y-00466676
X00466675Y-00372162
X00486533Y-00387998
X00537788Y-00258986
X0032673Y-00237383
X00306181Y-00222453
X00222453Y-00306181
X00237383Y-0032673
X00560673Y-00270007
X00581934Y-00132823
X00606698Y-00138476
X005969Y-00000001
X006223Y-00000001
X00606698Y00138475
X00581935Y00132823
X00384094Y001248
X00359937Y00116951
X0037846Y0
X0040386
X00384094Y-001248
X00359937Y-00116951
X001905Y0
X001651
X000127
X-000127
X-001651
X-001905
X-00134704Y-00134704
X-00116743Y-00116743
X0Y-001651
Y-001905
X00134704Y-00134704
X00116743Y-00116743
Y00116743
X00134704Y00134704
X0Y001651
Y001905
X-00134704Y00134704
X-00116743Y00116743
X-00359937Y00116951
X-00384094Y001248
X-0037846Y0
X-0040386
X-00384094Y-001248
X-00359937Y-00116951
X-00581935Y-00132822
X-00606698Y-00138474
X-005969Y0
X-006223
X-00606698Y00138475
X-00581934Y00132823
X-00560673Y00270006
X-00537788Y00258986
X-00486534Y00387998
X-00466675Y00372161
X-00372161Y00466675
X-00387998Y00486534
X-00258985Y00537788
X-00270006Y00560673
X-00306181Y00222453
X-0032673Y00237383
X-00222453Y00306181
X-00237383Y0032673
X-00116951Y00359937
X-001248Y00384094
X0Y0037846
Y0040386
X001248Y00384094
X00116951Y00359937
X00132823Y00581934
X0Y005969
X-00132823Y00581935
X00270006Y00560673
X00258985Y00537788
X00387998Y00486534
X00372161Y00466675
X00466675Y00372161
X00486534Y00387998
X00537788Y00258985
X0032673Y00237383
X00306181Y00222453
X00222453Y00306181
X00237383Y0032673
X00560673Y00270006
X00138475Y00606698
X0Y006223
X-00138475Y00606698
T03
X-00021001Y0005124
X00020999Y0005124
Y0010624
X-00021001Y0010624
T04
X-00381Y-00381
X00381
X-00381Y00381
X00381
M30
